<?xml version="1.0" encoding="UTF-8" standalone="no"?>
<!-- Created with Inkscape (http://www.inkscape.org/) -->

<svg
   xmlns:dc="http://purl.org/dc/elements/1.1/"
   xmlns:cc="http://creativecommons.org/ns#"
   xmlns:rdf="http://www.w3.org/1999/02/22-rdf-syntax-ns#"
   xmlns:svg="http://www.w3.org/2000/svg"
   xmlns="http://www.w3.org/2000/svg"
   xmlns:sodipodi="http://sodipodi.sourceforge.net/DTD/sodipodi-0.dtd"
   xmlns:inkscape="http://www.inkscape.org/namespaces/inkscape"
   width="120"
   height="150"
   id="svg7747"
   version="1.1"
   inkscape:version="0.48.4 r9939"
   sodipodi:docname="beyond science.svg">
  <defs
     id="defs7749" />
  <sodipodi:namedview
     id="base"
     pagecolor="#ffffff"
     bordercolor="#666666"
     borderopacity="1.0"
     inkscape:pageopacity="0.0"
     inkscape:pageshadow="2"
     inkscape:zoom="3.72"
     inkscape:cx="82.325436"
     inkscape:cy="88.884738"
     inkscape:document-units="px"
     inkscape:current-layer="layer1"
     showgrid="false"
     inkscape:window-width="1292"
     inkscape:window-height="745"
     inkscape:window-x="-8"
     inkscape:window-y="-8"
     inkscape:window-maximized="1" />
  <metadata
     id="metadata7752">
    <rdf:RDF>
      <cc:Work
         rdf:about="">
        <dc:format>image/svg+xml</dc:format>
        <dc:type
           rdf:resource="http://purl.org/dc/dcmitype/StillImage" />
        <dc:title />
      </cc:Work>
    </rdf:RDF>
  </metadata>
  <g
     inkscape:label="Ebene 1"
     inkscape:groupmode="layer"
     id="layer1"
     transform="translate(0,-902.36218)">
    <path
       style="fill:#ffcc00;fill-opacity:1;fill-rule:nonzero"
       id="path7781"
       d="m 20.636043,977.82041 c -0.183629,-0.015 -0.369919,0.001 -0.55365,0.0167 -0.423112,0.0319 -0.841707,0.10104 -1.257354,0.18439 -0.628129,0.11118 -1.234091,0.31095 -1.836898,0.5146 -0.759841,0.27237 -1.495003,0.60483 -2.223556,0.95072 -0.842272,0.40442 -1.631348,0.90564 -2.402974,1.42965 -2.8396298,2.06757 -7.5749877,6.22193 4.46937,-3.86841 -0.902052,0.74061 -1.727815,1.56502 -2.518863,2.42129 -0.821686,0.89393 -1.528668,1.88 -2.178577,2.90301 -0.655276,1.0443 -1.167562,2.16561 -1.630334,3.30543 -0.456905,1.14335 -0.7792741,2.33157 -1.0415292,3.53252 -0.2463838,1.15484 -0.346609,2.33158 -0.3908293,3.50931 -0.040258,1.09685 0.055315,2.18909 0.2225251,3.27178 0.1556571,0.993 0.4435445,1.95439 0.8018914,2.89107 0.338727,0.86615 0.805275,1.67011 1.340933,2.42741 0.520988,0.7194 1.160513,1.3326 1.843025,1.8954 0.686799,0.5512 1.46911,0.9515 2.274853,1.2956 0.850367,0.3508 1.746167,0.5596 2.648413,0.7229 0.942373,0.1601 1.89933,0.1953 2.853169,0.1763 0.975986,-0.019 1.941743,-0.1645 2.900099,-0.3396 0.966094,-0.1734 1.903399,-0.4626 2.827861,-0.7868 0.923635,-0.3386 1.812592,-0.7605 2.687258,-1.2084 0.855441,-0.4443 1.67588,-0.9497 2.474296,-1.4886 0.775129,-0.5182 1.502336,-1.1028 2.211689,-1.70666 -12.159619,9.96916 -7.510288,6.51616 -5.013221,4.08966 0.596479,-0.5838 1.150438,-1.2079 1.684661,-1.8484 0.493685,-0.5927 0.9486,-1.2156 1.376114,-1.8572 0.39597,-0.58922 0.739509,-1.21021 1.054781,-1.84555 0.288631,-0.59629 0.528591,-1.21411 0.745051,-1.83969 0.205245,-0.58473 0.361075,-1.18453 0.48977,-1.7902 0.118062,-0.56166 0.183017,-1.13197 0.223772,-1.70384 0.03548,-0.53577 0.03421,-1.07241 0.0094,-1.60849 -0.02881,-0.50333 -0.09748,-1.00324 -0.181137,-1.50004 -0.08195,-0.48014 -0.210975,-0.94974 -0.352654,-1.4151 -0.135745,-0.45623 -0.308161,-0.89969 -0.495988,-1.3366 -0.188463,-0.42751 -0.410162,-0.83935 -0.640124,-1.24567 -0.226968,-0.39487 -0.483263,-0.77145 -0.753548,-1.13765 -0.275801,-0.37321 -0.575906,-0.72753 -0.885792,-1.07265 -0.314579,-0.34608 -0.640254,-0.68119 -0.979404,-1.00316 -0.338058,-0.32794 -0.687979,-0.64339 -1.046268,-0.949 -0.360716,-0.31531 -0.740714,-0.60706 -1.128208,-0.88839 -0.383723,-0.28277 -0.791191,-0.52909 -1.204605,-0.76523 -0.415927,-0.23875 -0.845651,-0.45056 -1.282861,-0.64695 -0.446017,-0.19892 -0.900461,-0.37786 -1.357216,-0.55037 -0.468851,-0.17614 -0.94389,-0.33493 -1.420693,-0.48798 -0.47804,-0.15671 -0.965308,-0.28234 -1.452397,-0.40717 -0.490121,-0.12314 -0.986691,-0.21953 -1.482471,-0.31693 -0.312106,-0.0597 -0.628309,-0.0916 -0.943544,-0.12907 0,0 6.694313,-6.51294 6.694313,-6.51294 l 0,0 c 0.326465,0.0513 0.651729,0.10952 0.974787,0.17947 0.510027,0.10591 1.019449,0.21572 1.521552,0.35529 0.500498,0.13589 0.99823,0.28136 1.489596,0.44765 0.488556,0.16368 0.975157,0.33346 1.454961,0.52149 0.472024,0.18599 0.941705,0.37848 1.400771,0.59486 0.456686,0.219 0.905463,0.45429 1.342046,0.71127 0.435985,0.26007 0.862581,0.5354 1.269791,0.83905 0.40276,0.29992 0.797242,0.61069 1.176209,0.9404 0.368482,0.31903 0.730492,0.64553 1.079491,0.98589 0.35396,0.34096 0.695407,0.69413 1.025438,1.05837 0.328514,0.36734 0.648251,0.74288 0.943071,1.13808 0.293188,0.39458 0.573143,0.79921 0.822316,1.22336 0.249705,0.43183 0.48738,0.87122 0.69874,1.32324 0.210152,0.46469 0.406208,0.93601 0.560534,1.42262 0.15626,0.49592 0.313893,0.99217 0.417201,1.50258 0.106616,0.52614 0.188736,1.05667 0.241363,1.5911 0.04913,0.56547 0.07545,1.13295 0.04901,1.70055 -0.01797,0.60699 -0.05906,1.2134 -0.156952,1.81342 -0.107236,0.63917 -0.237324,1.27466 -0.427861,1.89496 -0.204333,0.65413 -0.421003,1.30428 -0.692407,1.93435 -0.290891,0.6727 -0.610837,1.33303 -0.995042,1.95823 -0.414473,0.67011 -0.843916,1.3307 -1.332555,1.95003 -0.522874,0.6655 -1.058508,1.32204 -1.645392,1.9328 -2.718411,2.85401 -6.02921,5.11041 -8.946864,7.71841 -0.73559,0.5798 -1.488347,1.1379 -2.284954,1.632 -0.827058,0.511 -1.671526,0.9943 -2.550539,1.4112 -0.905158,0.4247 -1.825001,0.8217 -2.780588,1.1204 -0.960815,0.294 -1.935458,0.5419 -2.930867,0.6884 -0.997202,0.1454 -2.00095,0.2519 -3.010515,0.234 -0.999926,-0.025 -2.000363,-0.093 -2.981284,-0.301 -0.955616,-0.207 -1.9019179,-0.4644 -2.7957844,-0.8681 -0.8681967,-0.4043 -1.708378,-0.869 -2.4479889,-1.484 -0.7338501,-0.6234 -1.4210266,-1.3008 -1.9906414,-2.0809 -0.5812396,-0.8166 -1.0940035,-1.68 -1.4735417,-2.6102 -0.3948668,-0.9887 -0.7215892,-2.0032 -0.9048568,-3.0544 -0.1999675,-1.1304 -0.3297093,-2.27243 -0.3115097,-3.42256 0.015478,-1.22213 0.093853,-2.444 0.3088141,-3.64905 0.234414,-1.24113 0.5268313,-2.47133 0.9568571,-3.66116 0.4329882,-1.18048 0.9178035,-2.34281 1.5377844,-3.43929 0.617393,-1.06378 1.283837,-2.10035 2.0850897,-3.03736 0.7558976,-0.89374 1.5578732,-1.74815 2.4351722,-2.5248 3.1003194,-2.60105 6.1415054,-5.49763 9.5553034,-7.76535 0.811577,-0.50355 1.642164,-0.97692 2.519875,-1.35728 0.760634,-0.33584 1.530096,-0.65539 2.327189,-0.8956 0.642757,-0.19103 1.292949,-0.35512 1.957007,-0.45428 0.462294,-0.066 0.927195,-0.12587 1.395301,-0.11816 0.244203,0.0107 0.487282,0.0282 0.723826,0.0943 0,0 -6.787575,6.52476 -6.787575,6.52476 z"
       inkscape:connector-curvature="0" />
    <path
       style="fill:#ffcc00;fill-opacity:1;fill-rule:nonzero"
       id="path7781-8"
       d="m 100.24739,970.33463 c 0.18363,0.015 0.36992,-0.001 0.55365,-0.0167 0.42311,-0.0319 0.84171,-0.10104 1.25736,-0.18439 0.62813,-0.11114 1.23409,-0.31095 1.8369,-0.5146 0.75984,-0.27237 1.495,-0.60484 2.22355,-0.95071 0.84227,-0.40442 1.63134,-0.90565 2.40297,-1.42965 2.83963,-2.06758 7.57499,-6.22194 -4.46937,3.8684 0.90205,-0.7406 1.72782,-1.56502 2.51886,-2.42128 0.82168,-0.89394 1.52867,-1.88001 2.17859,-2.90303 0.65527,-1.04428 1.16755,-2.1656 1.63032,-3.30542 0.45691,-1.14335 0.77928,-2.33157 1.04154,-3.53253 0.24638,-1.15483 0.34661,-2.33157 0.39082,-3.50929 0.0402,-1.09685 -0.0554,-2.18909 -0.22252,-3.27179 -0.15565,-0.993 -0.44354,-1.95438 -0.8019,-2.89107 -0.33871,-0.86615 -0.80527,-1.67016 -1.34092,-2.42745 -0.521,-0.71937 -1.16052,-1.33258 -1.84304,-1.89538 -0.68679,-0.55119 -1.4691,-0.95147 -2.27484,-1.29553 -0.85037,-0.35079 -1.74616,-0.5597 -2.64841,-0.72297 -0.94238,-0.16007 -1.89933,-0.19527 -2.853177,-0.17621 -0.975972,0.02 -1.941735,0.16441 -2.900092,0.3395 -0.96609,0.1735 -1.903402,0.46266 -2.827867,0.78683 -0.923632,0.33859 -1.812589,0.76045 -2.687248,1.20841 -0.855449,0.44425 -1.675882,0.94965 -2.474296,1.48859 -0.775144,0.51823 -1.502345,1.10281 -2.211703,1.70666 12.15963,-9.96924 7.510295,-6.51615 5.013231,-4.08961 -0.596482,0.58373 -1.150438,1.20788 -1.684656,1.8484 -0.493692,0.59264 -0.9486,1.21554 -1.376119,1.85713 -0.395978,0.58924 -0.73952,1.21025 -1.054784,1.84557 -0.288636,0.59629 -0.528592,1.21411 -0.745053,1.8397 -0.205243,0.58472 -0.361079,1.18453 -0.489773,1.79019 -0.118058,0.56166 -0.183014,1.13196 -0.223774,1.70384 -0.03545,0.53577 -0.03416,1.07242 -0.0093,1.60849 0.02878,0.50333 0.09746,1.00324 0.181141,1.50005 0.0819,0.48013 0.210976,0.94973 0.352656,1.4151 0.135748,0.45622 0.308163,0.89968 0.495985,1.33659 0.188466,0.4275 0.410157,0.83935 0.640121,1.24567 0.226969,0.39488 0.483267,0.77146 0.753559,1.13765 0.275802,0.37321 0.575903,0.72753 0.885797,1.07266 0.314574,0.34607 0.64025,0.68118 0.979405,1.00316 0.338054,0.32793 0.687972,0.64338 1.046266,0.94899 0.360716,0.31531 0.740712,0.60706 1.128209,0.8884 0.383717,0.28276 0.791185,0.52908 1.204606,0.76522 0.415926,0.23876 0.845645,0.45057 1.282853,0.64696 0.446018,0.19891 0.90047,0.37786 1.357215,0.55036 0.468854,0.17614 0.943896,0.33494 1.420694,0.48799 0.478049,0.1567 0.965319,0.28233 1.452395,0.40717 0.490111,0.12313 0.986694,0.21952 1.482474,0.31692 0.3121,0.0597 0.6283,0.0916 0.94354,0.12907 0,0 -6.694307,6.51294 -6.694307,6.51294 l 0,0 c -0.32646,-0.0514 -0.651728,-0.1095 -0.974783,-0.17948 -0.510035,-0.10588 -1.019451,-0.21571 -1.521555,-0.35528 -0.500501,-0.13589 -0.998228,-0.28135 -1.489604,-0.44765 -0.488555,-0.16368 -0.975145,-0.33345 -1.45495,-0.52149 -0.472025,-0.18599 -0.941708,-0.37848 -1.400782,-0.59487 -0.456686,-0.21898 -0.905464,-0.45427 -1.34205,-0.71126 -0.435979,-0.26007 -0.862574,-0.53541 -1.269784,-0.83905 -0.402764,-0.29992 -0.797244,-0.6107 -1.176212,-0.9404 -0.368484,-0.31902 -0.730487,-0.64552 -1.079493,-0.98589 -0.353953,-0.34095 -0.695401,-0.69413 -1.025441,-1.05837 -0.328508,-0.36734 -0.648253,-0.74288 -0.943066,-1.13808 -0.293187,-0.39458 -0.573142,-0.79921 -0.822316,-1.22335 -0.249701,-0.43184 -0.487387,-0.87123 -0.698736,-1.32325 -0.210156,-0.46469 -0.406215,-0.936 -0.560542,-1.42261 -0.156258,-0.49594 -0.313895,-0.99219 -0.4172,-1.50259 -0.106582,-0.52614 -0.188735,-1.05666 -0.24136,-1.5911 -0.04913,-0.56545 -0.07546,-1.13295 -0.04902,-1.70054 0.01801,-0.60699 0.05908,-1.21341 0.156948,-1.81343 0.107283,-0.63917 0.237322,-1.27465 0.427858,-1.89494 0.204342,-0.65415 0.421004,-1.3043 0.692407,-1.93437 0.290893,-0.6727 0.610837,-1.33303 0.995046,-1.95821 0.414475,-0.67013 0.843913,-1.33072 1.332551,-1.95006 0.522882,-0.66548 1.058516,-1.32203 1.645393,-1.93278 2.718416,-2.85397 6.02922,-5.11039 8.946877,-7.71839 0.735589,-0.57978 1.48834,-1.13791 2.284953,-1.6321 0.827057,-0.51094 1.671532,-0.99422 2.550544,-1.4111 0.905159,-0.42476 1.824986,-0.82166 2.780576,-1.12035 0.96081,-0.29404 1.93545,-0.54198 2.93088,-0.68847 0.99719,-0.14547 2.00094,-0.2519 3.0105,-0.23399 0.99993,0.0248 2.00036,0.0932 2.98129,0.30104 0.95562,0.20694 1.90192,0.46437 2.79578,0.86809 0.8682,0.40427 1.70838,0.86894 2.44798,1.48401 0.73386,0.62338 1.42104,1.30077 1.99065,2.0809 0.58124,0.81647 1.09401,1.67985 1.47353,2.61021 0.39488,0.98859 0.7216,2.00312 0.90487,3.05433 0.19997,1.13037 0.32971,2.27242 0.31152,3.42257 -0.0155,1.22212 -0.0939,2.44399 -0.30882,3.64906 -0.23443,1.24111 -0.52684,2.4713 -0.95686,3.66114 -0.43299,1.18048 -0.91781,2.34281 -1.53779,3.43929 -0.61738,1.06378 -1.28383,2.10035 -2.08509,3.03736 -0.75589,0.89375 -1.55786,1.74815 -2.43517,2.5248 -3.10032,2.60105 -6.1415,5.49763 -9.5553,7.76535 -0.81158,0.50356 -1.64217,0.97693 -2.519884,1.35728 -0.760621,0.33585 -1.530079,0.65539 -2.327171,0.8956 -0.642755,0.19104 -1.292949,0.35513 -1.957007,0.45428 -0.462304,0.066 -0.927205,0.12587 -1.395309,0.11816 -0.244201,-0.0106 -0.48728,-0.0282 -0.72382,-0.0943 0,0 6.787561,-6.52476 6.787561,-6.52476 z"
       inkscape:connector-curvature="0" />
    <path
       style="fill:#ffcc00;fill-opacity:1;fill-rule:nonzero"
       id="path7813"
       d="m 27.000308,978.49705 c 0.15107,-0.0834 0.289414,-0.18471 0.435376,-0.2808 0.234099,-0.14745 0.437619,-0.33367 0.662062,-0.49468 0.324063,-0.2299 0.644874,-0.46329 0.96359,-0.70081 0.440711,-0.33427 0.868728,-0.68486 1.304012,-1.02613 0.55978,-0.45709 1.129863,-0.90119 1.692311,-1.35488 0.675913,-0.54282 1.355065,-1.0815 2.031613,-1.62349 0.760926,-0.60031 1.515294,-1.20885 2.271062,-1.81563 0.837915,-0.67312 1.667567,-1.35648 2.49914,-2.03745 0.901525,-0.7378 1.798982,-1.48057 2.694797,-2.22535 0.964526,-0.7988 1.922218,-1.60578 2.878762,-2.41419 1.033411,-0.87175 2.063257,-1.74774 3.094319,-2.62228 1.096416,-0.93104 2.192786,-1.86213 3.287956,-2.79467 1.138562,-0.96202 2.278591,-1.9223 3.418749,-2.88244 1.160308,-0.97733 2.323709,-1.95095 3.483124,-2.92937 1.153581,-0.97759 2.308947,-1.95307 3.466984,-2.92535 1.142935,-0.96048 2.290665,-1.91517 3.435058,-2.87389 1.137842,-0.94709 2.26996,-1.90106 3.40402,-2.8527 1.128987,-0.94766 2.263029,-1.8892 3.395288,-2.8329 1.127586,-0.93426 2.251358,-1.87312 3.373504,-2.81396 1.115342,-0.93214 2.231373,-1.86346 3.344208,-2.79864 1.079307,-0.91225 2.159696,-1.82316 3.243832,-2.72961 1.029619,-0.86436 2.06709,-1.71919 3.097938,-2.58205 0,0 12.018781,1.05654 12.018781,1.05654 l 0,0 c -1.029949,0.87067 -2.075721,1.72219 -3.112673,2.58442 -1.085706,0.90764 -2.178345,1.80694 -3.255142,2.72529 -1.113466,0.93655 -2.229601,1.86986 -3.348674,2.79967 -1.122534,0.9419 -2.243746,1.88543 -3.374322,2.8176 -1.132426,0.94396 -2.268581,1.88341 -3.398705,2.83014 -1.136331,0.94856 -2.263176,1.9085 -3.40363,2.85207 -1.145129,0.95962 -2.294445,1.91415 -3.440167,2.87305 -1.15902,0.97044 -2.316832,1.94233 -3.469513,2.92037 -1.157696,0.97999 -2.320426,1.95392 -3.479689,2.93203 -1.137771,0.9575 -2.271602,1.91968 -3.409627,2.87688 -1.093128,0.92943 -2.181888,1.86408 -3.273377,2.79546 -1.024012,0.87541 -2.045994,1.75325 -3.073748,2.62425 -0.948966,0.81373 -1.899641,1.6256 -2.86033,2.42539 -0.888583,0.75019 -1.781233,1.49558 -2.678093,2.23576 -0.824485,0.68592 -1.652178,1.36798 -2.479593,2.05034 -0.747972,0.61144 -1.49588,1.22304 -2.250503,1.8262 -0.671623,0.53434 -1.332484,1.08201 -2.004399,1.61601 -0.552585,0.45142 -1.10259,0.90596 -1.65789,1.3541 -0.41934,0.35663 -0.853525,0.69524 -1.272605,1.0523 -0.306904,0.25402 -0.614035,0.50924 -0.937841,0.74096 -0.215055,0.16308 -0.445383,0.3009 -0.638887,0.49161 -0.14238,0.11843 -0.289091,0.23332 -0.434772,0.34268 0,0 -12.242306,-1.21185 -12.242306,-1.21185 z"
       inkscape:connector-curvature="0" />
    <path
       style="fill:#ffcc00;fill-opacity:1;fill-rule:nonzero"
       id="path7813-2"
       d="m 25.181517,1016.9516 c 0.15107,-0.083 0.289414,-0.1848 0.435376,-0.2808 0.234099,-0.1474 0.437618,-0.3337 0.662062,-0.4946 0.324063,-0.2299 0.644874,-0.4634 0.96359,-0.7008 0.440711,-0.3342 0.868728,-0.685 1.304012,-1.0262 0.55978,-0.4571 1.129863,-0.9012 1.69231,-1.3549 0.675913,-0.5427 1.355067,-1.0815 2.031614,-1.6234 0.760926,-0.6004 1.515295,-1.2089 2.271062,-1.8156 0.837915,-0.6732 1.667566,-1.3566 2.49914,-2.0374 0.901525,-0.738 1.798981,-1.4808 2.694798,-2.2255 0.964525,-0.7988 1.922217,-1.6058 2.87876,-2.4143 1.033411,-0.8717 2.063257,-1.7476 3.09432,-2.6221 1.096416,-0.93104 2.192786,-1.86219 3.287956,-2.79473 1.138562,-0.96202 2.27859,-1.92231 3.418748,-2.88244 1.160309,-0.97734 2.32371,-1.95096 3.483125,-2.92937 1.153581,-0.97759 2.308946,-1.95308 3.466983,-2.92536 1.142935,-0.96047 2.290665,-1.91517 3.435059,-2.87388 1.137841,-0.9471 2.269959,-1.90107 3.40402,-2.85271 1.128987,-0.94766 2.263029,-1.88919 3.395287,-2.83289 1.127587,-0.93426 2.251358,-1.87312 3.373505,-2.81397 1.115342,-0.93213 2.231372,-1.86346 3.344208,-2.79863 1.079307,-0.91225 2.159695,-1.82316 3.243832,-2.72961 1.029619,-0.86436 2.067089,-1.71921 3.097938,-2.58205 0,0 12.018781,1.05653 12.018781,1.05653 l 0,0 c -1.02995,0.87068 -2.075721,1.7222 -3.112673,2.58442 -1.085706,0.90765 -2.178346,1.80694 -3.255142,2.72529 -1.113465,0.93655 -2.229601,1.86987 -3.348674,2.79967 -1.122533,0.94191 -2.243747,1.88543 -3.374322,2.8176 -1.132425,0.94397 -2.26858,1.88341 -3.398705,2.83015 -1.136331,0.94856 -2.263176,1.9085 -3.403631,2.85206 -1.145128,0.95963 -2.294444,1.91416 -3.440166,2.87305 -1.15902,0.97045 -2.316833,1.94234 -3.469513,2.92037 -1.157696,0.97999 -2.320426,1.95392 -3.47969,2.93204 -1.13777,0.9575 -2.271601,1.91965 -3.409627,2.87692 -1.093127,0.92939 -2.181887,1.86404 -3.273376,2.79544 -1.024011,0.8754 -2.045994,1.7532 -3.073749,2.6241 -0.948965,0.8139 -1.89964,1.6257 -2.860329,2.4255 -0.888584,0.7502 -1.781232,1.4957 -2.678093,2.2358 -0.824485,0.6858 -1.652179,1.368 -2.479594,2.0502 -0.747971,0.6116 -1.49588,1.2232 -2.250502,1.8263 -0.671623,0.5344 -1.332484,1.082 -2.0044,1.616 -0.552584,0.4515 -1.102589,0.9059 -1.65789,1.3542 -0.419339,0.3565 -0.853524,0.6952 -1.272605,1.0522 -0.306904,0.254 -0.614035,0.5093 -0.93784,0.741 -0.215056,0.1631 -0.445383,0.3008 -0.638888,0.4915 -0.142379,0.1186 -0.289089,0.2335 -0.434772,0.3427 0,0 -12.242305,-1.2118 -12.242305,-1.2118 z"
       inkscape:connector-curvature="0" />
  </g>
</svg>
