<?xml version="1.0" encoding="UTF-8" standalone="no"?>
<!-- Created with Inkscape (http://www.inkscape.org/) -->

<svg
   xmlns:osb="http://www.openswatchbook.org/uri/2009/osb"
   xmlns:dc="http://purl.org/dc/elements/1.1/"
   xmlns:cc="http://creativecommons.org/ns#"
   xmlns:rdf="http://www.w3.org/1999/02/22-rdf-syntax-ns#"
   xmlns:svg="http://www.w3.org/2000/svg"
   xmlns="http://www.w3.org/2000/svg"
   xmlns:sodipodi="http://sodipodi.sourceforge.net/DTD/sodipodi-0.dtd"
   xmlns:inkscape="http://www.inkscape.org/namespaces/inkscape"
   width="120"
   height="150"
   id="svg4526"
   version="1.1"
   inkscape:version="0.48.4 r9939"
   sodipodi:docname="modelling_calculate.svg">
  <defs
     id="defs4528">
    <linearGradient
       id="linearGradient6602"
       osb:paint="solid">
      <stop
         style="stop-color:#ffcc00;stop-opacity:1;"
         offset="0"
         id="stop6604" />
    </linearGradient>
  </defs>
  <sodipodi:namedview
     id="base"
     pagecolor="#ffffff"
     bordercolor="#666666"
     borderopacity="1.0"
     inkscape:pageopacity="0.0"
     inkscape:pageshadow="2"
     inkscape:zoom="13.905761"
     inkscape:cx="60"
     inkscape:cy="57.875375"
     inkscape:document-units="px"
     inkscape:current-layer="layer1"
     showgrid="false"
     inkscape:window-width="1292"
     inkscape:window-height="745"
     inkscape:window-x="-8"
     inkscape:window-y="-8"
     inkscape:window-maximized="1" />
  <metadata
     id="metadata4531">
    <rdf:RDF>
      <cc:Work
         rdf:about="">
        <dc:format>image/svg+xml</dc:format>
        <dc:type
           rdf:resource="http://purl.org/dc/dcmitype/StillImage" />
        <dc:title />
      </cc:Work>
    </rdf:RDF>
  </metadata>
  <g
     inkscape:label="Ebene 1"
     inkscape:groupmode="layer"
     id="layer1"
     transform="translate(0,-902.36218)">
    <path
       style="fill:#ffcc00;fill-opacity:1;fill-rule:nonzero"
       id="path5114"
       d="m 43.947952,980.98411 c 0.06666,0.18987 0.112624,0.38672 0.185975,0.57438 0.08577,0.25871 0.211963,0.49813 0.335591,0.738 0.155618,0.29059 0.341009,0.56152 0.535387,0.82411 0.232022,0.30729 0.492394,0.58857 0.766976,0.85304 0.32348,0.30497 0.683726,0.55557 1.058132,0.78371 0.44275,0.26619 0.911039,0.47934 1.383853,0.67732 0.5255,0.1979 1.06747,0.33339 1.618321,0.42122 0.604354,0.0783 1.215383,0.0773 1.823217,0.0651 0.667982,-0.0521 1.328803,-0.16828 1.985042,-0.30651 0.681175,-0.14893 1.345982,-0.36821 2.004235,-0.60348 0.642597,-0.25069 1.281967,-0.50694 1.902462,-0.81445 0.590553,-0.30235 1.176423,-0.6139 1.740428,-0.96912 0.543562,-0.34506 1.424848,-1.80884 1.931325,-2.21194 0.498475,-0.40443 0.609553,0.23483 1.079823,-0.2051 -21.088021,17.53456 -13.977167,11.50266 -9.840522,7.4457 0.453732,-0.44514 0.370806,-0.13446 0.78659,-0.61865 0.40674,-0.48662 0.442966,0.23792 0.810896,-0.28233 0.369569,-0.50878 0.722302,-1.03072 1.043254,-1.57524 0.325689,-0.53267 0.62976,-1.0792 0.918023,-1.63535 0.273722,-0.56891 0.55414,-1.1342 0.810032,-1.71244 0.252744,-0.5939 0.475405,-1.20163 0.701509,-1.80732 0.22442,-0.60043 0.423777,-1.2107 0.613367,-1.82426 0.1952,-0.62159 0.358767,-1.25313 0.513742,-1.88702 0.151305,-0.63234 0.294234,-1.26669 0.410012,-1.90741 0.11223,-0.64301 0.205896,-1.28941 0.295744,-1.93628 0.09037,-0.64415 0.162969,-1.29084 0.243503,-1.93638 0.06917,-0.64334 0.107967,-1.28967 0.157718,-1.93485 0.03681,-0.64465 0.0602,-1.29002 0.06596,-1.93579 0.01629,-0.63595 -0.01774,-1.2717 -0.05547,-1.90615 -0.04627,-0.64496 -0.131725,-1.28532 -0.222423,-1.9246 -0.09586,-0.64542 -0.224914,-1.28451 -0.377846,-1.91728 -0.146056,-0.6301 -0.337278,-1.2466 -0.553182,-1.85334 -0.217915,-0.60565 -0.483806,-1.18976 -0.768319,-1.76301 -0.2844,-0.57019 -0.611183,-1.11471 -0.954724,-1.64659 -0.340767,-0.5331 -0.723732,-1.03339 -1.127376,-1.5141 -0.418727,-0.49434 -0.869539,-0.95706 -1.333016,-1.40396 -0.459736,-0.44872 -0.940801,-0.87226 -1.439085,-1.27201 -0.504905,-0.39358 -1.031162,-0.75625 -1.569086,-1.09702 -0.550693,-0.34784 -1.126045,-0.64721 -1.707407,-0.93234 -0.595385,-0.25897 -1.198724,-0.49805 -1.815964,-0.69182 -0.634255,-0.20108 -1.276412,-0.36704 -1.924551,-0.50853 -0.653958,-0.12423 -1.31106,-0.22312 -1.973428,-0.27865 -0.671907,-0.0697 -1.34788,-0.0525 -2.021849,-0.0442 -0.690486,0.0181 -1.376027,0.10411 -2.061866,0.18302 -0.71014,0.0869 -1.406905,0.25482 -2.10048,0.43312 -0.731573,0.19898 -1.457328,0.42434 -2.163988,0.70717 -0.769294,0.2994 -1.52347,0.64195 -2.265023,1.0111 -0.799021,0.40694 -1.578751,0.85506 -2.351159,1.31564 -0.816686,0.50871 -1.607121,1.06056 -2.384796,1.63294 -0.848008,0.60316 -1.644648,1.28027 -2.445818,1.94979 -0.422716,0.3513 -0.838457,0.71142 -1.249789,1.07747 -0.140757,0.12526 -0.562689,0.50147 -0.421753,0.37644 8.836237,-7.83933 15.515306,-13.77029 11.119335,-9.86676 -0.898197,0.79811 -1.768421,1.63034 -2.619869,2.48364 -0.875399,0.87701 -1.720962,1.78657 -2.555289,2.70706 -0.827872,0.91289 -1.6193,1.86081 -2.393805,2.82434 -0.756983,0.94346 -1.476737,1.91907 -2.186332,2.90258 -0.675324,0.94966 -1.312052,1.92874 -1.928874,2.92166 -0.574466,0.95297 -1.124479,1.92224 -1.649196,2.90676 -0.507369,0.95801 -0.973691,1.93939 -1.425657,2.92768 -0.435423,0.96441 -0.829099,1.9488 -1.202551,2.94161 -0.370708,1.00054 -0.693508,2.01973 -1.002768,3.04304 -0.31741,1.05626 -0.5585,2.13534 -0.780799,3.21767 -0.228328,1.12635 -0.400782,2.26405 -0.550591,3.4047 -0.151469,1.16515 -0.258028,2.33604 -0.345395,3.50829 -0.08822,1.19116 -0.126142,2.38549 -0.145467,3.57985 -0.01585,1.18971 0.0067,2.37938 0.04856,3.56822 0.03735,1.16414 0.124922,2.32544 0.218934,3.4857 0.100892,1.14313 0.232676,2.28295 0.376419,3.42084 0.140179,1.12645 0.311319,2.24826 0.500362,3.36656 0.188771,1.1085 0.412917,2.2093 0.658255,3.3051 0.248595,1.1038 0.543352,2.1949 0.851647,3.2814 0.317866,1.1044 0.686572,2.1915 1.068166,3.2727 0.395897,1.1009 0.824446,2.1882 1.276254,3.2646 0.450204,1.0855 0.945241,2.1486 1.459584,3.2013 0.505548,1.0475 1.075148,2.0574 1.664978,3.0535 0.576784,0.9768 1.208898,1.9138 1.873346,2.8254 0.643403,0.8779 1.345919,1.7033 2.092536,2.4834 0.737406,0.7803 1.55179,1.4684 2.391714,2.1194 0.849787,0.6549 1.755131,1.2199 2.675896,1.754 0.947277,0.5458 1.939476,0.9954 2.94674,1.4003 1.04321,0.417 2.118683,0.7326 3.202031,1.0076 1.120145,0.2778 2.261571,0.4331 3.405287,0.5496 1.171252,0.1183 2.346766,0.1276 3.521572,0.091 1.181255,-0.037 2.354987,-0.1934 3.519985,-0.3955 1.174749,-0.2195 2.323463,-0.562 3.455648,-0.9549 1.171091,-0.4058 2.30107,-0.9245 3.408776,-1.4925 1.160265,-0.5863 2.250775,-1.3069 3.32791,-2.0458 1.158029,-0.8046 2.252706,-1.7038 3.329134,-2.6249 4.316684,-3.8687 0.674764,-0.6029 -10.76756,9.5414 -0.192566,0.1707 0.386112,-0.3402 0.577397,-0.5125 0.588205,-0.5299 1.16174,-1.0763 1.733201,-1.6262 1.18302,-1.1494 2.304944,-2.3661 3.405117,-3.6034 1.140253,-1.283 2.226816,-2.6173 3.295661,-3.9669 1.102706,-1.3911 2.146305,-2.8321 3.170359,-4.2884 1.026296,-1.465 1.995265,-2.9733 2.952915,-4.489 0.947804,-1.502 1.847322,-3.0369 2.730702,-4.582 0.85743,-1.5084 1.661078,-3.0495 2.449382,-4.5992 0.768153,-1.5157 1.481079,-3.0614 2.174099,-4.6168 0.685285,-1.5246 1.310226,-3.07798 1.913023,-4.64069 0.601285,-1.56445 1.144958,-3.15234 1.667163,-4.74792 0.526744,-1.61186 1.00215,-3.24174 1.46228,-4.87604 0.453628,-1.63774 0.862873,-3.28874 1.251928,-4.94481 0.378237,-1.63572 0.710119,-3.2828 1.026445,-4.93299 0.315221,-1.62261 0.569673,-3.25731 0.812726,-4.89345 0.235463,-1.60559 0.428561,-3.2179 0.600191,-4.83242 0.169568,-1.57992 0.288457,-3.16496 0.389536,-4.7512 0.100264,-1.55153 0.143486,-3.10621 0.169331,-4.66083 0.02136,-1.53528 -0.0143,-3.07047 -0.07665,-4.60422 -0.0691,-1.50313 -0.180486,-3.00347 -0.325405,-4.5004 -0.146159,-1.45232 -0.330203,-2.89969 -0.540344,-4.34305 -0.201416,-1.39424 -0.446776,-2.78054 -0.703869,-4.16431 -0.2469,-1.31798 -0.52959,-2.6281 -0.825449,-3.93462 -0.288069,-1.24273 -0.59387,-2.48078 -0.905339,-3.71714 -0.294634,-1.15438 -0.599203,-2.30592 -0.907367,-3.45634 -0.278921,-1.0491 -0.555809,-2.09878 -0.839635,-3.14641 -0.217872,-0.79746 -0.430306,-1.59684 -0.619934,-2.4024 -0.133595,-0.54945 -0.247046,-1.10378 -0.328976,-1.66445 -0.06077,-0.39678 -0.08169,-0.79849 -0.126523,-1.19715 -0.492442,-6.02035 7.97741,-13.75361 13.05357,-10.86405 0.3188,0.20649 0.62155,0.43817 0.93004,0.66122 0.33306,0.27186 0.66669,0.54294 0.99869,0.81626 0.41634,0.33389 0.823,0.68091 1.23443,1.02152 0.50663,0.40667 1.00101,0.82994 1.50048,1.24631 0.56997,0.47881 1.13542,0.96355 1.70752,1.43955 0.62521,0.52063 1.25685,1.03255 1.8912,1.54063 0.67908,0.53905 1.35386,1.08433 2.04123,1.61154 0.69837,0.54102 1.39684,1.0816 2.10058,1.61475 0.69224,0.52791 1.39058,1.04695 2.09551,1.55567 0.68201,0.50342 1.37178,0.99475 2.06078,1.48733 0.66941,0.47399 1.34677,0.93508 2.02262,1.39867 0.65347,0.44382 1.32146,0.8625 1.98758,1.28441 0.6534,0.39985 1.30854,0.79672 1.96808,1.18512 0.63947,0.3816 1.29431,0.73213 1.94578,1.08978 0.62634,0.34538 1.27207,0.6481 1.91652,0.95297 0.40786,0.1966 0.20587,0.0953 0.60601,0.30389 l -11.82059,11.42302 0,0 c -0.37307,-0.19026 -0.18376,-0.094 -0.56796,-0.28878 -0.65787,-0.32914 -1.31435,-0.66157 -1.95665,-1.02395 -0.66577,-0.36611 -1.32424,-0.74672 -1.97713,-1.13799 -0.667,-0.40274 -1.33522,-0.80349 -1.99199,-1.2248 -0.67955,-0.43308 -1.35348,-0.87616 -2.01755,-1.33543 -0.68306,-0.46986 -1.36309,-0.94469 -2.03711,-1.42898 -0.69146,-0.49659 -1.37852,-0.99991 -2.06508,-1.50405 -0.70624,-0.52256 -1.40942,-1.0497 -2.10742,-1.58454 -0.70653,-0.53727 -1.40817,-1.08164 -2.11107,-1.62422 -0.69032,-0.53741 -1.37839,-1.07805 -2.06581,-1.6196 -0.645832,-0.51021 -1.288772,-1.02457 -1.92637,-1.54627 -0.577171,-0.47112 -1.149795,-0.94845 -1.730011,-1.41539 -0.504026,-0.40817 -1.008788,-0.81514 -1.521304,-1.21137 -0.416746,-0.33006 -0.834751,-0.65821 -1.258683,-0.97791 -0.304425,-0.23285 -0.605717,-0.47487 -0.934285,-0.66863 -0.110766,-0.0636 -0.414928,-0.30008 -0.482323,-0.0827 -0.0067,0.0389 0.02925,0.3496 0.04104,0.33944 16.223796,-13.97229 15.281012,-8.3012 9.988632,-9.85812 4.532347,-1.02597 3.856166,1.36637 3.816736,1.63767 -0.0474,0.49809 -2.226292,-1.08984 -2.140592,-0.59868 0.14475,0.80568 0.29519,1.61015 0.48707,2.40516 0.25734,1.05907 0.51675,2.11738 0.79132,3.17164 0.3015,1.16322 0.60308,2.32646 0.89365,3.4928 0.31373,1.25098 0.61624,2.50519 0.9053,3.7628 0.30913,1.32912 0.59213,2.6647 0.85087,4.00585 0.26226,1.40518 0.51605,2.81254 0.72286,4.22826 0.22463,1.46877 0.41914,2.94214 0.57637,4.42082 0.15769,1.5251 0.28635,3.05302 0.36726,4.58505 0.0806,1.5621 0.12793,3.12596 0.12813,4.69055 -0.011,1.58032 -0.0434,3.16081 -0.12865,4.73881 -0.0973,1.60714 -0.19322,3.2149 -0.36036,4.81604 -0.16221,1.63686 -0.3473,3.27072 -0.56675,4.90023 -0.2396,1.65621 -0.48194,3.31259 -0.78217,4.95796 -0.30967,1.66955 -0.63235,3.33658 -0.99878,4.99338 -0.37204,1.67874 -0.77735,3.34905 -1.21591,5.00978 -0.44138,1.6545 -0.90804,3.30155 -1.41572,4.93475 -0.51172,1.61604 -1.03319,3.2287 -1.61774,4.81728 -0.58928,1.58916 -1.197582,3.1714 -1.870802,4.72315 -0.68953,1.57601 -1.381952,3.15153 -2.143096,4.69071 -0.7709,1.57964 -1.573752,3.14213 -2.420652,4.67773 -0.863766,1.5741 -1.764057,3.1254 -2.697956,4.654 -0.944944,1.537 -1.908711,3.0613 -2.911825,4.5566 -1.005459,1.4788 -2.028684,2.945 -3.113567,4.3601 -1.044865,1.373 -2.111081,2.7284 -3.229022,4.0357 -1.078372,1.2595 -2.171872,2.5055 -3.324181,3.6901 -4.802251,4.9209 -10.106833,9.2808 -15.285193,13.7334 -1.125627,0.9018 -2.273036,1.775 -3.486576,2.5411 -1.129205,0.7102 -2.287008,1.3703 -3.496336,1.9165 -1.166946,0.5195 -2.353255,0.9918 -3.574636,1.3493 -1.194738,0.3392 -2.40156,0.6369 -3.632454,0.7869 -1.217039,0.15 -2.438973,0.256 -3.665507,0.2453 -1.223165,-0.011 -2.446084,-0.074 -3.660708,-0.2347 -1.199338,-0.165 -2.394305,-0.3733 -3.563581,-0.7066 -1.134974,-0.3246 -2.262512,-0.682 -3.352505,-1.1522 -1.056357,-0.4624 -2.09977,-0.9587 -3.095179,-1.5564 -0.969744,-0.5851 -1.92275,-1.2025 -2.815641,-1.9138 -0.890611,-0.712 -1.754041,-1.4616 -2.542157,-2.3002 -0.789487,-0.8391 -1.535679,-1.7215 -2.221371,-2.6581 -0.69201,-0.9561 -1.354032,-1.936 -1.961387,-2.955 -0.612813,-1.0329 -1.212215,-2.0759 -1.74044,-3.1607 -0.534941,-1.0774 -1.053525,-2.1639 -1.520503,-3.2767 -0.469994,-1.1001 -0.919001,-2.2099 -1.334375,-3.3347 -0.410456,-1.1074 -0.78922,-2.2279 -1.142062,-3.3574 -0.327711,-1.1106 -0.641039,-2.2263 -0.911554,-3.3543 -0.266273,-1.1195 -0.512871,-2.2443 -0.708018,-3.3804 -0.210283,-1.1405 -0.393062,-2.2863 -0.548676,-3.4366 -0.147146,-1.1586 -0.295745,-2.317 -0.409667,-3.4799 -0.11151,-1.1851 -0.203549,-2.3724 -0.264243,-3.5617 -0.04679,-1.21323 -0.0903,-2.42679 -0.0881,-3.64137 0.0057,-1.21953 0.01885,-2.43914 0.08464,-3.65705 0.07149,-1.19574 0.154039,-2.39121 0.28751,-3.58128 0.130096,-1.16902 0.27447,-2.33685 0.477677,-3.49457 0.194752,-1.11979 0.410124,-2.23528 0.686192,-3.3363 0.277213,-1.05692 0.586372,-2.10382 0.933615,-3.1375 0.347892,-1.02928 0.720481,-2.04919 1.143189,-3.04703 0.428863,-1.02293 0.888387,-2.0304 1.374431,-3.02435 0.509148,-1.01887 1.039296,-2.02492 1.611573,-3.00593 0.591698,-1.03614 1.217897,-2.04909 1.883109,-3.03429 0.684968,-1.02099 1.403576,-2.0162 2.145793,-2.99136 0.760038,-0.9915 1.529804,-1.97627 2.351085,-2.91207 0.815359,-0.94606 1.650116,-1.87287 2.507135,-2.77688 0.836022,-0.86904 1.67307,-1.73708 2.55456,-2.55509 4.748552,-4.41398 9.565694,-8.75499 14.562763,-12.8511 0.827272,-0.66083 1.672167,-1.29584 2.544348,-1.88908 0.817521,-0.5506 1.648368,-1.08129 2.510529,-1.55055 0.806634,-0.44222 1.620382,-0.87189 2.461995,-1.23548 0.787859,-0.33796 1.580013,-0.6661 2.395829,-0.92212 0.760128,-0.22494 1.522454,-0.44471 2.299666,-0.59479 0.740941,-0.14267 1.487478,-0.25084 2.239153,-0.30609 0.725592,-0.0613 1.453824,-0.0909 2.181758,-0.0694 0.716715,0.0186 1.432424,0.0668 2.142981,0.17153 0.703724,0.10909 1.40678,0.22971 2.097531,0.41172 0.684637,0.17979 1.363532,0.3859 2.032228,0.62387 0.663047,0.25472 1.325127,0.51666 1.957615,0.84931 0.620273,0.32654 1.232509,0.67039 1.819356,1.061 0.577372,0.38524 1.148579,0.78253 1.685684,1.22925 0.527846,0.43993 1.042314,0.89739 1.532828,1.38369 0.494989,0.49141 0.979613,0.99499 1.433327,1.52962 0.448492,0.53281 0.878104,1.08414 1.259981,1.67299 0.379091,0.58106 0.743155,1.17353 1.064058,1.79316 0.321903,0.62473 0.627134,1.25952 0.884547,1.91746 0.254738,0.65812 0.490105,1.32535 0.668089,2.01186 0.172171,0.67386 0.347689,1.34655 0.467264,2.03384 0.120002,0.6706 0.220272,1.34549 0.295192,2.02343 0.07955,0.67652 0.118918,1.35729 0.148513,2.03813 0.0029,0.66824 0.01011,1.33612 -0.01944,2.00396 -0.01547,0.66767 -0.07459,1.33302 -0.114634,1.99941 -0.04304,0.66643 -0.130996,1.32835 -0.207558,1.99121 -0.08185,0.66204 -0.167996,1.32351 -0.26536,1.98322 -0.09887,0.67085 -0.196719,1.34162 -0.350886,2.00148 -0.141374,0.65789 -0.286143,1.31546 -0.456629,1.96568 -0.172778,0.64102 -0.354025,1.27964 -0.561012,1.90938 -0.208364,0.62843 -0.440564,1.2468 -0.659446,1.8711 -0.223358,0.61244 -0.458558,1.22028 -0.748477,1.80166 -0.261371,0.5956 -0.534695,1.18593 -0.848925,1.75274 -0.321144,0.56624 -0.616144,1.14994 -0.976505,1.69052 -0.362633,0.54285 -0.711302,1.09591 -1.107774,1.61264 -0.391894,0.52321 -0.797862,1.03425 -1.222471,1.52814 -4.015019,4.58185 -9.498674,7.65988 -13.455081,12.17934 -0.499905,0.41764 -1.014792,0.8166 -1.556088,1.1725 -0.553432,0.36046 -1.110856,0.71328 -1.70048,1.00497 -0.607856,0.30224 -1.217329,0.60319 -1.848032,0.84898 -0.664287,0.25131 -1.331094,0.49999 -2.014541,0.68711 -0.709553,0.19209 -1.42561,0.35737 -2.153797,0.44879 -0.727673,0.0919 -1.460648,0.16198 -2.194082,0.11199 -0.688396,-0.037 -1.377113,-0.0937 -2.047292,-0.27657 -0.6276,-0.17087 -1.249921,-0.3682 -1.842841,-0.6484 -0.535277,-0.25099 -1.064023,-0.51994 -1.560501,-0.85017 -0.451657,-0.30501 -0.889663,-0.63293 -1.286982,-1.01488 -0.330871,-0.32497 -0.650602,-0.66254 -0.938849,-1.03094 -0.249561,-0.32131 -0.484836,-0.65556 -0.700904,-1.00313 -0.170025,-0.28743 -0.334024,-0.57964 -0.480131,-0.88151 -0.08724,-0.20183 -0.193457,-0.39586 -0.260299,-0.60645 l 12.740337,-10.57319 z"
       inkscape:connector-curvature="0"
       sodipodi:nodetypes="cccccccccccccccccccccccccccccccccccccccccccccccccccscccccccccccccccccccccccccccccccccccccccccccccccccccccccccccccccccccccccccccccccccccccccccccccccccccccccccccccccccccccccccccccccccccccccccccccccccccccccccccccccccccccccccccccccccccccccccccccccccccccccccccccccccccccccccccccc" />
  </g>
</svg>
