<?xml version="1.0" encoding="UTF-8" standalone="no"?>
<!-- Created with Inkscape (http://www.inkscape.org/) -->

<svg
   xmlns:dc="http://purl.org/dc/elements/1.1/"
   xmlns:cc="http://creativecommons.org/ns#"
   xmlns:rdf="http://www.w3.org/1999/02/22-rdf-syntax-ns#"
   xmlns:svg="http://www.w3.org/2000/svg"
   xmlns="http://www.w3.org/2000/svg"
   xmlns:sodipodi="http://sodipodi.sourceforge.net/DTD/sodipodi-0.dtd"
   xmlns:inkscape="http://www.inkscape.org/namespaces/inkscape"
   width="120"
   height="150"
   id="svg7747"
   version="1.1"
   inkscape:version="0.48.4 r9939"
   sodipodi:docname="notebook.svg">
  <defs
     id="defs7749" />
  <sodipodi:namedview
     id="base"
     pagecolor="#ffffff"
     bordercolor="#666666"
     borderopacity="1.0"
     inkscape:pageopacity="0.0"
     inkscape:pageshadow="2"
     inkscape:zoom="6.86"
     inkscape:cx="59.968689"
     inkscape:cy="65.977934"
     inkscape:document-units="px"
     inkscape:current-layer="layer1"
     showgrid="false"
     inkscape:window-width="1292"
     inkscape:window-height="745"
     inkscape:window-x="-8"
     inkscape:window-y="-8"
     inkscape:window-maximized="1" />
  <metadata
     id="metadata7752">
    <rdf:RDF>
      <cc:Work
         rdf:about="">
        <dc:format>image/svg+xml</dc:format>
        <dc:type
           rdf:resource="http://purl.org/dc/dcmitype/StillImage" />
        <dc:title />
      </cc:Work>
    </rdf:RDF>
  </metadata>
  <g
     inkscape:label="Ebene 1"
     inkscape:groupmode="layer"
     id="layer1"
     transform="translate(0,-902.36218)">
    <path
       style="fill:#ffcc00;fill-opacity:1;fill-rule:nonzero"
       id="path7889"
       d="m 14.724852,961.16232 c 0.320026,0.0111 0.639881,-0.0443 0.961943,-0.0577 0.672494,-0.0309 1.345305,-0.0461 2.018067,-0.0605 0.947827,-0.0723 1.896431,-0.12221 2.844969,-0.17229 1.133672,-0.0344 2.265683,-0.11511 3.398039,-0.19459 1.234892,-0.0849 2.470422,-0.15096 3.705994,-0.21334 1.285242,-0.049 2.56892,-0.1507 3.853119,-0.23551 1.34385,-0.0686 2.685481,-0.19601 4.028205,-0.29625 1.391932,-0.10702 2.784743,-0.18854 4.177653,-0.26605 1.441821,-0.0751 2.88404,-0.13419 4.326278,-0.19141 1.441878,-0.0582 2.884009,-0.10201 4.326193,-0.14231 1.454485,-0.0231 2.907722,-0.11092 4.361361,-0.17782 1.488673,-0.0726 2.977762,-0.1257 4.466869,-0.17742 1.548806,-0.0337 3.096692,-0.10633 4.644736,-0.17879 1.657864,-0.0762 3.316027,-0.1397 4.974268,-0.19774 1.72691,-0.0573 3.454003,-0.1034 5.181125,-0.14583 1.721139,-0.0425 3.44234,-0.0801 5.163552,-0.11636 1.624723,-0.0327 3.249469,-0.0633 4.874233,-0.0918 1.478658,-0.0255 2.957327,-0.05 4.435991,-0.075 1.284393,-0.0222 2.5688,-0.0426 3.853214,-0.0619 1.115269,-0.0167 2.230551,-0.0314 3.345838,-0.045 1.007711,-0.0125 2.01545,-0.0199 3.02318,-0.0294 0.967606,-0.006 1.935204,-0.0125 2.902821,-0.0164 0.97007,-0.004 1.94014,-0.008 2.91023,-0.01 0.96194,-0.004 1.92386,-0.007 2.8858,-0.0111 0.93278,-0.044 1.86557,-0.0881 2.7984,-0.13015 0.93233,-0.0371 1.86474,-0.0715 2.79725,-0.0989 0.90696,-0.0281 1.81395,-0.0543 2.72097,-0.0784 0.87035,-0.0184 1.74069,-0.0379 2.61104,-0.0552 0.82083,-0.0164 1.64168,-0.0301 2.46254,-0.0429 0.51513,-0.0367 0.25999,-0.0167 0.7654,-0.0598 0,0 -6.97603,9.80405 -6.97603,9.80405 l 0,0 c -0.51232,0.0171 -0.2519,0.01 -0.78127,0.0189 -0.81772,0.01 -1.63546,0.022 -2.45317,0.036 -0.86789,0.0146 -1.7358,0.0298 -2.60359,0.0536 -0.90307,0.0208 -1.80614,0.0428 -2.70909,0.0723 -0.93092,0.0328 -1.86187,0.0643 -2.79256,0.10856 -0.93875,0.0403 -1.877464,0.0941 -2.816769,0.0981 -0.96004,4e-5 -1.920076,0.003 -2.880113,0.004 -0.970382,0.004 -1.940767,0.008 -2.911149,0.0125 -0.966814,0.006 -1.933636,0.008 -2.900449,0.0158 -1.003627,0.004 -2.007239,0.01 -3.010864,0.0146 -1.107765,0.004 -2.215528,0.01 -3.32329,0.0163 -1.274447,0.007 -2.548894,0.0144 -3.823336,0.0229 -1.469903,0.01 -2.939803,0.0241 -4.40967,0.0424 -1.618259,0.0201 -3.236513,0.0412 -4.854704,0.0705 -1.71724,0.0302 -3.434457,0.0633 -5.151535,0.10856 -1.72819,0.047 -3.456335,0.0969 -5.184169,0.16531 -1.660675,0.0644 -3.321233,0.13461 -4.981325,0.22429 -1.554556,0.0797 -3.109371,0.1407 -4.664601,0.18868 -1.488811,0.0556 -2.97745,0.11984 -4.465876,0.19287 -1.457813,0.0733 -2.915736,0.14159 -4.374435,0.16987 -1.440185,0.0439 -2.880308,0.0925 -4.320266,0.14936 -1.441628,0.0592 -2.883142,0.12458 -4.324054,0.21208 -1.391231,0.0825 -2.782151,0.17561 -4.172333,0.28776 -1.346978,0.1112 -2.694054,0.21913 -4.042153,0.30088 -1.289046,0.0896 -2.577955,0.1817 -3.868088,0.2363 -1.236292,0.0691 -2.472343,0.14579 -3.707744,0.24137 -1.141507,0.0832 -2.283532,0.14688 -3.42548,0.21699 -0.962908,0.0645 -1.925054,0.15017 -2.888271,0.20455 -0.681807,0.0392 -1.3636855,0.0811 -2.0439671,0.15769 -0.3540399,0.0438 -0.705976,0.0773 -1.0610782,0.0793 0,0 7.1021513,-9.89694 7.1021513,-9.89694 z"
       inkscape:connector-curvature="0" />
    <path
       style="fill:#ffcc00;fill-opacity:1;fill-rule:nonzero"
       id="path7891"
       d="m 112.46326,963.37553 c 12.23277,-11.5581 5.5803,-2.68042 3.39256,0.17857 -0.31766,0.3638 -0.57779,0.7863 -0.86385,1.18215 -0.32358,0.45984 -0.6404,0.92629 -0.96815,1.38194 -0.32072,0.46229 -0.63991,0.92694 -0.97596,1.37414 -0.35245,0.49148 -0.71015,0.97769 -1.0658,1.46595 -0.39003,0.5153 -0.79494,1.01401 -1.20384,1.50862 -0.45045,0.55019 -0.91555,1.0837 -1.36194,1.63833 -0.44339,0.53491 -0.87926,1.07826 -1.31663,1.61993 -0.42987,0.55652 -0.8648,1.10728 -1.29222,1.66644 -0.42244,0.55649 -0.84551,1.11267 -1.26091,1.67645 -0.4116,0.54031 -0.82668,1.07765 -1.22661,1.62998 -0.40187,0.52869 -0.78697,1.07479 -1.19088,1.60132 -0.41446,0.54613 -0.81678,1.1051 -1.24167,1.64012 -0.4323,0.56246 -0.87336,1.11523 -1.31179,1.67095 -0.45134,0.54676 -0.90465,1.09135 -1.360418,1.63298 -0.451713,0.52683 -0.865691,1.09415 -1.286403,1.65427 -0.391017,0.52656 -0.773489,1.06106 -1.154569,1.59757 -0.34753,0.53444 -0.710764,1.05419 -1.067905,1.5797 -0.357491,0.52052 -0.715116,1.04138 -1.07677,1.55801 -0.356122,0.53554 -0.725294,1.05873 -1.0927,1.58369 -0.386547,0.52066 -0.737389,1.07505 -1.102173,1.61632 -2.226099,3.04067 -4.560939,6.84884 -7.928357,7.71384 -0.369205,0.082 -0.66488,-0.057 -0.984292,-0.2583 -0.341953,-0.2148 -0.622993,-0.5326 -0.898886,-0.8472 -0.369847,-0.4358 -0.671905,-0.9393 -0.967592,-1.44452 -0.402019,-0.66873 -0.759677,-1.3718 -1.123553,-2.06941 -0.439387,-0.83676 -0.88094,-1.67202 -1.323785,-2.50628 -0.510471,-0.95805 -0.997735,-1.93266 -1.501707,-2.89538 -0.520414,-1.01439 -1.091264,-1.99131 -1.65133,-2.9757 -0.561858,-0.98286 -1.143527,-1.94977 -1.711794,-2.9275 -0.524156,-0.87481 -1.032501,-1.76236 -1.545417,-2.64623 -0.474051,-0.83106 -0.953949,-1.65741 -1.435384,-2.48257 -0.441906,-0.77392 -0.874283,-1.55524 -1.31241,-2.3321 -0.416745,-0.73431 -0.830979,-1.47081 -1.252228,-2.20161 -0.40023,-0.68125 -0.807999,-1.3565 -1.227542,-2.02158 -0.379376,-0.62616 -0.793126,-1.22121 -1.210081,-1.81286 -0.406201,-0.57433 -0.848346,-1.11106 -1.288095,-1.64959 -0.455064,-0.54976 -0.918532,-1.09025 -1.386756,-1.62461 -0.374469,-0.42153 -2.107511,-1.50247 -2.460069,-1.94976 l 8.382919,-6.31307 0,0 c 0.334967,0.43879 0.707472,0.83169 1.067843,1.24113 0.469839,0.54651 0.936304,1.09707 1.399424,1.65138 0.458781,0.55596 0.917458,1.11318 1.33542,1.71271 0.425401,0.60896 0.853707,1.21603 1.237045,1.86324 0.423834,0.68031 0.83484,1.37152 1.245355,2.06293 0.419611,0.73554 0.831902,1.47692 1.246671,2.21621 0.437901,0.77309 0.867406,1.5527 1.301336,2.32886 0.474731,0.83048 0.95361,1.65767 1.423946,2.4916 0.512585,0.88622 1.015227,1.78029 1.532387,2.66289 0.561619,0.98509 1.140762,1.95607 1.705276,2.93886 0.569401,0.9931 1.147854,1.98006 1.680463,3.00126 0.503628,0.95814 0.995703,1.92466 1.511424,2.87403 0.448265,0.83184 0.903049,1.65875 1.351326,2.49051 0.357741,0.67471 0.716393,1.35023 1.115186,1.9929 0.268707,0.43615 0.54132,0.87482 0.878889,1.24235 0.193511,0.20396 1.702233,-1.32196 1.968403,-1.26819 0.173898,-0.0147 -0.84394,0.65465 -0.705602,0.54187 2.724483,-3.0847 -9.98222,11.13473 -6.594024,7.78543 0.417103,-0.4927 -0.967376,1.0449 -0.608209,0.4942 0.370619,-0.5154 2.761357,-4.00295 3.126575,-4.52321 0.347473,-0.53017 0.705244,-1.05282 1.077702,-1.55911 0.355697,-0.52631 0.710652,-1.05233 1.07501,-1.57048 0.353559,-0.57238 0.741012,-1.117 1.140502,-1.64561 0.408753,-0.58067 0.828472,-1.1521 1.261534,-1.70802 0.440698,-0.55867 0.898808,-1.0981 1.35768,-1.63635 0.45535,-0.53224 0.892295,-1.08591 1.322819,-1.64599 0.413821,-0.54035 0.849437,-1.05792 1.245234,-1.61771 0.394667,-0.53873 0.80938,-1.05722 1.196084,-1.60417 0.415433,-0.53694 0.807908,-1.09863 1.218681,-1.64079 0.436853,-0.54515 0.850383,-1.11609 1.268897,-1.68046 0.427825,-0.55713 0.842564,-1.12812 1.28802,-1.66616 0.41787,-0.56941 0.8651,-1.10704 1.30315,-1.65452 0.45604,-0.53865 0.8909,-1.10211 1.35237,-1.63498 0.40699,-0.48831 0.82246,-0.96826 1.21192,-1.47574 0.37814,-0.45115 0.724,-0.93756 1.07148,-1.42117 0.32077,-0.46133 0.66519,-0.89941 0.99003,-1.35682 0.31057,-0.46697 0.64115,-0.91483 0.95766,-1.37663 0.27291,-0.4091 0.56323,-0.80147 0.8259,-1.22073 2.40392,-3.0925 4.62313,-8.53673 10.14777,-11.66014 z"
       inkscape:connector-curvature="0"
       sodipodi:nodetypes="cccccccccccccccccccccccccccccccccccccccccccccccccccccccccccccccccccccccccccccccccc" />
    <path
       style="fill:#ffcc00;fill-opacity:1;fill-rule:nonzero"
       id="path7893"
       d="m 21.716354,950.51493 c -0.148642,0.30194 -0.25701,0.61872 -0.404322,0.92325 -0.19579,0.45985 -0.412872,0.91521 -0.593841,1.37847 -0.254986,0.53712 -0.501559,1.07573 -0.749096,1.6147 -0.295712,0.60608 -0.572979,1.21742 -0.828443,1.83348 -0.297007,0.69018 -0.560228,1.38798 -0.863342,2.07674 -0.313062,0.70845 -0.593746,1.42452 -0.872996,2.1405 -0.289634,0.74056 -0.506798,1.49273 -0.736249,2.24337 -0.232764,0.75056 -0.429569,1.50612 -0.630504,2.26106 -0.192563,0.79375 -0.424148,1.58259 -0.6109,2.37691 -0.215735,0.76004 -0.381955,1.52575 -0.571736,2.28894 -0.170437,0.77559 -0.373641,1.54754 -0.543951,2.32307 -0.175751,0.77576 -0.348251,1.55173 -0.518218,2.32812 -0.156418,0.77609 -0.316049,1.55131 -0.416501,2.33138 -0.129699,0.76477 -0.228746,1.53117 -0.336684,2.29713 -0.111134,0.79186 -0.202225,1.58436 -0.29813,2.37685 -0.09857,0.80633 -0.173499,1.61368 -0.278372,2.41973 -0.1075,0.79753 -0.209746,1.59541 -0.324072,2.3926 -0.105452,0.7891 -0.202776,1.57841 -0.304013,2.36774 -0.10202,0.78596 -0.170964,1.57299 -0.260704,2.35925 -0.0969,0.78014 -0.159463,1.56124 -0.258868,2.34126 -0.06695,0.51908 -0.03689,0.26242 -0.0906,0.76997 0,0 -10.71979201,9.32705 -10.71979201,9.32705 l 0,0 c 0.0694283,-0.5123 0.0384138,-0.2527 0.0923449,-0.7792 0.0971404,-0.7775 0.21008349,-1.5542 0.26279527,-2.3332 0.0956113,-0.78502 0.16752344,-1.57007 0.27024974,-2.35497 0.072111,-0.79817 0.2073494,-1.59233 0.2819204,-2.39029 0.1068328,-0.79612 0.2250497,-1.59157 0.325155,-2.38796 0.1119456,-0.80267 0.2229276,-1.60512 0.2966791,-2.40945 0.088185,-0.79281 0.1642058,-1.58638 0.2868548,-2.3777 0.082712,-0.77357 0.1960952,-1.5461 0.3051856,-2.31843 0.1479885,-0.78279 0.1861686,-1.57371 0.3862261,-2.35308 0.1321652,-0.78843 0.3342693,-1.56835 0.4883707,-2.35472 0.1867709,-0.77124 0.3368949,-1.54653 0.5403303,-2.31602 0.160907,-0.77499 0.3672056,-1.54497 0.5453928,-2.31816 0.2333228,-0.78453 0.385737,-1.58054 0.6203926,-2.36537 0.1808713,-0.76395 0.3800674,-1.52549 0.5867347,-2.28618 0.2200231,-0.76041 0.42523,-1.52354 0.6899831,-2.27692 0.2319735,-0.73452 0.5267125,-1.45631 0.8030181,-2.18247 0.2886787,-0.68721 0.6173141,-1.36564 0.8634652,-2.06249 0.2606178,-0.61634 0.4973941,-1.23777 0.768795,-1.85164 0.2582948,-0.53143 0.5063583,-1.06364 0.740429,-1.60118 0.2396111,-0.43421 0.3991526,-0.88999 0.5985806,-1.33453 0.110763,-0.29377 0.255204,-0.5854 0.365753,-0.87488 0,0 11.092679,-9.24273 11.092679,-9.24273 z"
       inkscape:connector-curvature="0" />
  </g>
</svg>
