<?xml version="1.0" encoding="UTF-8" standalone="no"?>
<!-- Created with Inkscape (http://www.inkscape.org/) -->

<svg
   xmlns:dc="http://purl.org/dc/elements/1.1/"
   xmlns:cc="http://creativecommons.org/ns#"
   xmlns:rdf="http://www.w3.org/1999/02/22-rdf-syntax-ns#"
   xmlns:svg="http://www.w3.org/2000/svg"
   xmlns="http://www.w3.org/2000/svg"
   xmlns:sodipodi="http://sodipodi.sourceforge.net/DTD/sodipodi-0.dtd"
   xmlns:inkscape="http://www.inkscape.org/namespaces/inkscape"
   width="120"
   height="150"
   id="svg5127"
   version="1.1"
   inkscape:version="0.48.4 r9939"
   sodipodi:docname="Neues Dokument 9">
  <defs
     id="defs5129" />
  <sodipodi:namedview
     id="base"
     pagecolor="#ffffff"
     bordercolor="#666666"
     borderopacity="1.0"
     inkscape:pageopacity="0.0"
     inkscape:pageshadow="2"
     inkscape:zoom="3.72"
     inkscape:cx="59.824209"
     inkscape:cy="75.134409"
     inkscape:document-units="px"
     inkscape:current-layer="layer1"
     showgrid="false"
     inkscape:window-width="1292"
     inkscape:window-height="745"
     inkscape:window-x="-8"
     inkscape:window-y="-8"
     inkscape:window-maximized="1" />
  <metadata
     id="metadata5132">
    <rdf:RDF>
      <cc:Work
         rdf:about="">
        <dc:format>image/svg+xml</dc:format>
        <dc:type
           rdf:resource="http://purl.org/dc/dcmitype/StillImage" />
        <dc:title></dc:title>
      </cc:Work>
    </rdf:RDF>
  </metadata>
  <g
     inkscape:label="Ebene 1"
     inkscape:groupmode="layer"
     id="layer1"
     transform="translate(0,-902.36218)">
    <path
       style="fill:#ffcc00;fill-opacity:1;fill-rule:nonzero"
       id="path7194"
       d="m 57.467908,955.06323 c -0.240276,-0.0627 -0.48585,-0.10595 -0.732401,-0.14293 -0.429396,-0.0427 -0.863536,-0.0708 -1.295536,-0.07 -0.564422,-0.007 -1.128705,0.035 -1.68967,0.0952 -0.640687,0.0426 -1.264366,0.19835 -1.891501,0.32499 -0.706027,0.14866 -1.390274,0.37859 -2.078385,0.59196 -0.735137,0.24253 -1.443299,0.56243 -2.148515,0.88075 -0.76437,0.34254 -1.500203,0.74301 -2.224546,1.16305 -0.752039,0.42718 -1.469478,0.91015 -2.179138,1.4039 -3.262063,2.51319 -8.058682,6.72158 6.386563,-5.44357 -0.695693,0.56149 -1.339044,1.18319 -1.967115,1.81883 -0.637242,0.63029 -1.216975,1.31481 -1.781866,2.01015 -0.560418,0.70049 -1.055239,1.44935 -1.543742,2.2011 -0.490183,0.75565 -0.916507,1.54847 -1.30693,2.35976 -0.396997,0.81669 -0.701573,1.67133 -0.977682,2.53527 -0.268428,0.85327 -0.450228,1.72793 -0.580496,2.61202 -0.128394,0.88086 -0.127764,1.7696 -0.08327,2.65625 0.04787,0.88742 0.188184,1.76407 0.380446,2.63029 0.201049,0.85323 0.534994,1.66302 0.914571,2.44947 0.388284,0.78271 0.854613,1.52118 1.364991,2.22834 0.500784,0.69651 1.079264,1.3296 1.685132,1.93399 0.593766,0.61036 1.268668,1.12684 1.963645,1.61359 0.719719,0.4908 1.480844,0.91505 2.252234,1.31713 0.766665,0.40354 1.561785,0.74497 2.36708,1.06164 0.790071,0.30207 1.597516,0.55951 2.414609,0.77682 0.813681,0.22376 1.647379,0.35606 2.479574,0.48716 0.852705,0.11819 1.70893,0.20365 2.568437,0.24934 0.844323,0.0476 1.690791,0.0474 2.535681,0.0171 0.833765,-0.0465 1.666506,-0.11414 2.496519,-0.2061 0.820069,-0.0754 1.630925,-0.21687 2.441432,-0.35873 0.797567,-0.14384 1.585348,-0.33405 2.368686,-0.54117 0.778942,-0.21245 1.550034,-0.4517 2.316051,-0.70694 0.753112,-0.25461 1.488169,-0.55301 2.213585,-0.87792 0.710524,-0.33048 1.398436,-0.70564 2.068377,-1.1121 0.674019,-0.39863 1.312815,-0.85143 1.944934,-1.31293 3.203508,-2.54769 7.802953,-6.54151 -6.634439,5.62727 0.581297,-0.47482 1.115099,-1.00311 1.639189,-1.53974 0.505689,-0.51833 0.965467,-1.07814 1.405231,-1.65313 0.425978,-0.56995 0.813734,-1.16768 1.192764,-1.76979 0.365528,-0.57557 0.681269,-1.17995 0.979748,-1.79262 0.293746,-0.59489 0.537469,-1.21099 0.759638,-1.83574 0.207463,-0.60327 0.373735,-1.21897 0.503319,-1.84351 0.136971,-0.61783 0.181343,-1.24909 0.202204,-1.87996 0.01191,-0.64709 -0.032,-1.29278 -0.09102,-1.93664 -0.05691,-0.62444 -0.164442,-1.24191 -0.290594,-1.85548 -0.130089,-0.6302 -0.334205,-1.24026 -0.550896,-1.84469 -0.21312,-0.58346 -0.471839,-1.14737 -0.751397,-1.70119 -0.283142,-0.55118 -0.606601,-1.07884 -0.943737,-1.59785 -0.338669,-0.51411 -0.726844,-0.99247 -1.133504,-1.45325 -0.399757,-0.47026 -0.836327,-0.90634 -1.284289,-1.32977 -0.455161,-0.41829 -0.934205,-0.80875 -1.429203,-1.1782 -0.510029,-0.3679 -1.034792,-0.71416 -1.572348,-1.03995 -0.550386,-0.32568 -1.121022,-0.61522 -1.691285,-0.90376 -0.561673,-0.28214 -1.130104,-0.54922 -1.707742,-0.79662 -0.572148,-0.24306 -1.157755,-0.45152 -1.746764,-0.64894 -0.605357,-0.20115 -1.219531,-0.37348 -1.835885,-0.53681 -0.624798,-0.17033 -1.257479,-0.30792 -1.884157,-0.47024 -0.6066,-0.16305 -1.219591,-0.29504 -1.837566,-0.40524 -0.621595,-0.10343 -1.243127,-0.20497 -1.863375,-0.31613 -0.318054,-0.0567 -0.637022,-0.10791 -0.956002,-0.15903 0,0 8.022309,-7.80188 8.022309,-7.80188 l 0,0 c 0.322024,0.0544 0.64396,0.10922 0.96557,0.16598 0.62738,0.10748 1.257428,0.20021 1.880963,0.32946 0.628967,0.13336 1.252153,0.29186 1.875556,0.4491 0.635621,0.15305 1.267802,0.32006 1.899023,0.49044 0.634471,0.17928 1.26638,0.36841 1.888245,0.58837 0.611185,0.218 1.218353,0.44809 1.810567,0.71446 0.589699,0.26696 1.170452,0.55245 1.746203,0.84856 0.59335,0.30654 1.187164,0.61371 1.753309,0.96952 0.560968,0.35318 1.11391,0.72014 1.644339,1.11852 0.521778,0.40178 1.031396,0.82013 1.511779,1.27152 0.469491,0.44909 0.927821,0.91009 1.348103,1.40667 0.439495,0.5015 0.862108,1.01896 1.233009,1.57447 0.364136,0.54802 0.71053,1.10678 1.017911,1.68935 0.310327,0.58904 0.596804,1.18925 0.833845,1.81238 0.243353,0.64309 0.472524,1.29296 0.643068,1.95991 0.157783,0.6449 0.289763,1.29741 0.366269,1.95752 0.08531,0.67568 0.14266,1.35536 0.161211,2.03635 0.02167,0.6824 0.0067,1.36777 -0.08249,2.04543 -0.105575,0.66236 -0.222993,1.32318 -0.422506,1.96487 -0.191336,0.66287 -0.408983,1.31935 -0.687506,1.95094 -0.280356,0.64514 -0.572941,1.28622 -0.919526,1.89873 -0.359381,0.63009 -0.744199,1.2443 -1.14252,1.85027 -0.416191,0.61262 -0.851826,1.21245 -1.337782,1.77178 -0.501616,0.57256 -1.02519,1.12656 -1.578975,1.64864 -3.343017,2.82275 -6.653898,5.96979 -10.289058,8.52907 -0.656843,0.44289 -1.328966,0.86285 -2.024807,1.24156 -0.705137,0.37296 -1.420192,0.72862 -2.162154,1.02263 -0.750817,0.29802 -1.512452,0.56819 -2.284492,0.80565 -0.784685,0.23858 -1.571699,0.4705 -2.370515,0.65735 -0.804157,0.18481 -1.611615,0.35412 -2.427535,0.47875 -0.828085,0.13076 -1.660441,0.23145 -2.495639,0.30406 -0.850485,0.0692 -1.702004,0.13641 -2.555751,0.14305 -0.868058,0 -1.73636,-0.0166 -2.601825,-0.0901 -0.883408,-0.0782 -1.765825,-0.17417 -2.640504,-0.32343 -0.864623,-0.15007 -1.725924,-0.32229 -2.567233,-0.57634 -0.84286,-0.25404 -1.68038,-0.52813 -2.494208,-0.86611 -0.831127,-0.34528 -1.647772,-0.72401 -2.441263,-1.15016 -0.806051,-0.4358 -1.601079,-0.89447 -2.351165,-1.42312 -0.738294,-0.53342 -1.450565,-1.10185 -2.088719,-1.75528 -0.641646,-0.65027 -1.255233,-1.32923 -1.793527,-2.0697 -0.549923,-0.75655 -1.052304,-1.54618 -1.482199,-2.37843 -0.424779,-0.85146 -0.81078,-1.72327 -1.063904,-2.64397 -0.237624,-0.91333 -0.415736,-1.84033 -0.493792,-2.7824 -0.07945,-0.93971 -0.13211,-1.88425 -0.03908,-2.82552 0.08683,-0.93243 0.222797,-1.86023 0.478096,-2.76301 0.236885,-0.90703 0.517481,-1.8053 0.886911,-2.66745 0.361679,-0.84964 0.74911,-1.68848 1.227131,-2.47972 0.462494,-0.7851 0.957424,-1.55168 1.48382,-2.29511 0.532765,-0.73666 1.104824,-1.44397 1.71267,-2.11965 0.620724,-0.6522 1.23818,-1.30839 1.906315,-1.91248 3.401066,-2.86457 6.777627,-6.11878 10.530662,-8.66169 0.732655,-0.47517 1.480414,-0.92657 2.250627,-1.33802 0.755842,-0.39648 1.521012,-0.77454 2.310845,-1.09888 0.736446,-0.30456 1.478686,-0.59565 2.249254,-0.803 0.713783,-0.21086 1.43542,-0.3952 2.168743,-0.52439 0.659037,-0.12497 1.323997,-0.2087 1.993813,-0.24812 0.596833,-0.0319 1.194425,-0.0507 1.791815,-0.018 0.47951,0.0325 0.961221,0.0542 1.432539,0.15636 0.282177,0.0567 0.564332,0.11987 0.839843,0.20196 0,0 -8.185333,7.77767 -8.185333,7.77767 z"
       inkscape:connector-curvature="0" />
    <path
       style="fill:#ffcc00;fill-opacity:1;fill-rule:nonzero"
       id="path7194-3"
       d="m 26.101984,1007.5251 c -0.240277,-0.063 -0.485851,-0.106 -0.732402,-0.143 -0.429395,-0.043 -0.863536,-0.071 -1.295536,-0.07 -0.564422,-0.01 -1.128705,0.035 -1.68967,0.095 -0.640687,0.043 -1.264365,0.1984 -1.8915,0.325 -0.706028,0.1487 -1.390274,0.3786 -2.078386,0.592 -0.735137,0.2425 -1.443298,0.5624 -2.148514,0.8807 -0.764371,0.3426 -1.500204,0.743 -2.224546,1.1631 -0.75204,0.4272 -1.469478,0.9101 -2.179139,1.4039 -3.2620662,2.5132 -8.0586818,6.7216 6.386563,-5.4436 -0.695693,0.5615 -1.339044,1.1832 -1.967115,1.8189 -0.637242,0.6303 -1.216975,1.3148 -1.781866,2.0101 -0.560418,0.7005 -1.055238,1.4494 -1.543742,2.2011 -0.490183,0.7557 -0.916507,1.5485 -1.306931,2.3598 -0.396998,0.8167 -0.70157,1.6713 -0.977682,2.5352 -0.268424,0.8533 -0.450225,1.728 -0.580491,2.6121 -0.1284032,0.8808 -0.1277722,1.7696 -0.0833,2.6562 0.04786,0.8874 0.188182,1.7641 0.380444,2.6303 0.201042,0.8532 0.534996,1.663 0.914573,2.4495 0.388283,0.7827 0.854608,1.5212 1.364987,2.2283 0.500783,0.6966 1.079264,1.3296 1.685131,1.934 0.593767,0.6104 1.268669,1.1268 1.963646,1.6135 0.719719,0.4908 1.480843,0.915 2.252233,1.3172 0.766665,0.4036 1.561786,0.745 2.367079,1.0615 0.790072,0.3021 1.597518,0.5595 2.41461,0.7768 0.813682,0.2239 1.64738,0.3561 2.479575,0.4872 0.852704,0.1182 1.708928,0.2037 2.568437,0.2493 0.844323,0.048 1.69079,0.047 2.53568,0.018 0.833765,-0.045 1.666506,-0.1141 2.496518,-0.2061 0.820071,-0.075 1.630926,-0.2168 2.441434,-0.3586 0.797566,-0.1439 1.585347,-0.3342 2.368686,-0.5413 0.778941,-0.2124 1.550034,-0.4516 2.316051,-0.7067 0.753111,-0.2547 1.488168,-0.5532 2.213584,-0.878 0.710524,-0.3305 1.398436,-0.7057 2.068376,-1.1122 0.67402,-0.3985 1.312817,-0.8514 1.944935,-1.3129 3.203508,-2.5477 7.802953,-6.5415 -6.634438,5.6272 0.581296,-0.4748 1.115099,-1.003 1.639188,-1.5396 0.50569,-0.5185 0.965467,-1.0781 1.405232,-1.6532 0.425978,-0.57 0.813734,-1.1677 1.192762,-1.7697 0.36553,-0.5756 0.68127,-1.18 0.979749,-1.7926 0.293746,-0.5949 0.537468,-1.211 0.759638,-1.8358 0.207462,-0.6033 0.373735,-1.219 0.503319,-1.8435 0.136971,-0.6178 0.181344,-1.2491 0.202204,-1.88 0.0119,-0.647 -0.032,-1.2927 -0.09102,-1.9366 -0.05691,-0.6244 -0.164443,-1.2419 -0.290594,-1.8555 -0.130091,-0.6302 -0.334206,-1.2402 -0.550896,-1.8447 -0.213121,-0.5834 -0.471839,-1.1473 -0.751398,-1.7012 -0.283142,-0.5511 -0.606601,-1.0788 -0.943737,-1.5978 -0.338668,-0.5141 -0.726843,-0.9925 -1.133504,-1.4533 -0.399757,-0.4702 -0.836328,-0.9063 -1.284288,-1.3297 -0.455163,-0.4183 -0.934206,-0.8088 -1.429203,-1.1782 -0.510029,-0.3679 -1.034793,-0.7142 -1.572348,-1.04 -0.550386,-0.3257 -1.121023,-0.6152 -1.691286,-0.9037 -0.561672,-0.2822 -1.130103,-0.5493 -1.707741,-0.7967 -0.572148,-0.243 -1.157756,-0.4515 -1.746764,-0.6489 -0.605357,-0.2012 -1.219531,-0.3735 -1.835886,-0.5368 -0.624798,-0.1703 -1.257479,-0.3079 -1.884157,-0.4703 -0.606599,-0.163 -1.219591,-0.295 -1.837566,-0.4052 -0.621594,-0.1034 -1.243127,-0.205 -1.863375,-0.3161 -0.318055,-0.057 -0.637023,-0.1079 -0.956002,-0.159 0,0 8.022309,-7.80192 8.022309,-7.80192 l 0,0 c 0.322025,0.0544 0.643961,0.10922 0.96557,0.16598 0.627381,0.10748 1.257429,0.2002 1.880963,0.32944 0.628968,0.1334 1.252154,0.2919 1.875556,0.4491 0.635621,0.1531 1.267802,0.3201 1.899024,0.4904 0.634471,0.1793 1.266379,0.3685 1.888245,0.5884 0.611184,0.218 1.218351,0.4481 1.810566,0.7145 0.589699,0.2669 1.170452,0.5524 1.746204,0.8485 0.593349,0.3066 1.187163,0.6138 1.753308,0.9695 0.560967,0.3532 1.11391,0.7202 1.64434,1.1186 0.521777,0.4018 1.031395,0.8201 1.511778,1.2715 0.469492,0.4491 0.927821,0.9101 1.348102,1.4067 0.439496,0.5015 0.862109,1.0189 1.23301,1.5744 0.364137,0.5481 0.71053,1.1068 1.017912,1.6894 0.310327,0.589 0.596803,1.1892 0.833844,1.8124 0.243354,0.6431 0.472524,1.2929 0.643068,1.9599 0.157783,0.6449 0.289764,1.2974 0.36627,1.9575 0.0853,0.6757 0.14266,1.3554 0.161211,2.0364 0.02166,0.6824 0.0067,1.3677 -0.08249,2.0454 -0.105575,0.6623 -0.222993,1.3232 -0.422505,1.9649 -0.191336,0.6628 -0.408983,1.3193 -0.687508,1.9509 -0.280354,0.6451 -0.572939,1.2862 -0.919525,1.8987 -0.359382,0.6301 -0.744199,1.2443 -1.142521,1.8503 -0.416189,0.6126 -0.851824,1.2124 -1.337781,1.7717 -0.501615,0.5726 -1.02519,1.1266 -1.578975,1.6487 -3.343016,2.8227 -6.653898,5.9697 -10.289058,8.529 -0.656843,0.4429 -1.328966,0.8628 -2.024807,1.2415 -0.705137,0.373 -1.420192,0.7287 -2.162153,1.0227 -0.750817,0.298 -1.512452,0.5682 -2.284493,0.8057 -0.784686,0.2385 -1.571698,0.4704 -2.370515,0.6573 -0.804156,0.1848 -1.611615,0.3541 -2.427535,0.4787 -0.828085,0.1308 -1.660442,0.2314 -2.495639,0.304 -0.850484,0.069 -1.702003,0.1365 -2.555752,0.1432 -0.868057,0 -1.736358,-0.017 -2.601823,-0.09 -0.88341,-0.079 -1.765826,-0.1742 -2.640504,-0.3235 -0.864625,-0.15 -1.725924,-0.3222 -2.567233,-0.5762 -0.842861,-0.2541 -1.68038,-0.5282 -2.494209,-0.8661 -0.831127,-0.3454 -1.64777,-0.7241 -2.441263,-1.1503 -0.8060536,-0.4357 -1.6010779,-0.8944 -2.3511636,-1.4231 -0.7382965,-0.5333 -1.4505636,-1.1019 -2.0887241,-1.7552 -0.6416412,-0.6504 -1.255229,-1.3293 -1.7935222,-2.0697 -0.5499214,-0.7565 -1.0523013,-1.5461 -1.4822034,-2.3784 -0.4247732,-0.8515 -0.810775,-1.7233 -1.0638979,-2.644 -0.2376293,-0.9133 -0.4157362,-1.8403 -0.4937932,-2.7824 -0.079449,-0.9397 -0.1321079,-1.8842 -0.039082,-2.8255 0.086836,-0.9324 0.2227996,-1.8602 0.4780961,-2.763 0.2368798,-0.907 0.5174779,-1.8053 0.8869047,-2.6674 0.3616852,-0.8497 0.7491111,-1.6885 1.2271316,-2.4798 0.4624955,-0.7851 0.9574236,-1.5516 1.4838211,-2.2951 0.5327675,-0.7366 1.1048214,-1.4439 1.7126695,-2.1196 0.62073,-0.6522 1.2381831,-1.3084 1.9063142,-1.9125 3.4010692,-2.8646 6.7776292,-6.1188 10.5306642,-8.6617 0.732655,-0.4752 1.480415,-0.9266 2.250628,-1.338 0.755842,-0.3965 1.521012,-0.7746 2.310844,-1.0989 0.736446,-0.3046 1.478687,-0.5956 2.249255,-0.803 0.713783,-0.21084 1.43542,-0.39518 2.168743,-0.52437 0.659036,-0.12498 1.323997,-0.2087 1.993813,-0.24813 0.596832,-0.0319 1.194425,-0.0507 1.791815,-0.0181 0.479509,0.0325 0.96122,0.0542 1.432538,0.15635 0.282177,0.0567 0.564331,0.11987 0.839843,0.20196 0,0 -8.185334,7.77769 -8.185334,7.77769 z"
       inkscape:connector-curvature="0" />
    <path
       style="fill:#ffcc00;fill-opacity:1;fill-rule:nonzero"
       id="path7194-5"
       d="m 89.202899,1007.9572 c -0.240276,-0.063 -0.48585,-0.1059 -0.732401,-0.1429 -0.429396,-0.043 -0.863537,-0.071 -1.295537,-0.07 -0.564423,-0.01 -1.128704,0.035 -1.689669,0.095 -0.640687,0.043 -1.264367,0.1984 -1.891501,0.325 -0.706028,0.1486 -1.390275,0.3786 -2.078385,0.5919 -0.735138,0.2426 -1.4433,0.5625 -2.148516,0.8808 -0.764369,0.3425 -1.500202,0.743 -2.224546,1.163 -0.752038,0.4272 -1.469478,0.9102 -2.179137,1.4039 -3.262062,2.5132 -8.05868,6.7216 6.386563,-5.4435 -0.695694,0.5615 -1.339044,1.1832 -1.967116,1.8188 -0.637241,0.6303 -1.216976,1.3148 -1.781865,2.0102 -0.560418,0.7004 -1.05524,1.4493 -1.543744,2.2011 -0.490182,0.7556 -0.916505,1.5484 -1.306927,2.3597 -0.396997,0.8167 -0.701573,1.6713 -0.977682,2.5353 -0.268429,0.8532 -0.450228,1.7279 -0.580496,2.612 -0.128396,0.8809 -0.127765,1.7696 -0.08327,2.6563 0.04787,0.8874 0.188184,1.764 0.380446,2.6302 0.201049,0.8532 0.534994,1.6631 0.914571,2.4495 0.388283,0.7827 0.854612,1.5212 1.36499,2.2284 0.500783,0.6965 1.079264,1.3295 1.685132,1.9339 0.593766,0.6104 1.268668,1.1268 1.963645,1.6136 0.719719,0.4908 1.480843,0.9151 2.252233,1.3172 0.766666,0.4035 1.561786,0.7447 2.367079,1.0615 0.790073,0.3021 1.597518,0.5595 2.414611,0.7768 0.813681,0.2237 1.647379,0.356 2.479574,0.4872 0.852704,0.1181 1.708929,0.2036 2.568436,0.2493 0.844324,0.048 1.690792,0.047 2.535679,0.018 0.833765,-0.047 1.66651,-0.1142 2.496522,-0.2061 0.820066,-0.075 1.630921,-0.2169 2.441432,-0.3588 0.797563,-0.1439 1.58534,-0.334 2.36868,-0.5411 0.77893,-0.2125 1.55003,-0.4517 2.31604,-0.7069 0.75312,-0.2547 1.48817,-0.553 2.21359,-0.878 0.71053,-0.3304 1.39843,-0.7056 2.06838,-1.112 0.67402,-0.3986 1.31281,-0.8514 1.94493,-1.313 3.20351,-2.5475 7.80295,-6.5414 -6.63444,5.6272 0.5813,-0.4748 1.11509,-1.0031 1.6392,-1.5397 0.50568,-0.5183 0.96546,-1.078 1.40523,-1.653 0.42597,-0.5699 0.81372,-1.1677 1.19275,-1.7698 0.36554,-0.5756 0.68127,-1.1799 0.97975,-1.7926 0.29375,-0.5949 0.53747,-1.211 0.75964,-1.8358 0.20746,-0.6033 0.37375,-1.2189 0.50332,-1.8435 0.13697,-0.6178 0.18134,-1.2491 0.2022,-1.8799 0.0119,-0.6471 -0.032,-1.2928 -0.091,-1.9367 -0.0569,-0.6244 -0.16444,-1.2419 -0.29059,-1.8554 -0.1301,-0.6302 -0.33421,-1.2403 -0.5509,-1.8447 -0.21312,-0.5835 -0.47184,-1.1474 -0.7514,-1.7012 -0.28314,-0.5512 -0.60659,-1.0789 -0.94373,-1.5979 -0.33867,-0.5141 -0.72685,-0.9924 -1.1335,-1.4532 -0.39976,-0.4703 -0.83633,-0.9064 -1.28429,-1.3298 -0.45517,-0.4183 -0.93421,-0.8087 -1.42921,-1.1782 -0.51003,-0.3679 -1.03479,-0.7141 -1.57235,-1.0399 -0.55037,-0.3257 -1.12101,-0.6153 -1.69128,-0.9038 -0.561668,-0.2821 -1.130094,-0.5492 -1.707729,-0.7966 -0.572149,-0.2431 -1.157753,-0.4515 -1.746766,-0.649 -0.605358,-0.2011 -1.219535,-0.3734 -1.835888,-0.5368 -0.624799,-0.1703 -1.257477,-0.3079 -1.884158,-0.4702 -0.606596,-0.1631 -1.219588,-0.295 -1.837563,-0.4052 -0.621594,-0.1035 -1.243127,-0.205 -1.863375,-0.3162 -0.318053,-0.057 -0.637023,-0.1079 -0.956002,-0.159 0,0 8.022308,-7.80188 8.022308,-7.80188 l 0,0 c 0.322028,0.0544 0.643957,0.10918 0.965573,0.16598 0.627376,0.1075 1.257428,0.2002 1.880963,0.3294 0.62896,0.1334 1.252157,0.2919 1.875547,0.4492 0.63561,0.153 1.2678,0.32 1.89903,0.4904 0.63446,0.1793 1.26637,0.3684 1.88823,0.5884 0.61119,0.218 1.21835,0.4481 1.81057,0.7144 0.5897,0.267 1.17046,0.5525 1.74621,0.8486 0.59335,0.3065 1.18715,0.6137 1.7533,0.9695 0.56097,0.3532 1.11392,0.7201 1.64434,1.1185 0.52177,0.4018 1.03139,0.8202 1.51179,1.2715 0.46948,0.4491 0.92781,0.9101 1.34809,1.4067 0.4395,0.5015 0.86212,1.019 1.233,1.5745 0.36415,0.548 0.71055,1.1068 1.01793,1.6893 0.31032,0.5891 0.5968,1.1893 0.83384,1.8124 0.24336,0.6431 0.47253,1.293 0.64306,1.9599 0.15779,0.6449 0.28977,1.2974 0.36628,1.9576 0.0854,0.6756 0.14266,1.3553 0.16122,2.0363 0.0217,0.6824 0.007,1.3678 -0.0824,2.0454 -0.10558,0.6624 -0.223,1.3232 -0.42252,1.9649 -0.19133,0.6629 -0.40898,1.3193 -0.6875,1.9509 -0.28036,0.6451 -0.57294,1.2863 -0.91953,1.8988 -0.35938,0.6301 -0.74419,1.2442 -1.14253,1.8503 -0.41618,0.6125 -0.85181,1.2124 -1.33777,1.7718 -0.50161,0.5724 -1.02519,1.1265 -1.57897,1.6486 -3.34302,2.8227 -6.65391,5.9696 -10.28906,8.5289 -0.65684,0.4428 -1.32896,0.8628 -2.0248,1.2416 -0.705137,0.373 -1.420193,0.7285 -2.16215,1.0226 -0.750815,0.2981 -1.512449,0.5681 -2.28449,0.8056 -0.784691,0.2386 -1.571705,0.4705 -2.370516,0.6574 -0.804159,0.1848 -1.611619,0.3541 -2.427539,0.4787 -0.828084,0.1308 -1.660441,0.2315 -2.495639,0.3041 -0.850484,0.069 -1.702003,0.1364 -2.555751,0.143 -0.868058,0 -1.736359,-0.017 -2.601825,-0.09 -0.883408,-0.079 -1.765825,-0.1741 -2.640503,-0.3234 -0.864624,-0.15 -1.725924,-0.3223 -2.567233,-0.5763 -0.84286,-0.2541 -1.68038,-0.5281 -2.494209,-0.8661 -0.831126,-0.3452 -1.64777,-0.724 -2.441261,-1.1502 -0.806051,-0.4357 -1.601079,-0.8944 -2.351165,-1.4231 -0.738294,-0.5334 -1.450565,-1.1018 -2.088719,-1.7553 -0.641644,-0.6502 -1.255231,-1.3291 -1.793524,-2.0696 -0.549922,-0.7566 -1.052302,-1.5463 -1.482204,-2.3784 -0.424774,-0.8514 -0.810775,-1.7233 -1.063899,-2.6439 -0.237628,-0.9134 -0.415736,-1.8403 -0.493792,-2.7824 -0.07945,-0.9397 -0.132108,-1.8843 -0.03908,-2.8256 0.08684,-0.9324 0.222789,-1.8602 0.478097,-2.7629 0.23688,-0.9071 0.517478,-1.8053 0.886904,-2.6675 0.361685,-0.8496 0.749112,-1.6885 1.227133,-2.4797 0.462495,-0.7851 0.957423,-1.5517 1.48382,-2.2951 0.532765,-0.7367 1.104825,-1.444 1.71267,-2.1197 0.620724,-0.6522 1.23818,-1.3084 1.906316,-1.9125 3.401065,-2.8645 6.777626,-6.1187 10.53066,-8.6617 0.732655,-0.4751 1.480415,-0.9265 2.250628,-1.338 0.755842,-0.3964 1.521013,-0.7745 2.310844,-1.0988 0.736447,-0.3046 1.478687,-0.5957 2.249255,-0.803 0.713783,-0.2109 1.43542,-0.3952 2.168743,-0.5244 0.659036,-0.12501 1.323997,-0.20874 1.993815,-0.24815 0.596833,-0.0319 1.19442,-0.0507 1.791811,-0.0181 0.479509,0.0325 0.961222,0.0542 1.432539,0.15636 0.282174,0.0567 0.564329,0.11989 0.83984,0.20199 0,0 -8.185329,7.7776 -8.185329,7.7776 z"
       inkscape:connector-curvature="0" />
  </g>
</svg>
