<?xml version="1.0" encoding="UTF-8" standalone="no"?>
<!-- Created with Inkscape (http://www.inkscape.org/) -->

<svg
   xmlns:dc="http://purl.org/dc/elements/1.1/"
   xmlns:cc="http://creativecommons.org/ns#"
   xmlns:rdf="http://www.w3.org/1999/02/22-rdf-syntax-ns#"
   xmlns:svg="http://www.w3.org/2000/svg"
   xmlns="http://www.w3.org/2000/svg"
   xmlns:sodipodi="http://sodipodi.sourceforge.net/DTD/sodipodi-0.dtd"
   xmlns:inkscape="http://www.inkscape.org/namespaces/inkscape"
   width="120"
   height="150"
   id="svg7747"
   version="1.1"
   inkscape:version="0.48.4 r9939"
   sodipodi:docname="project.svg">
  <defs
     id="defs7749" />
  <sodipodi:namedview
     id="base"
     pagecolor="#ffffff"
     bordercolor="#666666"
     borderopacity="1.0"
     inkscape:pageopacity="0.0"
     inkscape:pageshadow="2"
     inkscape:zoom="1.2339013"
     inkscape:cx="62.936985"
     inkscape:cy="67.4906"
     inkscape:document-units="px"
     inkscape:current-layer="layer1"
     showgrid="false"
     inkscape:window-width="1292"
     inkscape:window-height="745"
     inkscape:window-x="-8"
     inkscape:window-y="-8"
     inkscape:window-maximized="1" />
  <metadata
     id="metadata7752">
    <rdf:RDF>
      <cc:Work
         rdf:about="">
        <dc:format>image/svg+xml</dc:format>
        <dc:type
           rdf:resource="http://purl.org/dc/dcmitype/StillImage" />
        <dc:title />
      </cc:Work>
    </rdf:RDF>
  </metadata>
  <g
     inkscape:label="Ebene 1"
     inkscape:groupmode="layer"
     id="layer1"
     transform="translate(0,-902.36218)">
    <path
       style="fill:#ffcc00;fill-opacity:1;fill-rule:nonzero"
       id="path2999"
       d="m 46.294257,947.61162 c -0.333392,0.0137 -0.64278,0.1315 -0.97674,0.17508 -0.394189,0.1619 -0.80334,0.24663 -1.19619,0.42026 -0.535025,0.13906 -1.039414,0.39463 -1.560043,0.59341 -0.609769,0.23117 -1.213698,0.49968 -1.806331,0.79227 -0.706661,0.31791 -1.401816,0.67885 -2.082708,1.07194 -0.799541,0.41842 -1.583212,0.88053 -2.349329,1.38286 -0.835076,0.51333 -1.650333,1.07581 -2.450458,1.66603 -0.854367,0.64817 -1.695976,1.32419 -2.521779,2.02506 -0.886683,0.74165 -1.732191,1.55236 -2.582054,2.35452 -0.885806,0.87234 -1.788177,1.71911 -2.661567,2.61016 -9.273261,9.38272 20.374783,-20.88465 13.864803,-14.18402 -0.931244,0.9539 -1.829694,1.95273 -2.719281,2.96337 -0.889893,1.02398 -1.737432,2.10019 -2.590109,3.16949 -0.855837,1.06361 -1.668367,2.17619 -2.470781,3.2992 -0.811943,1.13979 -1.574997,2.32973 -2.323991,3.53126 -0.754578,1.21095 -1.438214,2.48329 -2.120157,3.75548 -0.686794,1.27945 -1.317206,2.60128 -1.924891,3.93813 -0.600222,1.33339 -1.153572,2.69694 -1.674996,4.07829 -0.509108,1.36687 -0.962752,2.76264 -1.400201,4.16534 -0.439152,1.39328 -0.804749,2.81935 -1.145174,4.25238 -0.333781,1.4038 -0.60648,2.82652 -0.866549,4.25267 -0.247026,1.39612 -0.414392,2.80938 -0.556516,4.22609 -0.135417,1.37999 -0.154291,2.77028 -0.156989,4.15828 0.0011,1.32989 0.0929,2.65665 0.225242,3.97576 0.132538,1.27967 0.343787,2.54209 0.607644,3.79027 0.26237,1.2373 0.635333,2.4316 1.040167,3.6083 0.419937,1.1858 0.895797,2.3395 1.407659,3.4697 0.511371,1.1185 1.098282,2.1794 1.72316,3.2074 0.625288,1.0359 1.316119,2.0085 2.049666,2.9321 0.750704,0.9273 1.569385,1.7656 2.405872,2.5745 0.852642,0.8184 1.753155,1.5573 2.667668,2.2681 0.924186,0.7217 1.887506,1.3597 2.871785,1.9496 0.994496,0.5954 2.013126,1.1246 3.049113,1.6024 1.054604,0.484 2.133214,0.8902 3.22399,1.2341 1.11094,0.3689 2.239407,0.6412 3.369445,0.9054 1.153238,0.2336 2.314379,0.4119 3.479183,0.533 1.192627,0.1534 2.391151,0.1972 3.589623,0.1919 1.221226,0 2.442203,-0.064 3.659448,-0.1812 1.218718,-0.1502 2.436819,-0.3157 3.649632,-0.5258 1.237072,-0.2073 2.470915,-0.4509 3.694953,-0.7525 1.23872,-0.2967 2.474802,-0.6154 3.698749,-0.9928 1.238587,-0.3673 2.469547,-0.7789 3.68203,-1.2588 1.231455,-0.4641 2.45364,-0.9636 3.667836,-1.4908 1.216003,-0.5551 2.41983,-1.1486 3.609305,-1.7832 1.243753,-0.669 2.459462,-1.4111 3.665918,-2.1737 1.228744,-0.7939 2.443213,-1.6182 3.630033,-2.502 1.210615,-0.8488 2.387941,-1.7667 3.542429,-2.7238 1.174088,-0.943 2.270874,-2.0153 3.393151,-3.0442 0.181783,-0.1747 0.365056,-0.3471 0.545361,-0.5241 0.02467,-0.024 1.041584,-1.044 1.065355,-1.0683 0.175735,-0.18 0.698681,-0.7262 0.52265,-0.5465 -18.795721,19.1772 -21.237017,21.6544 -15.460105,15.7899 1.012915,-1.0666 2.018256,-2.1423 2.974531,-3.2842 0.951209,-1.0884 1.849773,-2.24 2.733233,-3.4091 0.877167,-1.1545 1.695665,-2.3711 2.487336,-3.613 0.782797,-1.2552 1.533469,-2.5386 2.255323,-3.8466 0.720206,-1.3069 1.367032,-2.6697 2.023325,-4.0245 0.636562,-1.3783 1.233858,-2.78339 1.81423,-4.19778 0.583834,-1.4058 1.100484,-2.84864 1.584656,-4.30869 0.476355,-1.46582 0.921935,-2.94664 1.327518,-4.44369 0.398186,-1.48219 0.733134,-2.98701 1.047789,-4.4981 0.302484,-1.46312 0.55552,-2.941 0.782494,-4.42402 0.218994,-1.44413 0.390727,-2.89819 0.530308,-4.35669 0.140344,-1.4127 0.199402,-2.83303 0.224667,-4.25475 0.01558,-1.32599 -0.04101,-2.65059 -0.153802,-3.96899 -0.120551,-1.26036 -0.331538,-2.50479 -0.583316,-3.73504 -0.244782,-1.18943 -0.567894,-2.34957 -0.932141,-3.49159 -0.37439,-1.14922 -0.831851,-2.25324 -1.325752,-3.33204 -0.509891,-1.06653 -1.070542,-2.09573 -1.664167,-3.09548 -0.580154,-0.96823 -1.236047,-1.86223 -1.924615,-2.71673 -0.668559,-0.826 -1.398445,-1.57119 -2.147305,-2.28563 -0.76065,-0.7273 -1.570828,-1.36687 -2.405829,-1.95829 -0.84532,-0.60446 -1.731438,-1.11289 -2.625336,-1.59957 -0.898166,-0.49996 -1.82679,-0.9059 -2.760062,-1.29541 -0.93051,-0.37308 -1.874981,-0.70115 -2.829722,-0.96904 -0.964999,-0.28331 -1.938241,-0.51056 -2.9178,-0.70274 -1.020361,-0.20681 -2.048968,-0.35725 -3.080498,-0.4503 -1.044962,-0.12429 -2.093575,-0.0983 -3.141266,-0.0739 -1.073498,0.0448 -2.14234,0.17187 -3.207132,0.33985 -1.1147,0.13546 -2.218664,0.36372 -3.323938,0.58063 -1.150655,0.19753 -2.295361,0.4381 -3.442736,0.661 -1.151146,0.26448 -2.303088,0.51874 -3.452283,0.79517 -1.15637,0.25353 -2.30266,0.56627 -3.456119,0.83862 -1.151196,0.26499 -2.292487,0.58869 -3.434021,0.90865 -1.128303,0.3381 -2.266277,0.63529 -3.389473,0.99854 -0.927246,0.27879 -1.850047,0.57872 -2.785314,0.81527 0,0 15.108119,-19.25331 15.108119,-19.25331 l 0,0 c 0.916775,-0.28436 1.836056,-0.55628 2.754665,-0.83166 1.141142,-0.31504 2.275114,-0.66749 3.420456,-0.96014 1.1535,-0.3075 2.312302,-0.58426 3.470742,-0.86241 1.154166,-0.2877 2.31003,-0.56264 3.468056,-0.82633 1.163105,-0.26381 2.329189,-0.51187 3.497461,-0.73905 1.15225,-0.22914 2.307441,-0.43433 3.460846,-0.65469 1.131366,-0.20144 2.267384,-0.35774 3.405399,-0.49214 1.120139,-0.10594 2.24238,-0.18624 3.366626,-0.15605 1.104245,0.0194 2.206792,0.10641 3.303912,0.2625 1.070609,0.16464 2.140139,0.33862 3.200038,0.58909 1.020175,0.2407 2.034404,0.52101 3.038892,0.84551 0.997163,0.34591 1.992921,0.70019 2.963693,1.1465 0.980599,0.44381 1.948721,0.9275 2.895004,1.47166 0.95003,0.55352 1.88481,1.14624 2.78432,1.81467 0.89809,0.68021 1.77002,1.4109 2.59647,2.21581 0.81331,0.80022 1.60662,1.6322 2.33221,2.55098 0.74759,0.95693 1.47346,1.94055 2.11554,3.00715 0.64519,1.07681 1.25281,2.18616 1.81597,3.32954 0.55372,1.1684 1.07167,2.36239 1.50813,3.60347 0.42213,1.22307 0.81278,2.46379 1.09247,3.74804 0.31435,1.3242 0.56549,2.6679 0.75418,4.02741 0.17788,1.41196 0.2915,2.83154 0.31151,4.26097 0.0203,1.49481 0.001,2.99038 -0.10343,4.48076 -0.11277,1.50787 -0.24328,3.01437 -0.44668,4.50883 -0.20339,1.53278 -0.43479,3.05905 -0.70681,4.57629 -0.2982,1.55398 -0.59973,3.10793 -0.97505,4.63756 -0.3709,1.54869 -0.77631,3.08332 -1.24373,4.59347 -0.46012,1.51247 -0.92311,3.02589 -1.48958,4.48529 -0.55448,1.45645 -1.13962,2.89379 -1.74693,4.31859 -0.60082,1.42284 -1.27686,2.79674 -1.94245,4.17566 -0.68755,1.36101 -1.39773,2.70607 -2.17759,3.99217 -0.75622,1.30747 -1.5376,2.59419 -2.38733,3.81456 -0.85634,1.2209 -1.72551,2.4314 -2.655691,3.5703 -0.963898,1.1496 -1.883732,2.3568 -2.920157,3.4133 -6.287729,7.0812 -12.898088,13.7591 -19.742209,20.0295 -1.134862,1.0304 -2.303257,2.0048 -3.499293,2.9271 -1.195053,0.9064 -2.40143,1.7893 -3.625454,2.6366 -1.229434,0.8288 -2.467172,1.6406 -3.731139,2.389 -1.245708,0.7322 -2.501806,1.4394 -3.786801,2.0644 -1.227807,0.5946 -2.462095,1.1718 -3.718937,1.6696 -1.238659,0.4947 -2.479644,0.981 -3.733263,1.417 -1.254339,0.4131 -2.510924,0.8157 -3.781215,1.1503 -1.255826,0.323 -2.511563,0.6473 -3.777902,0.9043 -1.257777,0.2439 -2.516172,0.4839 -3.782127,0.6574 -1.249324,0.1665 -2.49898,0.3407 -3.755656,0.4008 -1.259194,0.056 -2.519295,0.091 -3.779149,0.037 -1.245597,-0.064 -2.488736,-0.1683 -3.726878,-0.3514 -1.213489,-0.1881 -2.426881,-0.3871 -3.623006,-0.7053 -1.172681,-0.3011 -2.338613,-0.6406 -3.489227,-1.0503 -1.140447,-0.4251 -2.274876,-0.8763 -3.379234,-1.4276 -1.081167,-0.5447 -2.147288,-1.1342 -3.188506,-1.7848 -1.034873,-0.6627 -2.047518,-1.3759 -3.026218,-2.1559 -0.965613,-0.7764 -1.915938,-1.5823 -2.816037,-2.4693 -0.899241,-0.8919 -1.778675,-1.8156 -2.588341,-2.8287 -0.7943786,-1.0091 -1.5447158,-2.0679 -2.2313693,-3.1893 -0.6831041,-1.1158 -1.3294488,-2.2643 -1.8996351,-3.4719 -0.5607722,-1.1995 -1.082106,-2.4238 -1.5467986,-3.6834 -0.465832,-1.2708 -0.9009173,-2.5599 -1.2269401,-3.8958 -0.3250642,-1.3336 -0.606912,-2.6835 -0.7705931,-4.0622 -0.1935933,-1.4091 -0.3254093,-2.8285 -0.3848343,-4.2557 -0.041834,-1.4688 -0.04285,-2.9402 0.020284,-4.4082 0.087864,-1.4866 0.2250765,-2.9692 0.4371528,-4.43774 0.2065002,-1.48489 0.4713392,-2.95747 0.7791595,-4.41606 0.3134042,-1.49211 0.6571782,-2.9736 1.0452372,-4.43979 0.4155008,-1.44497 0.8468719,-2.88346 1.3247883,-4.29987 0.4882134,-1.43929 1.007657,-2.86209 1.5874589,-4.25072 0.5784038,-1.38935 1.1776166,-2.76641 1.8366162,-4.10213 0.6551218,-1.31937 1.3377698,-2.61879 2.0405778,-3.9012 0.713982,-1.25856 1.463812,-2.48502 2.239571,-3.68817 0.774596,-1.16969 1.568641,-2.32003 2.397635,-3.43333 0.835518,-1.10339 1.690274,-2.18427 2.546849,-3.26319 0.85572,-1.06101 1.734204,-2.0958 2.645917,-3.08545 6.227703,-6.79097 12.704579,-13.23998 19.216419,-19.62216 0.90315,-0.85768 1.796747,-1.73112 2.7199,-2.55694 0.879454,-0.78728 1.772225,-1.55147 2.695973,-2.26042 0.869049,-0.66338 1.731461,-1.33995 2.642147,-1.91812 0.841641,-0.54514 1.688423,-1.07702 2.550078,-1.57392 0.811496,-0.44867 1.627327,-0.88452 2.449616,-1.3031 0.727259,-0.34363 1.454754,-0.68384 2.193182,-0.99043 0.630378,-0.24804 1.258621,-0.50194 1.895434,-0.72362 0.546263,-0.20411 1.105129,-0.34088 1.657147,-0.51826 0.456555,-0.0916 0.910098,-0.22699 1.372758,-0.25452 0.333152,-0.079 0.662816,-0.0971 0.994246,-0.171 0,0 -15.354298,19.23792 -15.354298,19.23792 z"
       inkscape:connector-curvature="0" />
    <path
       style="fill:#ffcc00;fill-opacity:1;fill-rule:nonzero"
       id="path3003"
       d="m 54.524454,72.648975 c -0.103897,0.05965 -0.202898,0.121536 -0.297998,0.19738 -0.134285,0.11176 -0.281243,0.204918 -0.419301,0.312551 -0.163165,0.166249 -0.358014,0.2943 -0.529345,0.450854 -2.024155,1.815633 -0.225699,0.200548 5.85833,-4.912749 0.03518,-0.02957 -0.07263,0.05634 -0.108155,0.08549 -0.11201,0.0919 -0.220301,0.186862 -0.325131,0.286803 -0.235093,0.204751 -0.453864,0.426665 -0.675447,0.645622 -0.251293,0.251046 -0.488069,0.51636 -0.718554,0.786508 -0.251061,0.291354 -0.493797,0.589405 -0.732494,0.890928 -0.252121,0.32517 -0.492283,0.659263 -0.721922,1.000648 -0.244434,0.352963 -0.469725,0.71841 -0.694288,1.084155 -0.231464,0.372149 -0.436344,0.759438 -0.641251,1.146502 -0.210576,0.394469 -0.406215,0.796555 -0.590762,1.203775 -0.188371,0.400388 -0.358449,0.808905 -0.521921,1.219965 -0.16794,0.411233 -0.305808,0.833346 -0.437878,1.257145 -0.130287,0.415296 -0.238623,0.836917 -0.335208,1.261169 -0.0891,0.41261 -0.159636,0.828805 -0.215972,1.24706 -0.05762,0.397167 -0.0769,0.798196 -0.08972,1.198854 -0.0085,0.387579 8.02e-4,0.775255 0.02779,1.161925 0.0288,0.37913 0.08614,0.754599 0.163555,1.126589 0.07618,0.357228 0.191536,0.703615 0.32502,1.043007 0.130514,0.331497 0.297408,0.646081 0.479573,0.951592 0.176346,0.293524 0.384962,0.564561 0.610178,0.821741 0.213287,0.236406 0.452877,0.444227 0.714798,0.624417 0.251947,0.17563 0.533519,0.300082 0.814619,0.420445 0.285582,0.109909 0.582601,0.187076 0.882497,0.246022 0.315019,0.05251 0.632965,0.07522 0.952031,0.07236 0.33598,0.01406 0.668012,-0.04017 1.000108,-0.08079 0.340684,-0.05633 0.679079,-0.130428 1.011117,-0.225359 0.346742,-0.08984 0.678805,-0.221979 1.014753,-0.343928 0.353285,-0.127069 0.686002,-0.30179 1.027126,-0.456824 0.353337,-0.172056 0.69515,-0.366999 1.028674,-0.574593 0.353029,-0.212945 0.688498,-0.452695 1.016211,-0.702375 2.216341,-1.813075 5.200945,-4.357615 -5.060542,4.251122 0.339714,-0.274993 0.662532,-0.569522 0.980608,-0.868968 0.320559,-0.305856 0.626957,-0.626169 0.924214,-0.954599 0.296284,-0.336061 0.58141,-0.681427 0.852083,-1.038401 0.276358,-0.358276 0.537113,-0.727995 0.784606,-1.106681 0.253716,-0.380166 0.491577,-0.770355 0.720249,-1.165978 0.226707,-0.403739 0.444196,-0.812663 0.654697,-1.225073 0.21041,-0.413308 0.401437,-0.835949 0.586385,-1.261122 0.178498,-0.419328 0.335535,-0.847255 0.487281,-1.276837 0.154724,-0.425763 0.282895,-0.859898 0.396767,-1.298117 0.110313,-0.423581 0.18897,-0.853482 0.240741,-1.287848 0.04893,-0.422714 0.04628,-0.848556 0.03451,-1.273167 -0.0077,-0.408148 -0.05238,-0.813948 -0.106892,-1.218088 -0.0561,-0.384449 -0.143014,-0.763592 -0.245243,-1.13815 -0.10107,-0.354226 -0.228425,-0.699692 -0.37106,-1.039033 -0.137591,-0.326145 -0.311157,-0.634541 -0.499996,-0.933279 -0.176954,-0.280455 -0.384394,-0.539039 -0.603057,-0.787633 -0.214289,-0.243361 -0.456714,-0.459073 -0.713376,-0.656404 -0.2514,-0.194706 -0.524156,-0.356841 -0.80435,-0.505749 -0.267932,-0.137139 -0.54568,-0.252165 -0.834746,-0.335769 -0.285899,-0.0837 -0.57838,-0.144293 -0.873571,-0.183553 -0.292243,-0.03528 -0.58602,-0.04033 -0.879877,-0.04483 -0.30469,0.0061 -0.606629,0.05118 -0.908622,0.08792 -0.312088,0.04407 -0.619013,0.113864 -0.92705,0.179037 -0.308186,0.07725 -0.61476,0.159836 -0.91607,0.260985 -0.313904,0.109175 -0.62092,0.234476 -0.919425,0.380714 -0.315199,0.154517 -0.61679,0.335155 -0.910067,0.52762 -0.315284,0.195874 -0.600247,0.434037 -0.898307,0.653738 -0.149639,0.112748 -0.289438,0.2374 -0.428999,0.362121 0,0 5.247849,-6.019909 5.247849,-6.019909 l 0,0 c 0.152212,-0.113232 0.305122,-0.225474 0.460974,-0.333684 0.306309,-0.221418 0.627863,-0.420956 0.95855,-0.603974 0.321874,-0.170149 0.648124,-0.332456 0.989679,-0.460058 0.325679,-0.119387 0.654368,-0.23202 0.990582,-0.318205 0.321051,-0.08052 0.643054,-0.158805 0.969841,-0.212614 0.324252,-0.05851 0.651433,-0.102239 0.980024,-0.127265 0.329985,-0.02683 0.661462,-0.0385 0.991912,-0.01037 0.321029,0.02129 0.641653,0.05791 0.956522,0.125465 0.32398,0.07347 0.646313,0.15559 0.957559,0.273314 0.318528,0.126544 0.630667,0.269289 0.927412,0.441549 0.309993,0.181257 0.60949,0.379994 0.889784,0.604994 0.285886,0.235643 0.560487,0.484954 0.804487,0.76458 0.245341,0.280417 0.479619,0.570881 0.680698,0.885223 0.21051,0.332621 0.412022,0.671401 0.573629,1.031076 0.164378,0.365512 0.311707,0.737615 0.431061,1.12052 0.124348,0.401894 0.226085,0.810057 0.304342,1.223531 0.07476,0.42847 0.132224,0.86044 0.15975,1.294699 0.02122,0.451575 0.04217,0.903985 0.02172,1.35604 -0.02778,0.464061 -0.07214,0.927932 -0.177206,1.381842 -0.09681,0.459344 -0.206695,0.916615 -0.35404,1.362692 -0.144456,0.442188 -0.29442,0.88265 -0.46057,1.317237 -0.17003,0.442104 -0.357164,0.877436 -0.557216,1.306804 -0.200268,0.424258 -0.411614,0.842725 -0.632226,1.256765 -0.217269,0.410852 -0.442162,0.817885 -0.690214,1.211147 -0.246622,0.386949 -0.483925,0.78029 -0.755105,1.150991 -0.267458,0.365959 -0.52713,0.738269 -0.822281,1.083007 -0.282134,0.349386 -0.576212,0.688252 -0.888319,1.011363 -0.305675,0.316769 -0.618954,0.626163 -0.947187,0.91967 -2.266901,1.90286 -4.570002,4.079242 -7.054894,5.83748 -0.350183,0.231432 -0.706342,0.453524 -1.075739,0.653344 -0.356339,0.188002 -0.715929,0.369809 -1.088369,0.524309 -0.353065,0.157402 -0.714138,0.294736 -1.082529,0.412225 -0.352665,0.116962 -0.712989,0.210377 -1.076174,0.288478 -0.359879,0.0675 -0.720709,0.132484 -1.087021,0.15286 -0.361504,0.02812 -0.723729,0.02775 -1.085444,-7e-6 -0.356548,-0.03511 -0.712767,-0.08504 -1.058899,-0.180046 -0.337356,-0.09545 -0.672605,-0.20135 -0.988037,-0.356756 -0.321414,-0.155559 -0.635858,-0.326573 -0.921362,-0.542697 -0.297945,-0.229116 -0.57851,-0.479775 -0.827692,-0.761965 -0.253627,-0.292791 -0.490895,-0.599427 -0.695384,-0.929015 -0.207511,-0.337439 -0.400087,-0.684127 -0.555719,-1.048996 -0.159461,-0.37321 -0.300814,-0.75405 -0.402194,-1.14759 -0.100664,-0.398498 -0.185214,-0.80139 -0.225398,-1.211046 -0.04948,-0.408622 -0.07814,-0.819174 -0.07714,-1.231027 -0.0044,-0.424376 0.0076,-0.849054 0.04177,-1.272164 0.04648,-0.435649 0.09915,-0.870652 0.182258,-1.301137 0.07944,-0.444973 0.176609,-0.886178 0.296577,-1.322117 0.12513,-0.437954 0.250692,-0.876569 0.404035,-1.305598 0.155057,-0.424483 0.315979,-0.846947 0.49564,-1.261738 0.187675,-0.412736 0.362185,-0.831625 0.567175,-1.236358 0.19982,-0.396993 0.400562,-0.793792 0.615184,-1.183039 0.21409,-0.378083 0.43792,-0.750758 0.668802,-1.118808 0.227796,-0.346846 0.447671,-0.69938 0.692947,-1.034311 0.223496,-0.316832 0.456944,-0.627212 0.705192,-0.925108 0.226535,-0.276738 0.450799,-0.555251 0.685801,-0.824936 0.207452,-0.23372 0.424443,-0.459008 0.643172,-0.682139 2.147372,-1.971423 4.261355,-3.98758 6.675909,-5.65898 0.19191,-0.141177 0.366914,-0.305261 0.574031,-0.425078 0.151585,-0.100694 0.297865,-0.209308 0.456477,-0.298244 0.109607,-0.05826 0.213983,-0.119047 0.317592,-0.184972 0,0 -5.364511,5.987871 -5.364511,5.987871 z"
       inkscape:connector-curvature="0"
       transform="translate(0,902.36218)" />
    <path
       style="fill:#ffcc00;fill-opacity:1;fill-rule:nonzero"
       d="m 55.27567,87.862485 c -0.513704,-0.258506 -1.299542,-0.993901 -1.746305,-1.634209 -0.701536,-1.005452 -0.82525,-1.449406 -0.907285,-3.255838 -0.129777,-2.857746 0.312845,-4.711608 1.854519,-7.767409 1.823066,-3.613556 2.229582,-4.055101 3.913813,-4.251048 3.405697,-0.396227 5.870137,1.907786 6.414815,5.997234 0.309514,2.323837 -1.018711,6.363036 -3.075327,9.352226 -0.678345,0.98594 -1.084062,1.282242 -2.216023,1.618398 -1.81016,0.53756 -3.087572,0.51967 -4.238207,-0.05935 l 0,0 z"
       id="path3005"
       inkscape:connector-curvature="0"
       transform="translate(0,902.36218)" />
    <path
       style="fill:#ffcc00;fill-opacity:1;fill-rule:nonzero"
       d="m 55.125555,87.5329 c -1.677825,-1.07538 -2.132393,-2.043138 -2.234116,-4.756359 -0.110964,-2.959688 0.292812,-4.556882 1.988326,-7.865119 1.343618,-2.621629 1.634539,-3.032836 2.454713,-3.469663 0.848205,-0.451757 2.929216,-0.384077 3.928871,0.127776 1.135073,0.581192 2.460604,1.767919 2.523121,2.258911 0.02745,0.215591 0.233834,0.875855 0.458631,1.467253 0.820971,2.159826 0.34544,5.155775 -1.368549,8.62215 -1.170851,2.36793 -2.199544,3.500254 -3.510721,3.864391 -1.579395,0.438626 -3.327257,0.335847 -4.240276,-0.24934 l 0,0 z"
       id="path3007"
       inkscape:connector-curvature="0"
       transform="translate(0,902.36218)" />
    <path
       style="fill:#ffcc00;fill-opacity:1;fill-rule:nonzero"
       d="m 50.208572,93.688669 c -1.295098,-0.396403 -3.10731,-2.328956 -3.634328,-3.875668 -0.561923,-1.649152 -0.578019,-4.889086 -0.03466,-6.975204 0.594444,-2.282222 2.32753,-5.663974 3.934069,-7.676507 0.767152,-0.961021 2.419529,-2.65457 3.671948,-3.763441 1.25242,-1.108871 2.894512,-2.610147 3.649094,-3.336169 1.977727,-1.902873 3.8257,-2.686978 6.365662,-2.700986 1.807478,-0.01 2.185665,0.08042 3.360215,0.803053 1.468742,0.90364 2.88565,2.792896 3.389742,4.519765 1.052871,3.606825 -0.340731,8.581921 -3.62941,12.956831 -1.97402,2.626027 -8.798052,8.28098 -11.383621,9.433404 -1.746034,0.778231 -4.265417,1.050565 -5.688716,0.614922 l 0,0 z m 9.404436,-5.523357 c 1.368936,-0.384104 1.653855,-0.58796 2.360195,-1.688696 1.22781,-1.913377 2.612057,-5.093512 2.962249,-6.805401 0.331273,-1.619409 0.186087,-3.387862 -0.420264,-5.119047 -0.914872,-2.612039 -3.287176,-4.151631 -5.970392,-3.874699 -1.737319,0.179307 -2.177726,0.538438 -3.603621,2.938574 -2.659084,4.475901 -3.412357,9.393604 -1.886324,12.314766 0.55576,1.063845 1.040665,1.579706 1.924001,2.046826 1.393738,0.737026 2.514522,0.782416 4.634156,0.187677 l 0,0 z m -5.41946,-15.21316 c 0,-0.124472 -0.362903,0.04199 -0.806451,0.369924 -0.443549,0.327929 -0.806452,0.698075 -0.806452,0.822547 0,0.124471 0.362903,-0.042 0.806452,-0.369924 0.443548,-0.32793 0.806451,-0.698076 0.806451,-0.822547 z m 1.612904,-1.350149 c 0,-0.306822 -0.388577,-0.245684 -0.752689,0.118427 -0.513941,0.513942 -0.373558,0.78908 0.215054,0.421486 0.295699,-0.184667 0.537635,-0.427628 0.537635,-0.539913 z"
       id="path3009"
       inkscape:connector-curvature="0"
       transform="translate(0,902.36218)" />
    <path
       style="fill:#ffcc00;fill-opacity:1;fill-rule:nonzero"
       d="m 55.125555,87.5329 c -1.677825,-1.07538 -2.132393,-2.043138 -2.234116,-4.756359 -0.106544,-2.841805 0.292867,-4.549334 1.749858,-7.480842 1.812461,-3.646726 2.380077,-4.166667 4.548727,-4.166667 3.045954,0 5.487395,2.902085 5.487395,6.522738 0,2.273281 -1.68746,6.776602 -3.305622,8.821707 -1.229662,1.5541 -4.586203,2.123403 -6.246242,1.059423 z"
       id="path3011"
       inkscape:connector-curvature="0"
       transform="translate(0,902.36218)" />
    <path
       style="fill:#ffcc00;fill-opacity:1;fill-rule:nonzero"
       d="m 54.81697,87.289305 c -1.676323,-1.214322 -2.047037,-2.282333 -1.912468,-5.509735 0.124176,-2.97817 0.659111,-4.661605 2.578779,-8.115396 1.120884,-2.01665 1.873677,-2.535142 3.680745,-2.535142 3.073071,0 5.513393,2.887076 5.513393,6.522738 0,2.273281 -1.68746,6.776602 -3.305622,8.821707 -0.788965,0.997129 -2.301499,1.591039 -4.051958,1.591039 -1.152476,0 -1.642046,-0.151634 -2.502869,-0.775211 z"
       id="path3013"
       inkscape:connector-curvature="0"
       transform="translate(0,902.36218)" />
    <path
       style="fill:#ffcc00;fill-opacity:1;fill-rule:nonzero"
       d="m 54.376028,87.642058 c -1.676323,-1.214322 -2.39979,-2.635086 -2.265221,-5.862488 0.124176,-2.97817 -0.663715,-5.278924 1.255953,-8.732715 1.120884,-2.01665 4.078386,-2.799707 5.885454,-2.799707 2.384267,0 4.887105,2.288714 5.63267,4.799303 0.684991,2.306614 0.390941,5.923515 -0.937467,9.022566 -1.56646,3.654404 -3.237663,4.038148 -6.53939,4.524629 -1.254595,0.184854 -2.171176,-0.328011 -3.031999,-0.951588 z"
       id="path3015"
       inkscape:connector-curvature="0"
       transform="translate(0,902.36218)"
       sodipodi:nodetypes="ssssssss" />
    <path
       style="fill:#ffcc00;fill-opacity:1;fill-rule:nonzero"
       d="m 52.604203,79.744907 c 0,-0.06033 0.170933,-0.757499 0.272255,-1.110421 0.197752,-0.688808 0.371947,-1.187493 0.659966,-1.889359 0.201855,-0.491894 0.261426,-0.626465 0.543864,-1.2286 0.270027,-0.575675 0.704567,-1.400706 0.984241,-1.86871 0.149232,-0.249724 0.471277,-0.764355 0.613272,-0.980015 0.315259,-0.47881 0.778133,-1.124874 0.960416,-1.340515 0.04343,-0.05138 0.179337,-0.153553 0.281571,-0.211686 0.05978,-0.03399 0.25512,-0.08492 0.601834,-0.156895 0.383223,-0.07956 0.526579,-0.103778 0.853902,-0.144278 0.442689,-0.05477 0.553279,-0.0613 0.918868,-0.05418 0.356378,0.0069 0.581041,0.02451 0.82595,0.06463 0.782601,0.128199 1.410927,0.375222 2.075197,0.815853 0.579945,0.384696 1.090931,0.904134 1.512309,1.537327 0.262707,0.39476 0.472208,0.792749 0.638583,1.213113 0.363026,0.917224 0.53745,1.696767 0.628345,2.808228 0.01837,0.22459 0.01821,1.273619 -2.27e-4,1.481546 -0.02652,0.299165 -0.121371,0.915978 -0.163131,1.060829 -0.0045,0.01562 -0.01888,0.01807 -0.106014,0.01807 l -0.100806,0 0.03921,-0.193581 c 0.156531,-0.772882 0.227094,-1.510794 0.203848,-2.131735 -0.0094,-0.251163 -0.01925,-0.35396 -0.0616,-0.642939 -0.344915,-2.35375 -1.348018,-4.143689 -2.859797,-5.103035 -0.649322,-0.412047 -1.375403,-0.661887 -2.181999,-0.750812 -0.314591,-0.03468 -0.840032,-0.03694 -1.182896,-0.0051 -0.694925,0.06457 -1.1558,0.182712 -1.497033,0.383754 -0.647667,0.381583 -1.134613,1.06677 -2.163147,3.043789 -0.221449,0.425664 -0.684888,1.355158 -0.831345,1.667385 -0.517161,1.102517 -0.867637,2.035607 -1.097452,2.921796 -0.04932,0.190197 -0.16487,0.708084 -0.173912,0.779489 -0.0032,0.02519 -0.0056,0.02588 -0.09877,0.02878 -0.07991,0.0025 -0.0955,4.04e-4 -0.0955,-0.01274 z"
       id="path3017"
       inkscape:connector-curvature="0"
       transform="translate(0,902.36218)" />
    <path
       style="fill:#ffcc00;fill-opacity:1;fill-rule:nonzero"
       d="m 64.969796,78.838998 c 0,-0.01281 0.0037,-0.05339 0.0081,-0.09016 0.01632,-0.134431 0.02567,-0.411609 0.02574,-0.763376 1.13e-4,-0.57892 -0.01943,-0.897289 -0.08902,-1.450306 -0.131711,-1.046692 -0.485889,-2.155528 -0.942868,-2.951869 -0.239066,-0.416601 -0.411202,-0.66021 -0.728849,-1.031477 -0.496633,-0.580466 -1.14832,-1.059312 -1.879099,-1.380725 l -0.129983,-0.05717 4.706637,-1.51e-4 4.706638,-1.52e-4 0,3.332178 0,3.332178 -0.0701,0.192035 c -0.09471,0.259467 -0.192605,0.5128 -0.277383,0.717822 l -0.0704,0.17025 -2.629719,0.0021 -2.629718,0.0021 0,-0.02329 z"
       id="path3019"
       inkscape:connector-curvature="0"
       transform="translate(0,902.36218)" />
    <path
       style="fill:#ffcc00;fill-opacity:1;fill-rule:nonzero"
       d="m 64.772091,78.826625 c 0.0116,-0.0725 0.0462,-0.393246 0.06084,-0.563958 0.01905,-0.222178 0.02179,-0.924139 0.0043,-1.098564 C 64.810578,76.89872 64.75043,76.516489 64.683481,76.187135 64.456825,75.072106 64.070356,74.094447 63.539809,73.293968 63.00003,72.47956 62.319262,71.859463 61.51896,71.45322 61.270635,71.327167 61.077354,71.247502 60.814537,71.162878 l -0.150948,-0.0486 0.261678,-3.33e-4 0.261677,-3.32e-4 0.157336,0.06793 c 0.568062,0.245247 1.089062,0.590744 1.54579,1.025077 0.573859,0.545722 1.085297,1.301895 1.410387,2.085289 0.213745,0.515079 0.394215,1.104993 0.496421,1.622689 0.154469,0.78242 0.206127,1.462935 0.182503,2.404173 -0.0051,0.204375 -0.01378,0.41027 -0.01922,0.457546 l -0.0099,0.08596 -0.09194,0 -0.09194,0 0.0057,-0.03564 0,0 z"
       id="path3021"
       inkscape:connector-curvature="0"
       transform="translate(0,902.36218)" />
    <path
       style="fill:#ffcc00;fill-opacity:1;fill-rule:nonzero"
       d="m 64.771593,78.830818 c 0.01069,-0.06396 0.04712,-0.405522 0.06015,-0.563958 0.0074,-0.08994 0.01557,-0.30504 0.01816,-0.478001 0.0067,-0.449998 -0.0069,-0.651156 -0.07285,-1.0776 -0.265528,-1.716154 -0.872188,-3.115104 -1.791033,-4.130101 -0.606227,-0.669665 -1.350377,-1.154259 -2.184058,-1.422268 l -0.138369,-0.04448 0.261328,-3.99e-4 0.261327,-3.99e-4 0.153779,0.06592 c 0.475164,0.203685 0.955467,0.504044 1.348772,0.843457 0.733374,0.632885 1.331355,1.511295 1.704417,2.503722 0.308879,0.821685 0.462585,1.497141 0.556235,2.444366 0.03037,0.307226 0.04248,0.849823 0.03009,1.348199 -0.0052,0.208706 -0.01381,0.41626 -0.01916,0.461229 l -0.0097,0.08176 -0.09216,0 -0.09216,0 0.0053,-0.03145 0,0 z"
       id="path3023"
       inkscape:connector-curvature="0"
       transform="translate(0,902.36218)" />
    <path
       style="fill:#ffcc00;fill-opacity:1;fill-rule:nonzero"
       d="m 64.85002,77.456699 c -0.01371,-0.301296 -0.0208,-0.380155 -0.05635,-0.626577 -0.219364,-1.52054 -0.706085,-2.805611 -1.437519,-3.795426 -0.143808,-0.194608 -0.289331,-0.36834 -0.458789,-0.547723 l -0.06535,-0.06917 0.134504,-0.0016 0.134504,-0.0016 0.02948,0.03208 c 0.492046,0.535359 0.915625,1.210203 1.197727,1.908213 0.26197,0.648199 0.436076,1.276036 0.539909,1.946954 0.05308,0.343008 0.101831,0.797532 0.108288,1.009716 0.0017,0.0563 0.0044,0.127874 0.006,0.159065 l 0.0029,0.05671 -0.06601,0 -0.06601,0 -0.0032,-0.07054 0,0 z"
       id="path3025"
       inkscape:connector-curvature="0"
       transform="translate(0,902.36218)" />
    <path
       style="fill:#ffcc00;fill-opacity:1;fill-rule:nonzero"
       d=""
       id="path3027"
       inkscape:connector-curvature="0"
       transform="translate(0,902.36218)" />
    <path
       style="fill:#ffcc00;fill-opacity:1;fill-rule:nonzero"
       d="m 52.539236,82.131 c -0.0067,-0.162169 0.02968,-0.253028 0.0808,-0.20191 0.05112,0.05112 0.05658,0.183802 0.01215,0.294852 -0.04911,0.12272 -1.055632,-0.09011 -1.063012,-0.269317 z"
       id="path3029"
       inkscape:connector-curvature="0"
       transform="translate(0,902.36218)"
       sodipodi:nodetypes="ccccc" />
    <path
       style="fill:#ffcc00;fill-opacity:1;fill-rule:nonzero"
       d=""
       id="path3031"
       inkscape:connector-curvature="0"
       transform="translate(0,902.36218)" />
  </g>
</svg>
