<?xml version="1.0" encoding="UTF-8" standalone="no"?>
<!-- Created with Inkscape (http://www.inkscape.org/) -->

<svg
   xmlns:dc="http://purl.org/dc/elements/1.1/"
   xmlns:cc="http://creativecommons.org/ns#"
   xmlns:rdf="http://www.w3.org/1999/02/22-rdf-syntax-ns#"
   xmlns:svg="http://www.w3.org/2000/svg"
   xmlns="http://www.w3.org/2000/svg"
   xmlns:sodipodi="http://sodipodi.sourceforge.net/DTD/sodipodi-0.dtd"
   xmlns:inkscape="http://www.inkscape.org/namespaces/inkscape"
   width="120"
   height="150"
   id="svg2"
   version="1.1"
   inkscape:version="0.48.4 r9939"
   sodipodi:docname="Neues Dokument 1">
  <defs
     id="defs4" />
  <sodipodi:namedview
     id="base"
     pagecolor="#ffffff"
     bordercolor="#666666"
     borderopacity="1.0"
     inkscape:pageopacity="0.0"
     inkscape:pageshadow="2"
     inkscape:zoom="2.17"
     inkscape:cx="96.501038"
     inkscape:cy="105.69066"
     inkscape:document-units="px"
     inkscape:current-layer="layer1"
     showgrid="false"
     inkscape:window-width="1292"
     inkscape:window-height="745"
     inkscape:window-x="-8"
     inkscape:window-y="-8"
     inkscape:window-maximized="1" />
  <metadata
     id="metadata7">
    <rdf:RDF>
      <cc:Work
         rdf:about="">
        <dc:format>image/svg+xml</dc:format>
        <dc:type
           rdf:resource="http://purl.org/dc/dcmitype/StillImage" />
        <dc:title></dc:title>
      </cc:Work>
    </rdf:RDF>
  </metadata>
  <g
     inkscape:label="Ebene 1"
     inkscape:groupmode="layer"
     id="layer1"
     transform="translate(0,-902.36218)">
    <path
       style="fill:#ffcd00;fill-opacity:1;fill-rule:nonzero"
       id="path2985"
       d="m 16.832422,951.14704 c 0.09258,0.20553 0.203721,0.40235 0.313545,0.59909 0.218819,0.3785 0.451253,0.74886 0.685495,1.11792 0.349576,0.55403 0.700746,1.107 1.045126,1.66428 0.454103,0.7428 0.87996,1.5023 1.30262,2.26326 0.526973,0.95205 1.027782,1.91805 1.520044,2.88838 0.584704,1.15474 1.135547,2.32614 1.686043,3.49744 0.625055,1.33334 1.230511,2.6757 1.831278,4.02011 0.662311,1.4722 1.300935,2.95486 1.928245,4.44224 0.657896,1.57673 1.293451,3.16268 1.921141,4.75162 0.650298,1.65196 1.271784,3.31497 1.886403,4.98046 0.629219,1.70627 1.226733,3.42389 1.813575,5.14512 0.595005,1.74609 1.160141,3.50196 1.708348,5.26324 0.54766,1.76992 1.070503,3.54739 1.576485,5.32964 0.503543,1.75894 0.97928,3.52556 1.451778,5.29306 0.457519,1.7259 0.90285,3.4551 1.337636,5.187 0.416325,1.6797 0.815963,3.3633 1.212271,5.0478 0.382429,1.616 0.741357,3.2374 1.09433,4.8599 0.3374,1.5574 0.652267,3.1194 0.96094,4.6826 0.291147,1.4911 0.573541,2.9838 0.838944,4.4796 0.230798,1.3392 0.467487,2.6773 0.709983,4.0144 0.195328,1.0591 0.409741,2.1149 0.657396,3.1632 0.170757,0.7372 0.379766,1.4641 0.622089,2.1809 0.145927,0.4253 0.317359,0.8413 0.531127,1.2369 0.06638,0.1065 0.260095,0.4477 0.170142,0.1146 -0.158252,0.045 -0.460027,0.5427 -0.535893,0.6051 -10.646899,8.7473 -10.391826,8.5955 -9.496868,7.182 0.426175,-0.3067 0.716637,-0.7614 1.006941,-1.1902 0.433512,-0.6733 0.813484,-1.3788 1.189521,-2.0851 0.488176,-0.9159 0.945658,-1.8475 1.403628,-2.7785 0.536614,-1.092 1.050282,-2.195 1.566745,-3.2966 0.581946,-1.2448 1.153007,-2.4946 1.722566,-3.7451 0.624914,-1.3794 1.260334,-2.7541 1.901287,-4.1262 0.702521,-1.5 1.42663,-2.9896 2.1571,-4.4761 0.776928,-1.5841 1.568137,-3.1608 2.369469,-4.7324 0.840665,-1.6576 1.706492,-3.302 2.582049,-4.9413 0.906801,-1.6995 1.838836,-3.3851 2.778462,-5.0666 0.966175,-1.7303 1.957882,-3.4462 2.964312,-5.1534 1.037324,-1.7608 2.115469,-3.497 3.19852,-5.22993 1.116822,-1.77274 2.24967,-3.53536 3.39501,-5.28978 1.177328,-1.79815 2.376685,-3.58167 3.583666,-5.35999 1.22778,-1.8043 2.47551,-3.59491 3.734218,-5.37771 1.255461,-1.78741 2.544208,-3.5509 3.8411,-5.30835 1.258542,-1.70346 2.533228,-3.39487 3.807758,-5.08637 1.21423,-1.60512 2.436597,-3.20411 3.667412,-4.79655 1.166932,-1.51485 2.360184,-3.00902 3.558425,-4.49914 1.141975,-1.42198 2.314211,-2.81908 3.494816,-4.20902 1.110015,-1.30733 2.23354,-2.60311 3.364945,-3.89194 1.045531,-1.1902 2.10475,-2.36818 3.166334,-3.54402 0.977148,-1.08342 1.961819,-2.15992 2.954401,-3.2292 0.932396,-1.00859 1.88341,-1.99964 2.83631,-2.98878 0.88208,-0.91311 3.45363,-3.35661 4.34968,-4.25592 l 9.64356,-5.38227 0,0 c -0.90769,0.90411 -1.81776,1.80579 -2.72383,2.71152 -0.96654,0.98239 -1.44558,1.73666 -2.39312,2.73738 -1.00229,1.07083 -2.48283,2.37908 -3.46416,3.46927 -1.07752,1.17518 -2.14715,2.3575 -3.20875,3.5471 -1.14382,1.28844 -2.28245,2.58155 -3.40333,3.89005 -1.190289,1.38781 -2.379886,2.77636 -3.534967,4.1938 -1.210681,1.48615 -2.412873,2.97938 -3.592835,4.49007 -1.243183,1.59166 -2.473401,3.19328 -3.701101,4.79691 -1.282505,1.69317 -2.566726,3.38504 -3.834569,5.08924 -1.303269,1.75065 -2.602437,3.50456 -3.861664,5.28733 -1.259108,1.77606 -2.51031,3.55765 -3.741789,5.35304 -1.20395,1.77158 -2.406951,3.54376 -3.583601,5.33368 -1.145364,1.74503 -2.277952,3.49827 -3.396193,5.26083 -1.084272,1.72085 -2.162231,3.44588 -3.204157,5.19281 -1.006883,1.69654 -2.003677,3.39894 -2.969133,5.11954 -0.937724,1.6722 -1.872252,3.3463 -2.777354,5.0365 -0.873733,1.6281 -1.742955,3.2587 -2.578767,4.9067 -0.79447,1.5631 -1.58976,3.1259 -2.356419,4.7028 -0.72639,1.4717 -1.443756,2.9479 -2.139886,4.4342 -0.637901,1.3583 -1.261049,2.7234 -1.88125,4.09 -0.556595,1.2466 -1.118584,2.4908 -1.681152,3.7347 -0.503634,1.0974 -1.009408,2.1937 -1.51608,3.2897 -0.442221,0.9274 -0.884976,1.8546 -1.337713,2.777 -0.355935,0.709 -0.708271,1.4199 -1.083886,2.1188 -0.251413,0.4734 -0.522741,0.9352 -0.779368,1.4053 -2.165165,4.1665 -0.180768,0.4025 -10.458165,8.8397 -0.20409,0.1674 -0.712676,-0.1929 -0.866858,-0.2775 -0.339543,-0.2611 -0.638324,-0.5566 -0.826657,-0.948 -0.236538,-0.4696 -0.447487,-0.951 -0.605919,-1.4532 -0.247602,-0.7672 -0.465749,-1.5435 -0.632811,-2.3326 -0.238417,-1.0837 -0.445716,-2.1735 -0.634597,-3.267 -0.224797,-1.3496 -0.44261,-2.7002 -0.665123,-4.0501 -0.250621,-1.4939 -0.517065,-2.9849 -0.80257,-4.4724 -0.29831,-1.56 -0.60526,-3.1185 -0.93259,-4.6728 -0.341553,-1.6205 -0.691605,-3.2395 -1.063565,-4.8536 -0.388123,-1.6826 -0.781625,-3.3639 -1.187752,-5.0421 -0.425676,-1.7294 -0.865479,-3.4553 -1.314036,-5.1789 -0.465257,-1.764 -0.934884,-3.527 -1.432268,-5.2823 -0.497693,-1.7734 -1.01415,-3.5414 -1.555518,-5.30197 -0.544435,-1.75022 -1.09716,-3.49783 -1.69005,-5.23239 -0.58398,-1.70993 -1.175549,-3.4173 -1.801124,-5.11256 -0.613174,-1.65388 -1.230377,-3.30629 -1.878794,-4.94676 -0.629266,-1.57565 -1.263358,-3.14945 -1.918532,-4.71454 -0.629368,-1.47264 -1.268338,-2.94124 -1.935709,-4.39713 -0.608025,-1.32761 -1.21635,-2.65513 -1.849733,-3.97091 -0.557239,-1.14968 -1.11097,-2.30144 -1.704568,-3.43297 -0.492234,-0.94592 -0.999615,-1.88378 -1.5308007,-2.80848 C 9.3851196,964.44376 8.9579793,963.71236 8.50198,962.99864 8.1527147,962.45831 7.7928279,961.9251 7.4322731,961.39225 7.1769372,961.02241 6.9242758,960.65066 6.6765605,960.27566 6.5368911,960.0672 6.4049721,959.85385 6.2674186,959.64408 l 10.5650034,-8.49669 z"
       inkscape:connector-curvature="0"
       sodipodi:nodetypes="ccccccccccccccccccccccccccccccccccccccccccccccccccccccccccccscccccccccccccccccccccccccccccccccccccccccccccc" />
    <path
       style="fill:#ffcd00;fill-opacity:1;fill-rule:nonzero"
       id="path2987"
       d="m 15.37356,950.5681 c 0.112029,-0.11242 0.246855,-0.18512 0.367886,-0.28674 0.189482,-0.13444 0.373124,-0.27711 0.551943,-0.4275 0.283903,-0.16073 0.550229,-0.34978 0.83263,-0.51352 0.372037,-0.2312 0.760648,-0.42848 1.151856,-0.62384 0.523997,-0.25823 1.059523,-0.49325 1.588414,-0.74182 0.669834,-0.29075 1.341398,-0.576 2.019776,-0.84618 0.799265,-0.31949 1.602854,-0.62851 2.408834,-0.93079 0.89386,-0.3326 1.794503,-0.64582 2.695088,-0.95948 1.009847,-0.3556 2.028717,-0.68466 3.045665,-1.01921 1.224935,-0.40443 2.462742,-0.76673 3.700763,-1.1284 1.444122,-0.42394 2.900379,-0.80532 4.36074,-1.16887 1.649637,-0.40996 3.307855,-0.78459 4.969483,-1.14249 1.775385,-0.39279 3.560901,-0.73665 5.344948,-1.08711 1.82392,-0.36047 3.655988,-0.67713 5.485509,-1.00732 1.809763,-0.32489 3.623207,-0.62853 5.43719,-0.92876 1.741,-0.28527 3.484156,-0.55714 5.228469,-0.82134 1.642619,-0.24893 3.286522,-0.48926 4.930997,-0.72559 1.528999,-0.21883 3.058847,-0.43172 4.589884,-0.6358 1.438481,-0.19187 2.877958,-0.37612 4.31787,-0.55689 1.348422,-0.16906 2.697788,-0.33043 4.047523,-0.48864 1.268225,-0.14841 2.537276,-0.28962 3.806643,-0.42789 1.197893,-0.13028 2.3965,-0.25383 3.595378,-0.37468 1.131153,-0.105 2.260237,-0.22924 3.38971,-0.35057 1.068532,-0.11451 2.137761,-0.22246 3.20724,-0.32778 1.022217,-0.0927 2.042707,-0.20175 3.063537,-0.30824 0.982434,-0.10237 1.965504,-0.19829 2.948814,-0.29174 0.93323,-0.10652 1.8674,-0.20454 2.80181,-0.30008 0.90145,-0.0962 1.80538,-0.168 2.70617,-0.27007 0.86429,-0.0969 1.72945,-0.18568 2.59486,-0.27205 0.83827,-0.0735 1.67396,-0.1702 2.51036,-0.26173 0.81215,-0.0883 1.62504,-0.16942 2.43815,-0.24817 0.78681,-0.0795 1.57215,-0.173 2.35861,-0.25617 0.76914,-0.0722 1.53636,-0.1632 2.30503,-0.239 0.12213,-0.0127 0.24425,-0.0254 0.36638,-0.0381 0,0 -9.37501,9.56593 -9.37501,9.56593 l 0,0 c -0.12018,0.0118 -0.24037,0.0236 -0.36055,0.0354 -0.76487,0.0821 -1.53117,0.15052 -2.29557,0.23716 -0.78678,0.0852 -1.57339,0.17182 -2.36156,0.24327 -0.80906,0.0813 -1.61782,0.16547 -2.42622,0.25303 -0.83636,0.0885 -1.67396,0.16388 -2.51062,0.24946 -0.86273,0.0882 -1.724995,0.18074 -2.58787,0.26743 -0.900217,0.0823 -1.799822,0.1712 -2.699054,0.26368 -0.933136,0.0964 -1.865716,0.19885 -2.799934,0.28439 -0.978518,0.0939 -1.956764,0.19056 -2.934635,0.29098 -1.01938,0.10315 -2.039644,0.19685 -3.059418,0.29601 -1.063986,0.1049 -2.127678,0.21264 -3.191014,0.3239 -1.126457,0.11607 -2.253982,0.22095 -3.380903,0.3324 -1.192088,0.11909 -2.383922,0.24079 -3.575078,0.3689 -1.261933,0.13596 -2.523568,0.27472 -3.784424,0.42037 -1.341599,0.15519 -2.682851,0.31342 -4.023212,0.47901 -1.431342,0.17709 -2.862326,0.35716 -4.29205,0.54693 -1.521146,0.20348 -3.042055,0.40879 -4.561673,0.62343 -1.634309,0.23088 -3.268159,0.46512 -4.90031,0.71083 -1.734809,0.26332 -3.468972,0.53105 -5.200197,0.81714 -1.807142,0.29799 -3.612686,0.60568 -5.414949,0.93203 -1.826658,0.32631 -3.652171,0.65929 -5.471333,1.02553 -1.78361,0.35461 -3.565176,0.71968 -5.338392,1.12361 -1.66154,0.37836 -3.320604,0.76872 -4.967548,1.20693 -1.460923,0.39155 -2.91827,0.79659 -4.363173,1.24425 -1.243785,0.3814 -2.482695,0.77832 -3.712279,1.20356 -1.022632,0.3491 -2.045129,0.69849 -3.061084,1.06675 -0.89879,0.3216 -1.793929,0.65373 -2.683124,1.00104 -0.804359,0.31712 -1.607955,0.63652 -2.401831,0.97922 -0.671481,0.29365 -1.340668,0.59421 -1.996812,0.92085 -0.528711,0.25712 -1.0554638,0.5185 -1.5585516,0.82369 -0.3747896,0.22657 -0.73812,0.47293 -1.0982415,0.72212 -0.2612024,0.19398 -0.5351269,0.37415 -0.7717136,0.59838 -0.1978747,0.14036 -0.3968605,0.27894 -0.5876384,0.4275 -0.1361209,0.0893 -0.2508748,0.19901 -0.3969215,0.2732 0,0 8.9747336,-10.15185 8.9747336,-10.15185 z"
       inkscape:connector-curvature="0" />
    <path
       style="fill:#ffcd00;fill-opacity:1;fill-rule:nonzero"
       id="path2989"
       d="m 10.285894,992.88324 c 0.294321,-0.0803 0.581922,-0.1833 0.874443,-0.27035 0.625512,-0.18035 1.248552,-0.36844 1.873518,-0.5507 0.937602,-0.27271 1.876219,-0.54127 2.818316,-0.79815 1.24306,-0.33649 2.485344,-0.67585 3.728261,-1.0129 1.522343,-0.40861 3.041516,-0.82879 4.564053,-1.2367 1.791469,-0.47911 3.584791,-0.95117 5.37986,-1.41659 2.064275,-0.53417 4.132006,-1.05469 6.198992,-1.57821 2.272145,-0.57974 4.550144,-1.13602 6.825936,-1.70115 2.428163,-0.60887 4.862314,-1.19314 7.296911,-1.7756 2.51478,-0.60096 5.031995,-1.19178 7.552027,-1.77033 2.525103,-0.58541 5.053202,-1.15771 7.581182,-1.73054 2.462841,-0.55411 4.926783,-1.10332 7.38916,-1.6595 2.325515,-0.52759 4.652695,-1.04797 6.977714,-1.57778 2.134415,-0.48021 4.266403,-0.97096 6.399115,-1.45865 1.944299,-0.4414 3.890313,-0.87501 5.834452,-1.31711 0.906687,-0.20759 1.814784,-0.40875 2.723546,-0.607 0,0 -9.061419,9.45899 -9.061419,9.45899 l 0,0 c -0.900767,0.1962 -1.80116,0.39407 -2.700869,0.59509 -1.93259,0.4283 -3.867203,0.84746 -5.79825,1.28274 -2.119989,0.47533 -4.241107,0.94555 -6.362008,1.41678 -2.315626,0.5131 -4.630945,1.02757 -6.945981,1.54333 -2.4566,0.54572 -4.913579,1.08975 -7.368754,1.64187 -2.525215,0.56969 -5.049427,1.14383 -7.571138,1.72887 -2.520291,0.58614 -5.039062,1.17887 -7.553734,1.78874 -2.440249,0.58981 -4.877976,1.18985 -7.311431,1.80717 -2.286712,0.57422 -4.57293,1.15045 -6.855084,1.7426 -2.081768,0.53792 -4.162795,1.07872 -6.239511,1.6359 -1.809563,0.48747 -3.618277,0.97809 -5.423996,1.47965 -1.538224,0.42976 -3.075105,0.86432 -4.613117,1.29484 -1.2600939,0.35695 -2.5208677,0.71155 -3.7777171,1.07985 -0.9553429,0.2848 -1.9083976,0.5775 -2.8583978,0.8797 -0.6382998,0.2061 -1.2781761,0.4085 -1.906886,0.6427 -0.3076244,0.1169 -0.6205033,0.2199 -0.9238444,0.3474 0,0 9.2546513,-9.90496 9.2546513,-9.90496 z"
       inkscape:connector-curvature="0" />
  </g>
</svg>
