<?xml version="1.0" encoding="UTF-8" standalone="no"?>
<!-- Created with Inkscape (http://www.inkscape.org/) -->

<svg
   xmlns:dc="http://purl.org/dc/elements/1.1/"
   xmlns:cc="http://creativecommons.org/ns#"
   xmlns:rdf="http://www.w3.org/1999/02/22-rdf-syntax-ns#"
   xmlns:svg="http://www.w3.org/2000/svg"
   xmlns="http://www.w3.org/2000/svg"
   xmlns:sodipodi="http://sodipodi.sourceforge.net/DTD/sodipodi-0.dtd"
   xmlns:inkscape="http://www.inkscape.org/namespaces/inkscape"
   width="120"
   height="150"
   id="svg7747"
   version="1.1"
   inkscape:version="0.48.4 r9939"
   sodipodi:docname="safety.svg">
  <defs
     id="defs7749" />
  <sodipodi:namedview
     id="base"
     pagecolor="#ffffff"
     bordercolor="#666666"
     borderopacity="1.0"
     inkscape:pageopacity="0.0"
     inkscape:pageshadow="2"
     inkscape:zoom="3.2376245"
     inkscape:cx="60"
     inkscape:cy="75"
     inkscape:document-units="px"
     inkscape:current-layer="layer1"
     showgrid="false"
     inkscape:window-width="1292"
     inkscape:window-height="745"
     inkscape:window-x="-8"
     inkscape:window-y="-8"
     inkscape:window-maximized="1" />
  <metadata
     id="metadata7752">
    <rdf:RDF>
      <cc:Work
         rdf:about="">
        <dc:format>image/svg+xml</dc:format>
        <dc:type
           rdf:resource="http://purl.org/dc/dcmitype/StillImage" />
        <dc:title />
      </cc:Work>
    </rdf:RDF>
  </metadata>
  <g
     inkscape:label="Ebene 1"
     inkscape:groupmode="layer"
     id="layer1"
     transform="translate(0,-902.36218)">
    <path
       style="fill:#ffcc00;fill-opacity:1;fill-rule:nonzero"
       id="path2999"
       d="m 32.056075,82.952039 c -0.148291,0.0044 -0.295992,0.04259 -0.440622,0.07794 -0.289076,0.03664 -0.564283,0.131961 -0.841053,0.218355 -0.389413,0.115439 -0.768663,0.257872 -1.14536,0.408693 -0.451378,0.185916 -0.901543,0.374722 -1.343897,0.581299 -0.504974,0.236934 -1.002464,0.489998 -1.489149,0.76255 -0.524774,0.295621 -1.036218,0.614372 -1.533905,0.953468 -0.528189,0.355098 -1.039496,0.734275 -1.551194,1.112503 -2.316401,1.821833 -5.812012,4.84127 4.497673,-3.807532 -0.497124,0.416373 -0.971407,0.858924 -1.434149,1.312898 -0.468323,0.454854 -0.899012,0.945037 -1.318503,1.444562 -0.422514,0.501661 -0.811652,1.029788 -1.185715,1.568139 -0.368282,0.533041 -0.708394,1.084614 -1.033869,1.644585 -0.31395,0.547223 -0.594353,1.112527 -0.855949,1.686332 -0.255573,0.565276 -0.475561,1.145793 -0.672755,1.733724 -0.19497,0.580066 -0.347118,1.172873 -0.47799,1.770264 -0.128072,0.589583 -0.210613,1.18748 -0.284557,1.785825 -0.06974,0.581603 -0.104406,1.166319 -0.120589,1.751603 -0.01724,0.56035 0.0049,1.120687 0.0385,1.679956 0.03556,0.535249 0.105431,1.067419 0.188413,1.597129 0.08264,0.51816 0.204191,1.02878 0.340995,1.53497 0.136791,0.5006 0.310135,0.98987 0.49571,1.47414 0.184695,0.48049 0.412653,0.94239 0.649638,1.39879 0.237098,0.45602 0.507524,0.89273 0.789555,1.32194 0.283695,0.42854 0.594214,0.83783 0.916804,1.23754 0.322954,0.39678 0.672936,0.77025 1.028053,1.13811 0.353688,0.36137 0.734062,0.69452 1.125286,1.01428 0.390255,0.3091 0.801156,0.59017 1.219743,0.85909 0.417674,0.26286 0.858031,0.48628 1.307323,0.68932 0.458618,0.20647 0.9339,0.3723 1.411209,0.5294 0.480034,0.14852 0.970728,0.25967 1.463982,0.35395 0.496637,0.0995 0.998923,0.16254 1.503702,0.20039 0.512345,0.0311 1.025475,0.0322 1.538139,0.0112 0.528346,-0.009 1.052474,-0.0764 1.576374,-0.13864 0.528303,-0.0706 1.05321,-0.16519 1.574289,-0.27682 0.516872,-0.10557 1.029709,-0.23201 1.536808,-0.37736 0.499413,-0.1446 0.994794,-0.30214 1.485081,-0.47515 0.482416,-0.16398 0.960188,-0.3428 1.430399,-0.53911 0.462363,-0.19831 0.919258,-0.40837 1.369389,-0.63304 0.43681,-0.23073 0.869824,-0.4684 1.29184,-0.72534 0.421761,-0.25402 0.824973,-0.53683 1.228045,-0.81909 0.406241,-0.28893 0.795985,-0.59975 1.177688,-0.92013 2.943279,-2.42987 -8.060913,6.85175 -4.895006,4.10157 0.366359,-0.31949 0.713442,-0.66022 1.053948,-1.00688 0.336707,-0.34952 0.660883,-0.71049 0.971253,-1.08353 0.311611,-0.36864 0.604986,-0.75185 0.888395,-1.14241 0.280089,-0.38675 0.532397,-0.79228 0.789666,-1.19426 0.255218,-0.3964 0.491201,-0.80453 0.718696,-1.21731 0.226684,-0.41328 0.432953,-0.83717 0.631983,-1.2643 0.200437,-0.4252 0.376562,-0.86062 0.541235,-1.30067 0.163811,-0.4415 0.312838,-0.88809 0.447257,-1.33934 0.136101,-0.45291 0.249871,-0.91167 0.354798,-1.37263 0.101659,-0.45143 0.185786,-0.90672 0.26062,-1.363305 0.07591,-0.446935 0.126345,-0.897261 0.167273,-1.348543 0.04579,-0.444009 0.05448,-0.890358 0.05768,-1.336315 0.0025,-0.451508 -0.0241,-0.902133 -0.06086,-1.351906 -0.03688,-0.452763 -0.0953,-0.903136 -0.169042,-1.351247 -0.07304,-0.444719 -0.168461,-0.885013 -0.278723,-1.32184 -0.106614,-0.420522 -0.239795,-0.83361 -0.377149,-1.244903 -0.134683,-0.393546 -0.286686,-0.780683 -0.455848,-1.160606 -0.163367,-0.3693 -0.361218,-0.721196 -0.574237,-1.063717 -0.206683,-0.331405 -0.449816,-0.636976 -0.697935,-0.937739 -0.249473,-0.301975 -0.524735,-0.58064 -0.809127,-0.849421 -0.289179,-0.272097 -0.590555,-0.53005 -0.895163,-0.784535 -0.307481,-0.256802 -0.632644,-0.49084 -0.963746,-0.715904 -0.341295,-0.230963 -0.690496,-0.449258 -1.046254,-0.657127 -0.361728,-0.210115 -0.734915,-0.399234 -1.111414,-0.581169 -0.377436,-0.185165 -0.767002,-0.342552 -1.158951,-0.49376 -0.394926,-0.154214 -0.799383,-0.28174 -1.198476,-0.424235 -0.403498,-0.144345 -0.811787,-0.274545 -1.221652,-0.399445 -0.416678,-0.124146 -0.834917,-0.243751 -1.258215,-0.34326 -0.423114,-0.09922 -0.848479,-0.188328 -1.274527,-0.273917 -0.4328,-0.08943 -0.868056,-0.163939 -1.30514,-0.228598 -0.439642,-0.06496 -0.8802,-0.123415 -1.321041,-0.179567 -0.451805,-0.05727 -0.904329,-0.108587 -1.357054,-0.157967 -0.225696,-0.02988 -0.452944,-0.04172 -0.680118,-0.05276 0,0 5.676118,-5.593175 5.676118,-5.593175 l 0,0 c 0.233815,0.02285 0.467425,0.04736 0.700789,0.0745 0.456745,0.05221 0.913267,0.106474 1.368973,0.16717 0.446656,0.05984 0.893128,0.121526 1.337854,0.194544 0.445052,0.07597 0.888154,0.163048 1.330275,0.254483 0.43517,0.09204 0.869901,0.186943 1.300276,0.299638 0.43125,0.117647 0.861766,0.238256 1.28784,0.373683 0.416161,0.132659 0.830147,0.271848 1.241545,0.418666 0.410292,0.140873 0.819695,0.284781 1.221794,0.447898 0.406537,0.166396 0.808059,0.344738 1.201063,0.54122 0.391191,0.196616 0.778705,0.400842 1.154128,0.626446 0.367765,0.222011 0.73021,0.452723 1.084137,0.696302 0.347453,0.24354 0.688348,0.496466 1.012893,0.770113 0.317804,0.265615 0.628614,0.539184 0.929693,0.823719 0.304664,0.292806 0.59983,0.59564 0.869744,0.921206 0.271351,0.326659 0.534778,0.660421 0.763212,1.019077 0.234585,0.37014 0.454303,0.749715 0.639035,1.147583 0.186563,0.400048 0.354857,0.807756 0.502367,1.223921 0.149653,0.427978 0.289303,0.859673 0.411749,1.296268 0.119484,0.455321 0.235679,0.911324 0.316243,1.375553 0.08301,0.465568 0.164995,0.931263 0.208363,1.402655 0.04463,0.465819 0.09156,0.932148 0.09924,1.400409 0.01323,0.465798 0.01052,0.932266 -0.01411,1.397671 -0.03564,0.465423 -0.06856,0.931608 -0.136987,1.39365 -0.06677,0.47079 -0.143622,0.939856 -0.234407,1.406689 -0.09903,0.473053 -0.196463,0.946857 -0.326546,1.41259 -0.125616,0.465289 -0.254677,0.929564 -0.416638,1.383855 -0.15632,0.455235 -0.313215,0.910913 -0.507262,1.351793 -0.189993,0.44085 -0.386851,0.87884 -0.603261,1.30748 -0.217149,0.42799 -0.441921,0.85229 -0.688766,1.26406 -0.24978,0.41373 -0.51126,0.82027 -0.769169,1.22894 -0.271088,0.40838 -0.551054,0.81111 -0.855942,1.19523 -0.306455,0.38274 -0.607291,0.77067 -0.942645,1.12909 -0.327077,0.3669 -0.667093,0.72169 -1.020544,1.06335 -2.264767,2.14054 -4.717779,4.0743 -7.149971,6.02145 -0.398946,0.30567 -0.803682,0.60383 -1.224437,0.87911 -0.415272,0.27497 -0.837062,0.54013 -1.273694,0.78021 -0.439112,0.23903 -0.880445,0.47508 -1.336047,0.68152 -0.464483,0.21088 -0.932706,0.41447 -1.4101,0.59456 -0.483738,0.1782 -0.968726,0.35277 -1.460109,0.509 -0.503579,0.15736 -1.00849,0.31111 -1.520502,0.43913 -0.521715,0.12561 -1.044942,0.24477 -1.573273,0.33964 -0.537882,0.0937 -1.077546,0.17918 -1.621356,0.23072 -0.541162,0.0539 -1.083941,0.0873 -1.627992,0.0896 -0.53588,-8.4e-4 -1.072402,-0.0161 -1.60536,-0.076 -0.525373,-0.0635 -1.04824,-0.14648 -1.564957,-0.26183 -0.516316,-0.11798 -1.031092,-0.24627 -1.530631,-0.4241 -0.498954,-0.17607 -0.994182,-0.36474 -1.47152,-0.594 -0.474017,-0.23145 -0.94101,-0.47799 -1.38083,-0.77049 -0.439322,-0.2901 -0.87084,-0.59259 -1.277702,-0.9273 -0.41146,-0.34269 -0.811405,-0.69917 -1.184892,-1.08337 -0.369669,-0.38538 -0.733798,-0.77653 -1.070644,-1.19131 -0.339839,-0.41858 -0.666341,-0.84773 -0.965403,-1.2967 -0.299193,-0.44972 -0.588305,-0.90614 -0.840293,-1.38444 -0.253909,-0.47952 -0.500641,-0.96401 -0.704153,-1.46747 -0.201362,-0.50505 -0.390433,-1.0153 -0.543409,-1.53738 -0.15311,-0.52841 -0.291977,-1.06126 -0.391218,-1.60274 -0.0992,-0.55011 -0.17788,-1.10354 -0.230204,-1.6602 -0.04869,-0.57939 -0.07877,-1.16068 -0.0776,-1.74227 0.0078,-0.60494 0.02293,-1.20964 0.08264,-1.81217 0.06048,-0.618 0.137817,-1.234587 0.244937,-1.846374 0.117344,-0.62007 0.248578,-1.237153 0.430144,-1.842189 0.186232,-0.609063 0.385218,-1.21341 0.627951,-1.802818 0.250921,-0.593252 0.512323,-1.182451 0.818035,-1.749993 0.308789,-0.58152 0.640096,-1.150796 0.999273,-1.702827 0.363031,-0.55655 0.736104,-1.106766 1.146457,-1.629952 0.409746,-0.515738 0.822777,-1.030518 1.278345,-1.507001 0.450617,-0.472062 0.912816,-0.932451 1.399032,-1.368137 2.480451,-2.084786 4.906906,-4.309786 7.537256,-6.233573 0.520438,-0.375072 1.04473,-0.745084 1.587215,-1.087903 0.519808,-0.321672 1.045978,-0.633704 1.589942,-0.913174 0.507043,-0.256886 1.016302,-0.509712 1.538767,-0.734151 0.459485,-0.195475 0.919677,-0.390211 1.389309,-0.560316 0.398505,-0.140528 0.80249,-0.266288 1.210742,-0.375463 0.305899,-0.0755 0.615352,-0.128956 0.927333,-0.17289 0.182711,-0.01505 0.365641,-0.02078 0.548381,-0.01086 0,0 -5.689025,5.689024 -5.689025,5.689024 z"
       inkscape:connector-curvature="0"
       transform="translate(0,902.36218)" />
    <path
       style="fill:#ffcc00;fill-opacity:1;fill-rule:nonzero"
       id="path2999-2"
       d="m 80.488689,932.63035 c -0.148291,0.004 -0.295992,0.0426 -0.440622,0.0779 -0.289076,0.0366 -0.564283,0.13196 -0.841053,0.21835 -0.389413,0.11544 -0.768663,0.25788 -1.14536,0.4087 -0.451378,0.18591 -0.901543,0.37472 -1.343897,0.5813 -0.504974,0.23693 -1.002464,0.48999 -1.489149,0.76255 -0.524774,0.29562 -1.036218,0.61437 -1.533905,0.95346 -0.528189,0.3551 -1.039496,0.73428 -1.551194,1.11251 -2.316401,1.82183 -5.812013,4.84127 4.497673,-3.80754 -0.497124,0.41638 -0.971407,0.85893 -1.434149,1.3129 -0.468323,0.45486 -0.899012,0.94504 -1.318503,1.44456 -0.422514,0.50167 -0.811652,1.02979 -1.185715,1.56814 -0.368282,0.53304 -0.708394,1.08462 -1.033869,1.64459 -0.31395,0.54722 -0.594353,1.11253 -0.855949,1.68633 -0.255573,0.56528 -0.475561,1.14579 -0.672755,1.73372 -0.19497,0.58007 -0.347118,1.17288 -0.47799,1.77027 -0.128076,0.58958 -0.210616,1.18748 -0.284556,1.78582 -0.0697,0.58161 -0.10441,1.16632 -0.12059,1.75161 -0.0172,0.56035 0.005,1.12068 0.0385,1.67995 0.0356,0.53525 0.10543,1.06742 0.18841,1.59713 0.0826,0.51816 0.204194,1.02878 0.340998,1.53497 0.136791,0.5006 0.310135,0.98987 0.49571,1.47414 0.184695,0.48049 0.412653,0.94239 0.649638,1.39879 0.237098,0.45602 0.507524,0.89273 0.789555,1.32194 0.283695,0.42854 0.594214,0.83783 0.916804,1.23754 0.322954,0.39678 0.672936,0.77025 1.028053,1.13811 0.353688,0.36137 0.734062,0.69452 1.125286,1.01428 0.390255,0.3091 0.801156,0.59017 1.219743,0.85909 0.417674,0.26286 0.858031,0.48628 1.307323,0.68932 0.458618,0.20647 0.9339,0.3723 1.411209,0.5294 0.480034,0.14852 0.970728,0.25967 1.463982,0.35395 0.496637,0.0995 0.998923,0.16254 1.503702,0.20039 0.512345,0.0311 1.025475,0.0322 1.538139,0.0112 0.528346,-0.009 1.052474,-0.0764 1.576374,-0.13864 0.528303,-0.0706 1.05321,-0.16519 1.574289,-0.27682 0.516872,-0.10557 1.029709,-0.23201 1.536808,-0.37736 0.499413,-0.1446 0.994794,-0.30214 1.485081,-0.47515 0.482416,-0.16398 0.960188,-0.3428 1.430399,-0.53911 0.462363,-0.19831 0.919258,-0.40837 1.369389,-0.63304 0.43681,-0.23073 0.869824,-0.4684 1.29184,-0.72534 0.421761,-0.25402 0.824973,-0.53683 1.228045,-0.81909 0.406241,-0.28893 0.795985,-0.59975 1.177688,-0.92013 2.943279,-2.42987 -8.060913,6.85175 -4.895006,4.10157 0.366359,-0.31949 0.713442,-0.66022 1.053948,-1.00688 0.336707,-0.34952 0.660883,-0.71049 0.971253,-1.08353 0.311611,-0.36864 0.604986,-0.75185 0.888395,-1.14241 0.280089,-0.38675 0.532397,-0.79228 0.789666,-1.19426 0.255218,-0.3964 0.491201,-0.80453 0.718696,-1.21731 0.226684,-0.41328 0.432953,-0.83717 0.631983,-1.2643 0.200437,-0.4252 0.376562,-0.86062 0.541235,-1.30067 0.163811,-0.4415 0.312838,-0.88809 0.447257,-1.33934 0.136101,-0.45291 0.249871,-0.91167 0.354798,-1.37263 0.101659,-0.45143 0.185786,-0.90672 0.26062,-1.3633 0.07591,-0.44694 0.126345,-0.89726 0.167273,-1.34855 0.04579,-0.44401 0.05448,-0.89035 0.05768,-1.33631 0.0025,-0.45151 -0.0241,-0.90213 -0.06086,-1.35191 -0.03688,-0.45276 -0.0953,-0.90313 -0.169042,-1.35124 -0.07304,-0.44472 -0.168461,-0.88502 -0.278723,-1.32184 -0.106614,-0.42053 -0.239795,-0.83361 -0.377149,-1.24491 -0.134683,-0.39354 -0.286686,-0.78068 -0.455848,-1.1606 -0.163367,-0.3693 -0.361218,-0.7212 -0.574237,-1.06372 -0.206683,-0.33141 -0.449816,-0.63698 -0.697935,-0.93774 -0.249473,-0.30197 -0.524735,-0.58064 -0.809127,-0.84942 -0.289179,-0.2721 -0.590555,-0.53005 -0.895163,-0.78454 -0.307481,-0.2568 -0.632644,-0.49084 -0.963746,-0.7159 -0.341295,-0.23096 -0.690496,-0.44926 -1.046254,-0.65713 -0.361728,-0.21011 -0.734915,-0.39923 -1.111414,-0.58117 -0.377436,-0.18516 -0.767002,-0.34255 -1.158951,-0.49376 -0.394926,-0.15421 -0.799383,-0.28174 -1.198476,-0.42423 -0.403498,-0.14435 -0.811787,-0.27455 -1.221652,-0.39945 -0.416678,-0.12414 -0.834917,-0.24375 -1.258215,-0.34326 -0.423114,-0.0992 -0.848479,-0.18832 -1.274527,-0.27391 -0.4328,-0.0894 -0.868056,-0.16394 -1.30514,-0.2286 -0.439642,-0.065 -0.8802,-0.12342 -1.321041,-0.17957 -0.451805,-0.0573 -0.904329,-0.10858 -1.357054,-0.15796 -0.225696,-0.0299 -0.452944,-0.0417 -0.680118,-0.0528 0,0 5.676118,-5.59318 5.676118,-5.59318 l 0,0 c 0.233815,0.0229 0.467425,0.0474 0.700789,0.0745 0.456745,0.0522 0.913267,0.10647 1.368973,0.16717 0.446656,0.0598 0.893128,0.12153 1.337854,0.19454 0.445052,0.076 0.888154,0.16305 1.330275,0.25449 0.43517,0.092 0.869901,0.18694 1.300276,0.29964 0.43125,0.11764 0.861766,0.23825 1.28784,0.37368 0.416161,0.13266 0.830147,0.27185 1.241545,0.41866 0.410292,0.14088 0.819695,0.28479 1.221794,0.4479 0.406537,0.1664 0.808059,0.34474 1.201063,0.54122 0.391191,0.19662 0.778705,0.40084 1.154128,0.62645 0.367765,0.22201 0.73021,0.45272 1.084137,0.6963 0.347453,0.24354 0.688348,0.49647 1.012893,0.77011 0.317804,0.26562 0.628618,0.53919 0.929688,0.82372 0.30467,0.29281 0.59983,0.59564 0.86975,0.92121 0.27135,0.32666 0.53478,0.66042 0.76321,1.01908 0.23459,0.37014 0.4543,0.74971 0.63904,1.14758 0.18656,0.40005 0.35485,0.80775 0.50236,1.22392 0.14966,0.42798 0.28931,0.85967 0.41175,1.29627 0.11949,0.45532 0.23568,0.91132 0.31624,1.37555 0.083,0.46557 0.165,0.93126 0.20837,1.40266 0.0446,0.46581 0.0916,0.93214 0.0992,1.4004 0.0132,0.4658 0.0105,0.93227 -0.0141,1.39768 -0.0356,0.46542 -0.0686,0.9316 -0.13699,1.39365 -0.0668,0.47079 -0.14362,0.93985 -0.23441,1.40668 -0.099,0.47306 -0.19646,0.94686 -0.32654,1.41259 -0.12562,0.46529 -0.25468,0.92957 -0.41664,1.38386 -0.15632,0.45523 -0.31322,0.91091 -0.50726,1.35179 -0.19,0.44085 -0.38685,0.87884 -0.60326,1.30748 -0.21715,0.42799 -0.44192,0.85229 -0.68877,1.26406 -0.24978,0.41373 -0.51126,0.82027 -0.76917,1.22894 -0.27109,0.40838 -0.55105,0.81111 -0.85594,1.19523 -0.306455,0.38274 -0.607291,0.77067 -0.942645,1.12909 -0.327077,0.3669 -0.667093,0.72169 -1.020544,1.06335 -2.264767,2.14054 -4.717779,4.0743 -7.149971,6.02145 -0.398946,0.30567 -0.803682,0.60383 -1.224437,0.87911 -0.415272,0.27497 -0.837062,0.54013 -1.273694,0.78021 -0.439112,0.23903 -0.880445,0.47508 -1.336047,0.68152 -0.464483,0.21088 -0.932706,0.41447 -1.4101,0.59456 -0.483738,0.1782 -0.968726,0.35277 -1.460109,0.509 -0.503579,0.15736 -1.00849,0.31111 -1.520502,0.43913 -0.521715,0.12561 -1.044942,0.24477 -1.573273,0.33964 -0.537882,0.0937 -1.077546,0.17918 -1.621356,0.23072 -0.541162,0.0539 -1.083941,0.0873 -1.627992,0.0896 -0.53588,-8.4e-4 -1.072402,-0.0161 -1.60536,-0.076 -0.525373,-0.0635 -1.04824,-0.14648 -1.564957,-0.26183 -0.516316,-0.11798 -1.031092,-0.24627 -1.530631,-0.4241 -0.498954,-0.17607 -0.994182,-0.36474 -1.47152,-0.594 -0.474017,-0.23145 -0.94101,-0.47799 -1.38083,-0.77049 -0.439322,-0.2901 -0.870836,-0.59259 -1.277706,-0.9273 -0.41146,-0.34269 -0.8114,-0.69917 -1.18489,-1.08337 -0.36967,-0.38538 -0.7338,-0.77653 -1.07064,-1.19131 -0.33984,-0.41858 -0.66634,-0.84773 -0.9654,-1.2967 -0.2992,-0.44972 -0.58831,-0.90614 -0.8403,-1.38444 -0.25391,-0.47952 -0.50064,-0.96401 -0.70415,-1.46747 -0.20136,-0.50505 -0.39043,-1.0153 -0.54341,-1.53738 -0.15311,-0.52841 -0.29198,-1.06126 -0.39122,-1.60274 -0.0992,-0.55011 -0.17788,-1.10354 -0.2302,-1.6602 -0.0487,-0.57939 -0.0788,-1.16068 -0.0776,-1.74227 0.008,-0.60486 0.0229,-1.20956 0.0826,-1.81209 0.0605,-0.618 0.13782,-1.23458 0.24494,-1.84637 0.11734,-0.62007 0.24857,-1.23715 0.43014,-1.84219 0.18623,-0.60906 0.38522,-1.21341 0.62795,-1.80282 0.25092,-0.59325 0.51232,-1.18245 0.81804,-1.74999 0.30878,-0.58152 0.64009,-1.1508 0.99927,-1.70283 0.36303,-0.55655 0.7361,-1.10676 1.14646,-1.62995 0.40974,-0.51574 0.82277,-1.03052 1.27834,-1.507 0.45062,-0.47206 0.91282,-0.93245 1.399032,-1.36814 2.480451,-2.08478 4.906906,-4.30978 7.537256,-6.23357 0.520438,-0.37507 1.04473,-0.74509 1.587215,-1.0879 0.519808,-0.32168 1.045978,-0.63371 1.589942,-0.91318 0.507043,-0.25688 1.016302,-0.50971 1.538767,-0.73415 0.459485,-0.19547 0.919677,-0.39021 1.389309,-0.56032 0.398505,-0.14052 0.80249,-0.26628 1.210742,-0.37546 0.305899,-0.0755 0.615352,-0.12895 0.927333,-0.17289 0.182711,-0.015 0.365641,-0.0208 0.548381,-0.0109 0,0 -5.689025,5.68903 -5.689025,5.68903 z"
       inkscape:connector-curvature="0" />
    <path
       style="fill:#ffcc00;fill-opacity:1;fill-rule:nonzero"
       id="path3023"
       d="m 53.063769,1011.6474 c 0.147248,-0.05 0.310181,-0.039 0.464744,-0.045 0.224989,-0.01 0.449994,-0.013 0.675005,-0.02 0.282682,-0.021 0.565442,-0.048 0.849087,-0.066 0.339408,-0.014 0.675425,-0.062 1.013819,-0.09 0.378552,-0.017 0.752178,-0.073 1.128197,-0.1145 0.393423,-0.043 0.783287,-0.1121 1.173703,-0.1754 0.422277,-0.063 0.840051,-0.1497 1.258288,-0.2335 0.431981,-0.083 0.858472,-0.1884 1.285983,-0.2899 0.449417,-0.09 0.885641,-0.2289 1.325758,-0.353 0.47347,-0.1408 0.942233,-0.2954 1.413688,-0.4423 0.484858,-0.1644 0.963991,-0.3433 1.44528,-0.517 0.492083,-0.192 0.97923,-0.3955 1.457737,-0.6172 0.501057,-0.2241 0.988594,-0.4735 1.471862,-0.7315 0.506324,-0.2637 1.001762,-0.5461 1.503788,-0.8173 0.494785,-0.2836 0.9889,-0.5685 1.487356,-0.8461 0.486348,-0.2939 0.983614,-0.5708 1.466071,-0.8707 0.49309,-0.2941 0.982067,-0.5949 1.46496,-0.9047 0.495865,-0.3269 0.971547,-0.6811 1.458533,-1.0199 0.498825,-0.3544 0.982732,-0.7284 1.467659,-1.1004 3.630384,-2.8848 8.420747,-6.83024 -8.485025,6.912 0.505129,-0.4002 0.996356,-0.8162 1.482697,-1.2377 0.494111,-0.435 0.995014,-0.8628 1.485932,-1.3013 0.494979,-0.4434 0.97977,-0.8977 1.472913,-1.3431 0.498145,-0.4543 0.992797,-0.9123 1.484526,-1.3731 0.494067,-0.4742 0.982898,-0.9536 1.461546,-1.4423 0.482925,-0.4876 0.947812,-0.9912 1.407773,-1.4989 0.457626,-0.5089 0.899018,-1.0309 1.335465,-1.55689 0.431573,-0.52697 0.84626,-1.06636 1.257025,-1.60864 0.394323,-0.53888 0.787485,-1.07895 1.165045,-1.62909 0.380437,-0.54084 0.736875,-1.09678 1.09243,-1.65313 0.349618,-0.55769 0.688631,-1.12167 1.018169,-1.69071 0.323015,-0.57289 0.642651,-1.14743 0.943535,-1.73158 0.307761,-0.58133 0.595646,-1.17212 0.885177,-1.76208 0.287181,-0.59263 0.562219,-1.19087 0.82982,-1.79203 0.276691,-0.60491 0.539223,-1.21575 0.809861,-1.82319 0.27138,-0.60816 0.533207,-1.22029 0.793135,-1.83312 0.253804,-0.61477 0.50428,-1.23089 0.747555,-1.84968 0.240776,-0.61336 0.462023,-1.23361 0.675921,-1.85617 0.212069,-0.61965 0.40593,-1.24489 0.593361,-1.87188 0.186303,-0.62345 0.35374,-1.25192 0.520505,-1.88046 0.154658,-0.62514 0.294046,-1.25398 0.418146,-1.8855 0.120043,-0.63437 0.22364,-1.27153 0.324578,-1.90898 0.09798,-0.6369 0.195704,-1.27396 0.277721,-1.91302 0.07796,-0.63325 0.144059,-1.26772 0.19793,-1.90331 0.0087,-0.10325 0.01717,-0.20653 0.02575,-0.30981 0,0 10.681655,-7.42637 10.681655,-7.42637 l 0,0 c -0.005,0.10821 -0.0103,0.21643 -0.0152,0.32464 -0.0477,0.64856 -0.0972,1.29687 -0.17289,1.94308 -0.0691,0.65152 -0.15108,1.30128 -0.25158,1.94907 -0.096,0.64655 -0.19549,1.29263 -0.30404,1.93734 -0.10949,0.65068 -0.23337,1.29852 -0.37834,1.94279 -0.14045,0.64754 -0.31409,1.28769 -0.48845,1.92732 -0.178747,0.64018 -0.363625,1.2788 -0.565853,1.91245 -0.204184,0.63729 -0.415249,1.27258 -0.645886,1.90141 -0.232002,0.62985 -0.477441,1.25456 -0.728597,1.87741 -0.248893,0.6235 -0.513389,1.24071 -0.775166,1.8592 -0.266703,0.61029 -0.540759,1.21753 -0.803606,1.82942 -0.274044,0.60381 -0.537539,1.2121 -0.813101,1.8153 -0.279023,0.60177 -0.569781,1.19844 -0.863403,1.79361 -0.303631,0.58993 -0.589874,1.18857 -0.920404,1.76521 -0.314148,0.58759 -0.643403,1.16687 -0.986809,1.73887 -0.342171,0.57355 -0.697543,1.13978 -1.061897,1.70031 -0.376934,0.55875 -0.749964,1.11962 -1.144992,1.66659 -0.395212,0.56103 -0.803942,1.11338 -1.227539,1.65461 -0.419839,0.54648 -0.853434,1.08337 -1.304074,1.60632 -0.446559,0.52653 -0.90275,1.04531 -1.375279,1.55015 -0.472532,0.49786 -0.944164,0.99658 -1.436321,1.47644 -0.4756,0.47868 -0.965551,0.94334 -1.462294,1.40138 -0.485251,0.45368 -0.978969,0.89928 -1.469767,1.34732 -0.482274,0.4484 -0.965544,0.8964 -1.470522,1.321 -0.481618,0.4274 -0.959269,0.8591 -1.453191,1.273 -3.78828,3.0801 -7.521554,6.3005 -11.448282,9.2465 -0.496238,0.3669 -0.996628,0.7284 -1.509005,1.0739 -0.492245,0.3435 -0.997211,0.6704 -1.512947,0.9798 -0.494066,0.2992 -0.989556,0.5961 -1.487564,0.8889 -0.497321,0.283 -0.987407,0.5781 -1.490243,0.8518 -0.497271,0.284 -0.997011,0.5638 -1.503783,0.8315 -0.505498,0.2749 -1.01892,0.5362 -1.534889,0.7921 -0.506183,0.2403 -1.018731,0.468 -1.537401,0.6817 -0.503806,0.1991 -1.008935,0.3954 -1.523735,0.5666 -0.491087,0.1727 -0.987249,0.3332 -1.486526,0.4823 -0.481428,0.1499 -0.96644,0.2896 -1.454782,0.4168 -0.454625,0.1204 -0.915735,0.2151 -1.374218,0.3202 -0.438987,0.096 -0.880953,0.1777 -1.323135,0.258 -0.431414,0.077 -0.865206,0.1407 -1.298783,0.2049 -0.405229,0.057 -0.812204,0.1013 -1.219567,0.1407 -0.382607,0.041 -0.766854,0.061 -1.149279,0.1045 -0.346874,0.033 -0.694003,0.056 -1.041547,0.081 -0.29578,0.026 -0.591245,0.048 -0.888101,0.052 -0.221771,0.013 -0.443535,0.029 -0.664571,0.052 -0.163396,0.018 -0.32868,0.052 -0.4929,0.03 0,0 9.345728,-9.1482 9.345728,-9.1482 z"
       inkscape:connector-curvature="0" />
  </g>
</svg>
