<?xml version="1.0" encoding="UTF-8" standalone="no"?>
<!-- Created with Inkscape (http://www.inkscape.org/) -->

<svg
   xmlns:dc="http://purl.org/dc/elements/1.1/"
   xmlns:cc="http://creativecommons.org/ns#"
   xmlns:rdf="http://www.w3.org/1999/02/22-rdf-syntax-ns#"
   xmlns:svg="http://www.w3.org/2000/svg"
   xmlns="http://www.w3.org/2000/svg"
   xmlns:sodipodi="http://sodipodi.sourceforge.net/DTD/sodipodi-0.dtd"
   xmlns:inkscape="http://www.inkscape.org/namespaces/inkscape"
   width="120"
   height="150"
   id="svg7747"
   version="1.1"
   inkscape:version="0.48.4 r9939"
   sodipodi:docname="team.svg">
  <defs
     id="defs7749" />
  <sodipodi:namedview
     id="base"
     pagecolor="#ffffff"
     bordercolor="#666666"
     borderopacity="1.0"
     inkscape:pageopacity="0.0"
     inkscape:pageshadow="2"
     inkscape:zoom="1"
     inkscape:cx="60"
     inkscape:cy="75"
     inkscape:document-units="px"
     inkscape:current-layer="layer1"
     showgrid="false"
     inkscape:window-width="1292"
     inkscape:window-height="745"
     inkscape:window-x="-8"
     inkscape:window-y="-8"
     inkscape:window-maximized="1" />
  <metadata
     id="metadata7752">
    <rdf:RDF>
      <cc:Work
         rdf:about="">
        <dc:format>image/svg+xml</dc:format>
        <dc:type
           rdf:resource="http://purl.org/dc/dcmitype/StillImage" />
        <dc:title />
      </cc:Work>
    </rdf:RDF>
  </metadata>
  <g
     inkscape:label="Ebene 1"
     inkscape:groupmode="layer"
     id="layer1"
     transform="translate(0,-902.36218)">
    <path
       style="fill:#ffcc00;fill-opacity:1;fill-rule:nonzero"
       id="path7849"
       d="m 18.988512,966.93393 c -0.179602,-0.004 -0.358719,-0.002 -0.538426,-5e-4 -0.378824,0.0227 -0.756123,0.066 -1.132601,0.12363 -0.532771,0.0888 -1.057791,0.23685 -1.580258,0.39378 -0.628127,0.20552 -1.244221,0.46512 -1.851816,0.75246 -0.669696,0.32202 -1.322443,0.69651 -1.966749,1.09253 -0.689799,0.43384 -1.359905,0.91375 -2.0160658,1.42429 -0.678498,0.53965 -1.322772,1.14307 -1.948532,1.77622 -2.2790196,2.47039 -5.2353234,5.57222 5.7058618,-6.07122 0.102773,-0.10937 -0.202956,0.22262 -0.303338,0.33551 -0.280171,0.3151 -0.317571,0.36404 -0.590684,0.68869 -0.579059,0.69783 -1.115836,1.44921 -1.629133,2.22491 -0.499521,0.75739 -0.941706,1.56945 -1.3534338,2.40655 -0.391136,0.80013 -0.711237,1.64872 -0.989645,2.52024 -0.263934,0.81883 -0.430629,1.6773 -0.559899,2.54438 -0.113869,0.81321 -0.147114,1.63765 -0.135561,2.46199 0.01343,0.78383 0.108555,1.55713 0.24483,2.31999 0.13693,0.74607 0.35969,1.45774 0.61401,2.15 0.257339,0.6893 0.590258,1.32318 0.954232,1.92737 0.3802748,0.6283 0.8335188,1.1715 1.3056498,1.68551 0.506385,0.53609 1.060694,0.98981 1.629309,1.41029 0.608007,0.44865 1.25419,0.79928 1.907952,1.12312 0.703874,0.34617 1.430978,0.60016 2.161288,0.83681 0.756948,0.24097 1.527534,0.39848 2.300474,0.52785 0.775457,0.12646 1.556287,0.17935 2.337278,0.20626 0.780237,0.0308 1.559122,-0.0232 2.336494,-0.10191 0.76707,-0.0721 1.526191,-0.22426 2.282112,-0.3998 0.720147,-0.16776 1.429296,-0.39806 2.134025,-0.6481 0.654412,-0.23403 1.294036,-0.52683 1.925648,-0.84494 0.589748,-0.27247 1.157248,-0.61314 1.715927,-0.97442 0.516669,-0.33613 1.011334,-0.72213 1.495677,-1.12765 0.445039,-0.40699 0.867757,-0.85068 1.279529,-1.31019 -11.763095,11.66713 -7.782863,8.61169 -5.496075,5.78544 0.356237,-0.44028 0.680464,-0.91816 0.986801,-1.41462 0.286097,-0.47113 0.548188,-0.96417 0.788312,-1.47484 0.226411,-0.4873 0.419647,-0.99742 0.607023,-1.51023 0.174274,-0.49633 0.317839,-1.00868 0.449889,-1.52524 0.128888,-0.49305 0.22601,-0.99698 0.305876,-1.50603 0.07549,-0.50936 0.125165,-1.0232 0.162472,-1.53903 0.03873,-0.52024 0.02682,-1.04281 0.0064,-1.56375 -0.02564,-0.53422 -0.08237,-1.06476 -0.154906,-1.59163 -0.07703,-0.55199 -0.197154,-1.09145 -0.323547,-1.62779 -0.129238,-0.54064 -0.273391,-1.07516 -0.428779,-1.60448 -0.154932,-0.52612 -0.344344,-1.03361 -0.546732,-1.53244 -0.198381,-0.48647 -0.433143,-0.946 -0.681727,-1.39286 -0.244135,-0.43528 -0.519699,-0.83918 -0.805798,-1.23019 -0.279568,-0.38562 -0.592909,-0.72669 -0.912752,-1.05644 -0.315621,-0.31799 -0.649004,-0.60529 -0.987825,-0.88137 -0.346379,-0.26676 -0.706233,-0.50326 -1.069189,-0.73101 -0.37946,-0.23654 -0.768057,-0.44791 -1.159129,-0.65117 -0.408771,-0.19798 -0.819003,-0.3903 -1.232791,-0.57075 -0.426002,-0.19958 -0.855186,-0.38793 -1.283779,-0.57826 -0.440487,-0.18504 -0.879307,-0.37629 -1.319857,-0.56108 -0.434018,-0.1694 -0.871793,-0.32242 -1.310775,-0.46947 -0.451733,-0.14608 -0.903326,-0.29229 -1.357716,-0.4244 -0.226477,-0.065 -0.453471,-0.12705 -0.68026,-0.19028 0,0 6.383995,-7.7644 6.383995,-7.7644 l 0,0 c 0.229267,0.0664 0.458676,0.13205 0.687202,0.2025 0.460159,0.14402 0.919755,0.29138 1.377225,0.4487 0.451529,0.1591 0.902276,0.32314 1.345428,0.51719 0.443418,0.18998 0.888157,0.37502 1.329703,0.57198 0.428935,0.19114 0.85801,0.38169 1.285692,0.57734 0.426678,0.19451 0.852084,0.39457 1.270363,0.61684 0.406548,0.22126 0.8103,0.45127 1.20391,0.70798 0.387149,0.25428 0.771455,0.51736 1.135606,0.82256 0.361226,0.30538 0.716947,0.62218 1.05043,0.97562 0.346779,0.36748 0.68408,0.74972 0.989605,1.17325 0.310479,0.42817 0.610061,0.86952 0.877749,1.34276 0.272974,0.48617 0.532052,0.98523 0.754368,1.51213 0.223537,0.53222 0.434439,1.07321 0.610621,1.63395 0.170847,0.54712 0.327786,1.1009 0.464906,1.66329 0.143526,0.56752 0.279202,1.13901 0.383117,1.72064 0.09613,0.56045 0.173759,1.12485 0.219565,1.69589 0.04485,0.56021 0.07097,1.12356 0.06682,1.68684 -0.01369,0.54659 -0.04453,1.09251 -0.109685,1.63345 -0.05757,0.54741 -0.127495,1.09308 -0.243301,1.6262 -0.119164,0.54628 -0.247098,1.08976 -0.4028,1.62133 -0.160269,0.5533 -0.350349,1.0912 -0.556559,1.6193 -0.220781,0.54878 -0.451483,1.09151 -0.731046,1.5966 -0.287881,0.53612 -0.585757,1.06518 -0.929528,1.5466 -2.299993,3.25096 -5.456072,5.42122 -7.809243,8.54797 -0.437092,0.4331 -0.883419,0.8544 -1.365963,1.20334 -0.508047,0.37577 -1.025404,0.73169 -1.562076,1.03778 -0.579343,0.32846 -1.168276,0.62668 -1.766311,0.89601 -0.651857,0.28713 -1.310524,0.54939 -1.980888,0.75844 -0.722133,0.22541 -1.449563,0.42398 -2.184758,0.56826 -0.776607,0.1492 -1.55711,0.26387 -2.341747,0.31787 -0.799593,0.052 -1.60044,0.071 -2.400516,0.018 -0.803446,-0.053 -1.606207,-0.1323 -2.401882,-0.28854 -0.797081,-0.16002 -1.590924,-0.34912 -2.3704,-0.61764 -0.7588548,-0.26164 -1.5110758,-0.5553 -2.2407778,-0.93 -0.689973,-0.35905 -1.3681617,-0.75575 -2.0087526,-1.24325 -0.604821,-0.4679 -1.1968793,-0.96551 -1.7358461,-1.55168 -0.5136615,-0.56788 -1.0056032,-1.16867 -1.4254913,-1.8526 -0.4039267,-0.66262 -0.7769159,-1.35508 -1.0712825,-2.10748 -0.2907691,-0.75083 -0.5505356,-1.52181 -0.7243959,-2.331 -0.1721014,-0.81992 -0.3060097,-1.65273 -0.346037,-2.50193 -0.046973,-0.8842 -0.047759,-1.77028 0.040394,-2.65124 0.094434,-0.92669 0.2322971,-1.84817 0.4651877,-2.73647 0.2529072,-0.92235 0.5348709,-1.83266 0.913407,-2.68556 0.3848261,-0.88432 0.8023318,-1.7455 1.2892117,-2.54621 0.4919428,-0.81511 1.0112353,-1.60209 1.574577,-2.33978 2.5890119,-3.35621 5.5249258,-6.25702 8.4470198,-9.13249 0.654792,-0.60482 1.323867,-1.18595 2.029557,-1.69181 0.681107,-0.48727 1.372502,-0.95278 2.085822,-1.35998 0.66908,-0.37602 1.343673,-0.73788 2.039164,-1.02886 0.63796,-0.26183 1.280459,-0.50962 1.938452,-0.67788 0.552977,-0.14369 1.109424,-0.2707 1.672428,-0.33111 0.408521,-0.045 0.818627,-0.085 1.228984,-0.0725 0.215308,0.005 0.433268,0.0159 0.645283,0.0664 0,0 -6.385822,7.90369 -6.385822,7.90369 z"
       inkscape:connector-curvature="0" />
    <path
       style="fill:#ffcc00;fill-opacity:1;fill-rule:nonzero"
       id="path7849-8"
       d="m 88.568301,958.07194 c -0.268084,-0.005 -0.535445,-0.003 -0.803685,-7.5e-4 -0.565453,0.0339 -1.12863,0.0985 -1.690581,0.18454 -0.795242,0.13259 -1.578914,0.35354 -2.358777,0.58778 -0.937575,0.30677 -1.85719,0.69426 -2.764118,1.12316 -0.999624,0.48066 -1.973948,1.03965 -2.935674,1.63077 -1.029632,0.64758 -2.029868,1.3639 -3.009288,2.12597 -1.012762,0.8055 -1.97444,1.7062 -2.908482,2.65128 -3.401786,3.68744 -7.814523,8.31738 8.516873,-9.06223 0.153405,-0.16325 -0.302943,0.33229 -0.452779,0.5008 -0.418197,0.47034 -0.474023,0.54339 -0.881685,1.02798 -0.864336,1.04161 -1.665558,2.16316 -2.431732,3.32102 -0.745612,1.13052 -1.405641,2.34265 -2.020208,3.59214 -0.58383,1.19431 -1.061629,2.46097 -1.477196,3.76185 -0.393962,1.22223 -0.64278,2.50362 -0.835734,3.79787 -0.169967,1.21385 -0.219591,2.44445 -0.202346,3.6749 0.02005,1.16998 0.162035,2.32425 0.365446,3.46294 0.204389,1.11362 0.536893,2.1759 0.916504,3.2092 0.384117,1.02889 0.88105,1.97505 1.424337,2.8769 0.567619,0.93783 1.244156,1.74864 1.948883,2.51588 0.755856,0.8002 1.583248,1.47745 2.431994,2.10508 0.907543,0.66967 1.87207,1.19304 2.84791,1.67642 1.05064,0.51671 2.135953,0.89584 3.226053,1.24907 1.129861,0.35968 2.280079,0.5948 3.43381,0.7879 1.157488,0.18876 2.322996,0.2677 3.488745,0.30788 1.164625,0.0459 2.327229,-0.0346 3.487575,-0.15213 1.14497,-0.10761 2.27808,-0.33474 3.4064,-0.59676 1.074934,-0.2504 2.133454,-0.59416 3.185364,-0.96738 0.97681,-0.34933 1.93155,-0.78638 2.87433,-1.2612 0.88029,-0.40671 1.72737,-0.91521 2.56128,-1.45447 0.77121,-0.50173 1.50957,-1.0779 2.23253,-1.6832 0.66428,-0.60749 1.29526,-1.26977 1.90989,-1.95566 -17.558224,17.41491 -11.61712,12.85429 -8.20373,8.63566 0.53174,-0.65719 1.01569,-1.3705 1.47295,-2.11154 0.42704,-0.70324 0.81825,-1.43918 1.17667,-2.20142 0.33796,-0.72738 0.62639,-1.48881 0.90608,-2.25426 0.26013,-0.74085 0.47442,-1.5056 0.67153,-2.27665 0.19238,-0.73594 0.33735,-1.48815 0.45657,-2.24797 0.11268,-0.76031 0.18683,-1.52729 0.2425,-2.29725 0.0578,-0.77653 0.0401,-1.55655 0.009,-2.33414 -0.0383,-0.79739 -0.12297,-1.58932 -0.23121,-2.37574 -0.11496,-0.82394 -0.29428,-1.62916 -0.48295,-2.42974 -0.19291,-0.80698 -0.40808,-1.60483 -0.64002,-2.39492 -0.23126,-0.78532 -0.51398,-1.54282 -0.81608,-2.28741 -0.29611,-0.72613 -0.64653,-1.41204 -1.01758,-2.07906 -0.36441,-0.64971 -0.77573,-1.2526 -1.20278,-1.83624 -0.4173,-0.57559 -0.885,-1.0847 -1.36242,-1.5769 -0.47111,-0.47464 -0.96874,-0.90348 -1.47448,-1.31558 -0.51702,-0.39818 -1.05416,-0.75118 -1.595934,-1.09114 -0.5664,-0.35307 -1.14644,-0.66858 -1.73018,-0.97197 -0.61015,-0.29551 -1.22248,-0.58258 -1.840126,-0.85194 -0.635872,-0.2979 -1.276496,-0.57904 -1.916236,-0.86314 -0.657495,-0.27619 -1.3125,-0.56166 -1.970089,-0.83749 -0.647839,-0.25285 -1.301286,-0.48127 -1.956532,-0.70076 -0.674282,-0.21804 -1.348353,-0.43629 -2.0266,-0.63348 -0.338052,-0.0971 -0.676876,-0.18964 -1.015392,-0.28403 0,0 9.529085,-11.58955 9.529085,-11.58955 l 0,0 c 0.34222,0.0991 0.68465,0.19711 1.02576,0.30227 0.68686,0.21496 1.37287,0.43492 2.055724,0.66974 0.67398,0.23748 1.34678,0.48234 2.00826,0.77199 0.66186,0.28357 1.32571,0.55978 1.98478,0.85377 0.64025,0.28531 1.28071,0.56973 1.91909,0.86177 0.63689,0.29033 1.27187,0.58896 1.89622,0.92073 0.60684,0.33026 1.20949,0.67359 1.79701,1.05676 0.57788,0.37955 1.15152,0.77225 1.69506,1.2278 0.53919,0.45583 1.07016,0.9287 1.56793,1.45626 0.51763,0.54852 1.02111,1.11908 1.47714,1.75126 0.46344,0.6391 0.91061,1.2979 1.31018,2.00428 0.40745,0.72568 0.79417,1.47059 1.12601,2.25708 0.33367,0.79442 0.64847,1.60193 0.91145,2.43892 0.25501,0.81667 0.48926,1.64326 0.69394,2.48272 0.21423,0.8471 0.41675,1.70015 0.57187,2.56831 0.14347,0.83656 0.25935,1.67902 0.32772,2.53138 0.0669,0.8362 0.10588,1.67708 0.0997,2.51787 -0.0204,0.81586 -0.0665,1.63074 -0.16372,2.43817 -0.086,0.8171 -0.19031,1.6316 -0.36316,2.42735 -0.17787,0.81541 -0.36884,1.62664 -0.60125,2.42008 -0.23922,0.82589 -0.52294,1.62879 -0.83075,2.41705 -0.32954,0.81915 -0.67391,1.62926 -1.0912,2.38318 -0.4297,0.80024 -0.87433,1.58995 -1.38745,2.30853 -3.4331,4.85257 -8.14403,8.09201 -11.6565,12.75922 -0.65243,0.64638 -1.31864,1.27528 -2.03891,1.79608 -0.75833,0.5609 -1.530574,1.0922 -2.331634,1.549 -0.86476,0.4903 -1.74384,0.9355 -2.636494,1.3375 -0.972997,0.4286 -1.956159,0.82 -2.956779,1.1321 -1.077895,0.3364 -2.163694,0.6328 -3.261087,0.8482 -1.159205,0.2227 -2.324224,0.3939 -3.495415,0.4745 -1.193515,0.077 -2.388903,0.1055 -3.583138,0.027 -1.199267,-0.079 -2.39751,-0.1975 -3.585177,-0.4307 -1.189765,-0.2389 -2.374698,-0.5211 -3.538186,-0.9219 -1.132707,-0.3906 -2.255512,-0.8289 -3.344704,-1.3882 -1.029891,-0.5359 -2.042191,-1.1281 -2.998372,-1.8557 -0.902787,-0.6985 -1.786525,-1.4412 -2.591016,-2.31612 -0.766717,-0.84774 -1.501016,-1.74443 -2.127764,-2.76531 -0.602922,-0.98906 -1.159665,-2.02266 -1.599053,-3.14574 -0.434017,-1.12072 -0.821758,-2.27153 -1.081272,-3.47937 -0.256887,-1.22386 -0.456766,-2.46695 -0.516513,-3.73452 -0.07011,-1.31979 -0.07128,-2.64241 0.0603,-3.95737 0.140957,-1.38324 0.346738,-2.75868 0.694364,-4.08461 0.377503,-1.37675 0.798376,-2.73553 1.363399,-4.0086 0.574412,-1.31998 1.197604,-2.60543 1.924346,-3.80061 0.7343,-1.21668 1.509424,-2.39137 2.350298,-3.49249 3.864497,-5.00965 8.246798,-9.33955 12.608472,-13.63164 0.977377,-0.90278 1.976074,-1.7702 3.029425,-2.52529 1.016655,-0.72731 2.048669,-1.42216 3.113409,-2.02997 0.998704,-0.56126 2.005637,-1.1014 3.043764,-1.53573 0.952253,-0.39083 1.911281,-0.76069 2.893436,-1.01184 0.825404,-0.21448 1.655986,-0.40406 2.496355,-0.49423 0.609781,-0.0672 1.221926,-0.12684 1.834446,-0.10815 0.32138,0.008 0.64672,0.0238 0.96318,0.0991 0,0 -9.531812,11.79748 -9.531812,11.79748 z"
       inkscape:connector-curvature="0" />
    <path
       style="fill:#ffcc00;fill-opacity:1;fill-rule:nonzero"
       id="path7869"
       d="m 38.891807,975.8514 c 0.155282,-0.0102 0.311354,0.008 0.465164,-0.0319 0.224794,-0.0381 0.450425,-0.0595 0.675981,-0.0795 0.281395,-0.0607 0.564583,-0.0938 0.847318,-0.1309 0.327604,-0.0509 0.654789,-0.10971 0.982632,-0.15804 0.376564,-0.0461 0.752454,-0.10038 1.128078,-0.16413 0.404371,-0.0673 0.809204,-0.12616 1.214126,-0.18296 0.422744,-0.06 0.845873,-0.11123 1.269104,-0.16024 0.442207,-0.0556 0.883698,-0.12768 1.325678,-0.18918 0.455246,-0.0631 0.910779,-0.11988 1.366393,-0.17464 0.475526,-0.0548 0.951246,-0.10428 1.42706,-0.15125 0.489183,-0.0422 0.977802,-0.0938 1.466151,-0.15719 0.48795,-0.0626 0.976184,-0.11835 1.464479,-0.17253 0.493769,-0.0544 0.98772,-0.10411 1.481726,-0.15192 0.49885,-0.0482 0.997841,-0.0921 1.496872,-0.13447 0.502289,-0.0324 1.003579,-0.0912 1.5051,-0.1465 0.507205,-0.0554 1.014595,-0.10597 1.522038,-0.15481 0.504728,-0.04 1.008142,-0.11377 1.512074,-0.17488 0.50445,-0.0609 1.009126,-0.11598 1.513866,-0.1694 0.508308,-0.0536 1.016783,-0.10241 1.525307,-0.14972 0.510724,-0.0371 1.020407,-0.10038 1.530326,-0.1599 0.514599,-0.0597 1.029405,-0.11411 1.544271,-0.16668 0.505843,-0.0739 1.012086,-0.13581 1.518804,-0.18865 0,0 -5.596145,9.60837 -5.596145,9.60837 l 0,0 c -0.504938,0.0546 -1.009011,0.1304 -1.51418,0.17926 -0.513925,0.0553 -1.027755,0.11293 -1.541509,0.17269 -0.512133,0.0575 -1.024692,0.10106 -1.537114,0.15023 -0.507234,0.0498 -1.014411,0.1014 -1.521402,0.15803 -0.503497,0.0563 -1.006905,0.11496 -1.510161,0.17721 -0.505972,0.0614 -1.012155,0.11496 -1.518709,0.16091 -0.506624,0.0514 -1.013164,0.10513 -1.519644,0.16058 -0.50393,0.0531 -1.008256,0.0921 -1.512468,0.1365 -0.49789,0.0449 -0.995733,0.0914 -1.493418,0.1426 -0.492699,0.0509 -0.985335,0.10343 -1.477769,0.16108 -0.487749,0.0573 -0.975358,0.11785 -1.463054,0.17653 -0.490327,0.0539 -0.981217,0.0926 -1.471471,0.14888 -0.474867,0.0522 -0.949656,0.10699 -1.424102,0.16939 -0.4541,0.059 -0.908095,0.12022 -1.361805,0.18726 -0.444575,0.0655 -0.889055,0.13243 -1.334364,0.18215 -0.421681,0.0556 -0.843201,0.11479 -1.264463,0.17894 -0.404135,0.0624 -0.808056,0.12852 -1.211936,0.19553 -0.378314,0.0583 -0.757294,0.10462 -1.134992,0.17447 -0.331295,0.0575 -0.662328,0.11886 -0.994456,0.16125 -0.287418,0.0456 -0.574408,0.10292 -0.862705,0.12971 -0.226988,0.0348 -0.453682,0.0748 -0.680856,0.10581 -0.150619,0.005 -0.300921,0.0322 -0.448139,0.0878 0,0 5.612314,-9.75601 5.612314,-9.75601 z"
       inkscape:connector-curvature="0" />
  </g>
</svg>
