<?xml version="1.0" encoding="utf-8"?>
<!-- Generator: Adobe Illustrator 15.0.2, SVG Export Plug-In . SVG Version: 6.00 Build 0)  -->
<!DOCTYPE svg PUBLIC "-//W3C//DTD SVG 1.1//EN" "http://www.w3.org/Graphics/SVG/1.1/DTD/svg11.dtd">
<svg version="1.1" id="Ebene_1" xmlns="http://www.w3.org/2000/svg" xmlns:xlink="http://www.w3.org/1999/xlink" x="0px" y="0px"
	 width="911px" height="841.89px" viewBox="0 0 911 841.89" enable-background="new 0 0 911 841.89" xml:space="preserve">
<g>
	<path fill-rule="evenodd" clip-rule="evenodd" d="M645.041,69.89c2.16,0,4.32,0,6.48,0c-0.671,0.725,0.587,0.447,0.72,0
		c0.4,0,0.8,0,1.2,0c-3.6,11.841-11.866,19.014-16.561,29.76c68.456,25.318,128.185,61.366,173.521,110.16
		c45.238,48.688,81.773,108.134,87.841,195.6c0,10.16,0,20.32,0,30.48c-5.258,86.368-40.343,146.049-84.721,194.4
		c-14.958,16.297-30.91,31.646-48.24,44.64c-53.017,39.749-115.049,70.593-191.521,87.36c-25.648,5.624-53.164,8.865-82.319,10.56
		c-14.32,0-28.641,0-42.96,0c-119.944-5.271-212.045-40.451-283.921-94.56c-35.778-26.935-66.537-59.242-90.72-98.641
		C49.863,540.588,31.667,494.476,28,436.371c0-10.56,0-21.119,0-31.68c0.08,0,0.16,0,0.24,0c1.84-37.69,11.46-69.195,23.28-97.2
		c8.954-21.214,19.937-40.472,32.4-57.84c3.155-4.397,6.637-8.709,9.6-12.96c0.292-0.419,0.746-0.527,0.96-0.96
		c0.658-1.331,0.26-3.447,2.4-3.36c1.289,1.899,1.349,7.357,0.48,9.84c-1.249-0.337-0.807,0.692-0.96,1.2
		c-0.836,2.773-1.03,5.376-1.44,8.16c-3.273,22.231-1.2,51.053-4.32,73.44c-2.866,20.561,0.973,40.019,5.04,57.84
		c3.312,14.508,7.062,28.045,12,39.84c10.034,23.966,25.183,43.771,42.72,60.96c17.532,17.185,37.955,31.55,59.52,44.16
		c42.615,24.92,95.733,43.625,154.8,52.32c60.78,8.947,133.858,6.663,192.24-4.08c58.286-10.726,108.249-29.215,150.48-56.641
		c42.068-27.319,78.478-60.668,95.28-112.08c4.45-13.616,6.838-28.693,6.96-44.64c0.121-15.799-2.944-31.262-7.2-44.64
		c-8.25-25.936-22.873-47.205-39.36-64.32c-17.102-17.755-35.613-33.557-56.64-47.04c-21.009-13.472-44.224-24.563-69.84-33.84
		c2.062,11.858,4.853,22.988,6.96,34.8c-1.488-0.762-2.61-2.044-3.841-3.12c-1.303-1.14-2.584-2.216-3.84-3.36
		c-27.344-24.898-54.97-49.587-82.32-74.16c-7.493-6.732-14.853-13.93-22.319-20.4c-1.903-1.649-4.192-3.23-5.761-5.04
		c-0.322-0.373-1.534-1.144-0.72-1.92C565.105,89.953,605.271,80.121,645.041,69.89z"/>
</g>
</svg>
