<?xml version="1.0" encoding="utf-8"?>
<!-- Generator: Adobe Illustrator 15.0.2, SVG Export Plug-In . SVG Version: 6.00 Build 0)  -->
<!DOCTYPE svg PUBLIC "-//W3C//DTD SVG 1.1//EN" "http://www.w3.org/Graphics/SVG/1.1/DTD/svg11.dtd">
<svg version="1.1" id="Ebene_1" xmlns="http://www.w3.org/2000/svg" xmlns:xlink="http://www.w3.org/1999/xlink" x="0px" y="0px"
	 width="264.24px" height="228.48px" viewBox="0 0 264.24 228.48" enable-background="new 0 0 264.24 228.48" xml:space="preserve">
<g>
	<polygon fill-rule="evenodd" clip-rule="evenodd" fill="#FFF2B9" points="246.721,0.24 246.721,0 250.561,0 250.561,0.24 
		246.721,0.24 	"/>
	<polygon fill-rule="evenodd" clip-rule="evenodd" fill="#FFE579" points="250.561,0.24 250.561,0 254.641,0 254.641,0.24 
		250.561,0.24 	"/>
	<polygon fill-rule="evenodd" clip-rule="evenodd" fill="#FFD838" points="254.641,0.24 254.641,0 258.48,0 254.641,0.24 	"/>
	<polygon fill-rule="evenodd" clip-rule="evenodd" fill="#FFF2B9" points="230.16,0.48 234.48,0.24 234.48,0.48 230.16,0.48 	"/>
	<polygon fill-rule="evenodd" clip-rule="evenodd" fill="#FFE579" points="234.48,0.48 234.48,0.24 238.561,0.24 238.561,0.48 
		234.48,0.48 	"/>
	<polygon fill-rule="evenodd" clip-rule="evenodd" fill="#FFD838" points="238.561,0.48 238.561,0.24 242.641,0.24 238.561,0.48 	
		"/>
	<polygon fill-rule="evenodd" clip-rule="evenodd" fill="#FFD838" points="260.16,0.24 260.641,0.24 261.12,1.2 260.881,1.2 
		260.16,0.24 	"/>
	<polygon fill-rule="evenodd" clip-rule="evenodd" fill="#FFE579" points="260.641,0.24 261.841,0.24 262.32,1.92 261.12,1.2 
		260.641,0.24 	"/>
	<polygon fill-rule="evenodd" clip-rule="evenodd" fill="#FFF2B9" points="261.841,0.24 262.32,0.48 263.041,2.4 262.32,1.92 
		261.841,0.24 	"/>
	<polygon fill-rule="evenodd" clip-rule="evenodd" fill="#FFF2B9" points="212.4,0.72 216.96,0.48 216.96,0.72 212.4,0.72 	"/>
	<polygon fill-rule="evenodd" clip-rule="evenodd" fill="#FFE579" points="216.96,0.72 216.96,0.48 221.521,0.48 221.521,0.72 
		216.96,0.72 	"/>
	<polygon fill-rule="evenodd" clip-rule="evenodd" fill="#FFD838" points="221.521,0.72 221.521,0.48 225.841,0.48 221.521,0.72 	
		"/>
	<polygon fill-rule="evenodd" clip-rule="evenodd" fill="#FFF2B9" points="193.681,0.96 198.48,0.72 198.48,0.96 193.681,0.96 	"/>
	<polygon fill-rule="evenodd" clip-rule="evenodd" fill="#FFE579" points="198.48,0.96 198.48,0.72 203.28,0.72 203.28,0.96 
		198.48,0.96 	"/>
	<polygon fill-rule="evenodd" clip-rule="evenodd" fill="#FFD838" points="203.28,0.96 203.28,0.72 207.841,0.72 203.28,0.96 	"/>
	<polygon fill-rule="evenodd" clip-rule="evenodd" fill="#FFF2B9" points="174,1.2 179.04,0.96 179.04,1.2 174,1.2 	"/>
	<polygon fill-rule="evenodd" clip-rule="evenodd" fill="#FFE579" points="179.04,1.2 179.04,0.96 184.08,0.96 184.08,1.2 
		179.04,1.2 	"/>
	<polygon fill-rule="evenodd" clip-rule="evenodd" fill="#FFD838" points="184.08,1.2 184.08,0.96 188.881,0.96 184.08,1.2 	"/>
	<polygon fill-rule="evenodd" clip-rule="evenodd" fill="#FFF2B9" points="153.601,1.44 158.641,1.2 158.641,1.44 153.601,1.44 	"/>
	<polygon fill-rule="evenodd" clip-rule="evenodd" fill="#FFE579" points="158.641,1.44 158.641,1.2 163.92,1.2 163.92,1.44 
		158.641,1.44 	"/>
	<polygon fill-rule="evenodd" clip-rule="evenodd" fill="#FFD838" points="163.92,1.44 163.92,1.2 168.96,1.2 163.92,1.44 	"/>
	<polygon fill-rule="evenodd" clip-rule="evenodd" fill="#FFF2B9" points="132.721,1.68 138,1.44 138,1.68 132.721,1.68 	"/>
	<polygon fill-rule="evenodd" clip-rule="evenodd" fill="#FFE579" points="138,1.68 138,1.44 143.04,1.44 143.04,1.68 138,1.68 	"/>
	<polygon fill-rule="evenodd" clip-rule="evenodd" fill="#FFD838" points="143.04,1.68 143.04,1.44 148.32,1.44 143.04,1.68 	"/>
	<polygon fill-rule="evenodd" clip-rule="evenodd" fill="#FFF2B9" points="111.6,1.92 116.88,1.68 116.88,1.92 111.6,1.92 	"/>
	<polygon fill-rule="evenodd" clip-rule="evenodd" fill="#FFE579" points="116.88,1.92 116.88,1.68 122.16,1.68 122.16,1.92 
		116.88,1.92 	"/>
	<polygon fill-rule="evenodd" clip-rule="evenodd" fill="#FFD838" points="122.16,1.92 122.16,1.68 127.44,1.68 122.16,1.92 	"/>
	<polygon fill-rule="evenodd" clip-rule="evenodd" fill="#FFF2B9" points="91.2,2.16 96.24,1.92 96.24,2.16 91.2,2.16 	"/>
	<polygon fill-rule="evenodd" clip-rule="evenodd" fill="#FFE579" points="96.24,2.16 96.24,1.92 101.28,1.92 101.28,2.16 
		96.24,2.16 	"/>
	<polygon fill-rule="evenodd" clip-rule="evenodd" fill="#FFD838" points="101.28,2.16 101.28,1.92 106.56,1.92 101.28,2.16 	"/>
	<polygon fill-rule="evenodd" clip-rule="evenodd" fill="#FFF2B9" points="71.28,2.4 76.08,2.16 76.08,2.4 71.28,2.4 	"/>
	<polygon fill-rule="evenodd" clip-rule="evenodd" fill="#FFE579" points="76.08,2.4 76.08,2.16 81.12,2.16 81.12,2.4 76.08,2.4 	
		"/>
	<polygon fill-rule="evenodd" clip-rule="evenodd" fill="#FFD838" points="81.12,2.4 81.12,2.16 86.16,2.16 81.12,2.4 	"/>
	<polygon fill-rule="evenodd" clip-rule="evenodd" fill="#FFF2B9" points="52.32,2.64 57.12,2.4 57.12,2.64 52.32,2.64 	"/>
	<polygon fill-rule="evenodd" clip-rule="evenodd" fill="#FFE579" points="57.12,2.64 57.12,2.4 61.68,2.4 61.68,2.64 57.12,2.64 	
		"/>
	<polygon fill-rule="evenodd" clip-rule="evenodd" fill="#FFD838" points="61.68,2.64 61.68,2.4 66.48,2.4 61.68,2.64 	"/>
	<polygon fill-rule="evenodd" clip-rule="evenodd" fill="#FFF2B9" points="34.56,2.88 38.88,2.64 38.88,2.88 34.56,2.88 	"/>
	<polygon fill-rule="evenodd" clip-rule="evenodd" fill="#FFE579" points="38.88,2.88 38.88,2.64 43.44,2.64 43.44,2.88 38.88,2.88 
			"/>
	<polygon fill-rule="evenodd" clip-rule="evenodd" fill="#FFD838" points="43.44,2.88 43.44,2.64 47.76,2.64 43.44,2.88 	"/>
	<polygon fill-rule="evenodd" clip-rule="evenodd" fill="#FFF2B9" points="18,3.12 22.08,2.88 22.08,3.12 18,3.12 	"/>
	<polygon fill-rule="evenodd" clip-rule="evenodd" fill="#FFE579" points="22.08,3.12 22.08,2.88 26.16,2.88 26.16,3.12 22.08,3.12 
			"/>
	<polygon fill-rule="evenodd" clip-rule="evenodd" fill="#FFD838" points="26.16,3.12 26.16,2.88 30.24,2.88 26.16,3.12 	"/>
	<polygon fill-rule="evenodd" clip-rule="evenodd" fill="#FFF2B9" points="2.16,3.36 6,3.12 6,3.36 2.16,3.36 	"/>
	<polygon fill-rule="evenodd" clip-rule="evenodd" fill="#FFE579" points="6,3.36 6,3.12 9.84,3.12 9.84,3.36 6,3.36 	"/>
	<polygon fill-rule="evenodd" clip-rule="evenodd" fill="#FFD838" points="9.84,3.36 9.84,3.12 13.92,3.12 9.84,3.36 	"/>
	<polygon fill-rule="evenodd" clip-rule="evenodd" fill="#FFD838" points="194.881,18 198,17.76 198,18 194.881,18 	"/>
	<polygon fill-rule="evenodd" clip-rule="evenodd" fill="#FFE579" points="198,18 198,17.76 202.08,17.76 202.08,18 198,18 	"/>
	<polygon fill-rule="evenodd" clip-rule="evenodd" fill="#FFF2B9" points="202.08,18 202.08,17.76 210.96,17.76 202.08,18 	"/>
	<polygon fill-rule="evenodd" clip-rule="evenodd" fill="#FFD838" points="182.641,18.24 186,18 186,18.24 182.641,18.24 	"/>
	<polygon fill-rule="evenodd" clip-rule="evenodd" fill="#FFE579" points="186,18.24 186,18 188.881,18 188.881,18.24 186,18.24 	
		"/>
	<polygon fill-rule="evenodd" clip-rule="evenodd" fill="#FFF2B9" points="188.881,18.24 188.881,18 192,18 188.881,18.24 	"/>
	<polygon fill-rule="evenodd" clip-rule="evenodd" fill="#FFD838" points="157.44,18.48 161.28,18.24 161.28,18.48 157.44,18.48 	
		"/>
	<polygon fill-rule="evenodd" clip-rule="evenodd" fill="#FFE579" points="161.28,18.48 161.28,18.24 166.801,18.24 166.801,18.48 
		161.28,18.48 	"/>
	<polygon fill-rule="evenodd" clip-rule="evenodd" fill="#FFF2B9" points="166.801,18.48 166.801,18.24 178.32,18.24 166.801,18.48 
			"/>
	<polygon fill-rule="evenodd" clip-rule="evenodd" fill="#FFD838" points="145.681,18.72 148.32,18.48 148.32,18.72 145.681,18.72 	
		"/>
	<polygon fill-rule="evenodd" clip-rule="evenodd" fill="#FFE579" points="148.32,18.72 148.32,18.48 151.2,18.48 151.2,18.72 
		148.32,18.72 	"/>
	<polygon fill-rule="evenodd" clip-rule="evenodd" fill="#FFF2B9" points="151.2,18.72 151.2,18.48 154.08,18.48 151.2,18.72 	"/>
	<polygon fill-rule="evenodd" clip-rule="evenodd" fill="#FFD838" points="135.12,18.96 137.761,18.72 137.761,18.96 135.12,18.96 	
		"/>
	<polygon fill-rule="evenodd" clip-rule="evenodd" fill="#FFE579" points="137.761,18.96 137.761,18.72 140.4,18.72 140.4,18.96 
		137.761,18.96 	"/>
	<polygon fill-rule="evenodd" clip-rule="evenodd" fill="#FFF2B9" points="140.4,18.96 140.4,18.72 143.04,18.72 140.4,18.96 	"/>
	<polygon fill-rule="evenodd" clip-rule="evenodd" fill="#FFD838" points="122.4,19.2 126,18.96 126,19.2 122.4,19.2 	"/>
	<polygon fill-rule="evenodd" clip-rule="evenodd" fill="#FFE579" points="126,19.2 126,18.96 129.36,18.96 129.36,19.2 126,19.2 	
		"/>
	<polygon fill-rule="evenodd" clip-rule="evenodd" fill="#FFF2B9" points="129.36,19.2 129.36,18.96 132.24,18.96 129.36,19.2 	"/>
	<polygon fill-rule="evenodd" clip-rule="evenodd" fill="#FFD838" points="91.44,19.44 96.24,19.2 96.24,19.44 91.44,19.44 	"/>
	<polygon fill-rule="evenodd" clip-rule="evenodd" fill="#FFE579" points="96.24,19.44 96.24,19.2 102.96,19.2 102.96,19.44 
		96.24,19.44 	"/>
	<polygon fill-rule="evenodd" clip-rule="evenodd" fill="#FFF2B9" points="102.96,19.44 102.96,19.2 117.36,19.2 102.96,19.44 	"/>
	<polygon fill-rule="evenodd" clip-rule="evenodd" fill="#FFD838" points="76.8,19.68 80.16,19.44 80.16,19.68 76.8,19.68 	"/>
	<polygon fill-rule="evenodd" clip-rule="evenodd" fill="#FFE579" points="80.16,19.68 80.16,19.44 83.76,19.44 83.76,19.68 
		80.16,19.68 	"/>
	<polygon fill-rule="evenodd" clip-rule="evenodd" fill="#FFF2B9" points="83.76,19.68 83.76,19.44 87.36,19.44 83.76,19.68 	"/>
	<polygon fill-rule="evenodd" clip-rule="evenodd" fill="#FFD838" points="63.6,19.92 67.2,19.68 67.2,19.92 63.6,19.92 	"/>
	<polygon fill-rule="evenodd" clip-rule="evenodd" fill="#FFE579" points="67.2,19.92 67.2,19.68 70.32,19.68 70.32,19.92 
		67.2,19.92 	"/>
	<polygon fill-rule="evenodd" clip-rule="evenodd" fill="#FFF2B9" points="70.32,19.92 70.32,19.68 73.68,19.68 70.32,19.92 	"/>
	<polygon fill-rule="evenodd" clip-rule="evenodd" fill="#FFD838" points="54.72,20.16 55.68,19.92 55.68,20.16 54.72,20.16 	"/>
	<polygon fill-rule="evenodd" clip-rule="evenodd" fill="#FFE579" points="55.68,20.16 55.68,19.92 56.88,19.92 56.88,20.16 
		55.68,20.16 	"/>
	<polygon fill-rule="evenodd" clip-rule="evenodd" fill="#FFF2B9" points="56.88,20.16 56.88,19.92 60.24,19.92 56.88,20.16 	"/>
	<polygon fill-rule="evenodd" clip-rule="evenodd" fill="#FFE579" points="51.84,20.4 51.84,20.16 52.8,20.16 52.8,20.4 51.84,20.4 
			"/>
	<polygon fill-rule="evenodd" clip-rule="evenodd" fill="#FFF2B9" points="52.8,20.4 52.8,20.16 53.76,20.16 52.8,20.4 	"/>
	<polygon fill-rule="evenodd" clip-rule="evenodd" fill="#FFD838" points="223.2,23.52 223.2,24.48 223.2,23.52 	"/>
	<polygon fill-rule="evenodd" clip-rule="evenodd" fill="#FFD838" points="133.2,226.32 134.641,226.08 133.2,226.32 	"/>
	<polygon fill-rule="evenodd" clip-rule="evenodd" fill="#FFFBE8" points="262.32,0.48 264.24,2.64 264.24,2.88 263.041,2.4 
		262.32,0.48 	"/>
	<polygon fill-rule="evenodd" clip-rule="evenodd" fill="#FFFBE8" points="137.28,227.761 136.8,227.28 138.48,226.801 
		137.521,227.761 137.28,227.761 	"/>
	<polygon fill-rule="evenodd" clip-rule="evenodd" fill="#FFF2B9" points="36,22.32 37.2,21.12 36,22.32 	"/>
	<polygon fill-rule="evenodd" clip-rule="evenodd" fill="#FFF2B9" points="35.52,30.24 36.48,31.2 35.52,30.24 	"/>
	<polygon fill-rule="evenodd" clip-rule="evenodd" fill="#FFD838" points="39.12,33.36 40.08,34.08 40.08,34.32 39.12,33.36 	"/>
	<polygon fill-rule="evenodd" clip-rule="evenodd" fill="#FFF2B9" points="219.841,18 221.521,19.68 219.841,18 	"/>
	<polygon fill-rule="evenodd" clip-rule="evenodd" fill="#FFFBE8" points="40.08,34.08 39.12,33.36 38.64,32.88 40.08,34.08 	"/>
	<path fill-rule="evenodd" clip-rule="evenodd" fill="#FFCC00" d="M260.881,1.2h-0.721L138.48,226.801l-1.681,0.479l0.48,0.48
		l-0.72,0.479h-2.88h-1.2l-0.96-0.24l-0.96-1.439v-0.24l-16.56-27.6L16.32,31.44L8.16,17.52L0,3.6V3.36h2.16H6h3.84l4.08-0.24H18
		h4.08h4.08l4.08-0.24h4.32h4.32h4.56l4.32-0.24h4.56h4.8h4.56l4.8-0.24h4.8h4.8h5.04l5.04-0.24h5.04h5.04h5.04l5.28-0.24h5.04h5.28
		h5.28l5.28-0.24h5.28H138h5.04l5.28-0.24h5.28h5.04h5.279l5.04-0.24H174h5.04h5.04l4.801-0.24h4.8h4.8h4.8l4.561-0.24h4.56h4.56
		h4.561l4.32-0.24h4.319h4.32h4.08l4.08-0.24h4.08h3.84h4.08L258.48,0h1.44l0.239,0.24L260.881,1.2L260.881,1.2z M214.801,17.28
		l-1.92,0.24l-0.961,0.24h-0.96h-8.88H198L194.881,18H192h-3.119H186l-3.359,0.24h-4.32h-11.52h-5.521l-3.84,0.24h-3.36h-2.88h-2.88
		l-2.64,0.24h-2.641h-2.64h-2.64l-2.641,0.24h-2.88h-2.88H126l-3.6,0.24h-5.04h-14.4h-6.72l-4.8,0.24h-4.08h-3.6h-3.6l-3.36,0.24
		h-3.12h-3.36H67.2l-3.6,0.24h-3.36h-3.36h-1.2l-0.96,0.24h-0.96H52.8h-0.96h-4.32l-4.8-1.2H40.8l-3.6,2.16l-1.2,1.2l-0.48,7.92
		l0.96,0.96l2.16,1.68l0.48,0.48l0.96,0.96L126,181.681l10.32,5.52L218.4,35.28l4.8-10.8v-0.96l-1.68-3.84l-1.68-1.68l-2.4-0.72
		H214.801L214.801,17.28z M134.641,226.08l-1.44,0.24L134.641,226.08L134.641,226.08z"/>
	<polygon fill-rule="evenodd" clip-rule="evenodd" fill="#FFD838" points="211.92,17.76 212.881,17.52 211.92,17.76 	"/>
	<polygon fill-rule="evenodd" clip-rule="evenodd" fill="#FFE579" points="130.56,226.32 130.56,226.561 130.56,226.32 	"/>
	<polygon fill-rule="evenodd" clip-rule="evenodd" fill="#FFD838" points="131.521,228 132.48,228.24 131.521,228 	"/>
	<polygon fill-rule="evenodd" clip-rule="evenodd" fill="#FFFBE8" points="259.921,0 261.841,0 261.841,0.24 260.641,0.24 
		260.16,0.24 259.921,0 	"/>
	<polygon fill-rule="evenodd" clip-rule="evenodd" fill="#FFF2B9" points="40.8,18.96 42.72,18.96 40.8,18.96 	"/>
	<polygon fill-rule="evenodd" clip-rule="evenodd" fill="#FFE579" points="214.801,17.28 217.44,17.28 214.801,17.28 	"/>
	<polygon fill-rule="evenodd" clip-rule="evenodd" fill="#FFD838" points="47.52,20.16 51.84,20.16 51.84,20.4 47.52,20.16 	"/>
	<polygon fill-rule="evenodd" clip-rule="evenodd" fill="#FFD838" points="133.681,228.24 136.561,228.24 136.561,228.48 
		133.681,228.48 133.681,228.24 	"/>
</g>
<line fill="none" x1="0" y1="1.68" x2="259.921" y2="1.68"/>
</svg>
