<?xml version="1.0" encoding="UTF-8" standalone="no"?>
<!-- Created with Inkscape (http://www.inkscape.org/) -->

<svg
   xmlns:dc="http://purl.org/dc/elements/1.1/"
   xmlns:cc="http://creativecommons.org/ns#"
   xmlns:rdf="http://www.w3.org/1999/02/22-rdf-syntax-ns#"
   xmlns:svg="http://www.w3.org/2000/svg"
   xmlns="http://www.w3.org/2000/svg"
   xmlns:sodipodi="http://sodipodi.sourceforge.net/DTD/sodipodi-0.dtd"
   xmlns:inkscape="http://www.inkscape.org/namespaces/inkscape"
   width="100"
   height="100"
   id="svg2"
   version="1.1"
   inkscape:version="0.48.4 r9939"
   sodipodi:docname="Guided_Navigation.svg">
  <defs
     id="defs4" />
  <sodipodi:namedview
     id="base"
     pagecolor="#ffffff"
     bordercolor="#666666"
     borderopacity="1.0"
     inkscape:pageopacity="0.0"
     inkscape:pageshadow="2"
     inkscape:zoom="5.29"
     inkscape:cx="50"
     inkscape:cy="50"
     inkscape:document-units="px"
     inkscape:current-layer="layer1"
     showgrid="true"
     showguides="false"
     inkscape:window-width="1366"
     inkscape:window-height="716"
     inkscape:window-x="-8"
     inkscape:window-y="-8"
     inkscape:window-maximized="1">
    <inkscape:grid
       type="xygrid"
       id="grid2985"
       empspacing="5"
       visible="true"
       enabled="true"
       snapvisiblegridlinesonly="true" />
  </sodipodi:namedview>
  <metadata
     id="metadata7">
    <rdf:RDF>
      <cc:Work
         rdf:about="">
        <dc:format>image/svg+xml</dc:format>
        <dc:type
           rdf:resource="http://purl.org/dc/dcmitype/StillImage" />
        <dc:title></dc:title>
      </cc:Work>
    </rdf:RDF>
  </metadata>
  <g
     inkscape:label="Ebene 1"
     inkscape:groupmode="layer"
     id="layer1"
     transform="translate(0,-952.36217)">
    <path
       style="fill:#254061;stroke:#000000;stroke-width:1px;stroke-linecap:butt;stroke-linejoin:miter;stroke-opacity:1;fill-opacity:1"
       d="m 25,40 c -0.0057,0.0771 -0.08251,0.642722 -0.04726,0.642722 C 24.98894,40.642722 24.891053,30.0053 25,30 L 0,55 c 25,25 25,25 25,25 l 0,0 0,-10 -15,-15 z"
       id="path2989"
       inkscape:connector-curvature="0"
       transform="translate(0,952.36217)" />
    <path
       style="fill:#254061;stroke:#000000;stroke-width:1px;stroke-linecap:butt;stroke-linejoin:miter;stroke-opacity:1;fill-opacity:1"
       d="m 75,30 0,10 15,15 -15,15 0,10 25,-25 z"
       id="path2995"
       inkscape:connector-curvature="0"
       transform="translate(0,952.36217)" />
    <path
       style="fill:#254061;fill-opacity:1"
       d="M 12.561434,66.644845 0.88846425,54.970507 12.608693,43.25142 24.328922,31.532334 l 0,4.157354 0,4.157354 -7.60782,7.60956 -7.6078203,7.609561 7.6117033,7.613444 7.611703,7.613444 -0.05114,4.013066 -0.05114,4.013066 -11.672971,-11.674338 z"
       id="path3001"
       inkscape:connector-curvature="0"
       transform="translate(0,952.36217)" />
    <path
       style="fill:#254061;fill-opacity:1"
       d=""
       id="path3783"
       inkscape:connector-curvature="0"
       transform="translate(0,952.36217)" />
    <path
       style="fill:#254061;fill-opacity:1"
       d=""
       id="path3785"
       inkscape:connector-curvature="0"
       transform="translate(0,952.36217)" />
    <path
       style="fill:#254061;fill-opacity:1"
       d="m 24.504497,74.442344 c -1.33e-4,-2.391304 0.02685,-3.395631 0.05996,-2.231837 0.03311,1.163793 0.03322,3.120315 2.42e-4,4.347826 -0.03298,1.22751 -0.06007,0.275315 -0.0602,-2.115989 z"
       id="path3787"
       inkscape:connector-curvature="0"
       transform="translate(0,952.36217)" />
    <path
       style="fill:#254061;stroke:#000000;stroke-width:1px;stroke-linecap:butt;stroke-linejoin:miter;stroke-opacity:1;fill-opacity:1"
       d="m 40,35 5,0 0,40 -5,0 z"
       id="path3811"
       inkscape:connector-curvature="0"
       transform="translate(0,952.36217)" />
    <path
       style="fill:#254061;stroke:#000000;stroke-width:1px;stroke-linecap:butt;stroke-linejoin:miter;stroke-opacity:1;fill-opacity:1"
       d="m 50,35 5,0 0,40 -5,0 z"
       id="path3813"
       inkscape:connector-curvature="0"
       transform="translate(0,952.36217)" />
  </g>
</svg>
