<?xml version="1.0" encoding="UTF-8" standalone="no"?>
<!-- Created with Inkscape (http://www.inkscape.org/) -->

<svg
   xmlns:dc="http://purl.org/dc/elements/1.1/"
   xmlns:cc="http://creativecommons.org/ns#"
   xmlns:rdf="http://www.w3.org/1999/02/22-rdf-syntax-ns#"
   xmlns:svg="http://www.w3.org/2000/svg"
   xmlns="http://www.w3.org/2000/svg"
   xmlns:sodipodi="http://sodipodi.sourceforge.net/DTD/sodipodi-0.dtd"
   xmlns:inkscape="http://www.inkscape.org/namespaces/inkscape"
   width="1024"
   height="500"
   id="svg2984"
   version="1.1"
   inkscape:version="0.48.4 r9939"
   sodipodi:docname="Imagemap_Menue_flach.svg">
  <defs
     id="defs2986" />
  <sodipodi:namedview
     id="base"
     pagecolor="#ffffff"
     bordercolor="#666666"
     borderopacity="1.0"
     inkscape:pageopacity="0"
     inkscape:pageshadow="2"
     inkscape:zoom="1.1777344"
     inkscape:cx="512"
     inkscape:cy="468.17845"
     inkscape:document-units="px"
     inkscape:current-layer="svg2984"
     showgrid="false"
     inkscape:window-width="1366"
     inkscape:window-height="716"
     inkscape:window-x="-8"
     inkscape:window-y="-8"
     inkscape:window-maximized="1">
    <sodipodi:guide
       position="0,0"
       orientation="0,1024"
       id="guide3020" />
    <sodipodi:guide
       position="1024,0"
       orientation="-500,0"
       id="guide3022" />
    <sodipodi:guide
       position="1024,500"
       orientation="0,-1024"
       id="guide3024" />
    <sodipodi:guide
       position="0,500"
       orientation="500,0"
       id="guide3026" />
  </sodipodi:namedview>
  <metadata
     id="metadata2989">
    <rdf:RDF>
      <cc:Work
         rdf:about="">
        <dc:format>image/svg+xml</dc:format>
        <dc:type
           rdf:resource="http://purl.org/dc/dcmitype/StillImage" />
        <dc:title />
      </cc:Work>
    </rdf:RDF>
  </metadata>
  <path
     style="fill:#000000;fill-opacity:1"
     d="m 1129.784,0.451501 c 0,61.117663 -276.77023,110.663319 -618.18367,110.663319 -342.35551,0 -618.18372,-49.545656 -618.18372,-110.663319 0,-61.117664 276.77028,-110.663321 618.18372,-110.663321 341.41344,0 618.18367,49.545657 618.18367,110.663321 z"
     id="path3000"
     inkscape:connector-curvature="0"
     sodipodi:nodetypes="sssss" />
  <g
     transform="matrix(0.98001075,0.19894451,-0.19894451,0.98001075,-77.372001,-87.317687)"
     inkscape:transform-center-y="5.0945274"
     style="font-size:40px;font-style:normal;font-weight:normal;line-height:125%;letter-spacing:0px;word-spacing:0px;fill:#b9cde5;fill-opacity:1;stroke:none;font-family:Arial;-inkscape-font-specification:Arial"
     id="flowRoot3078">
    <path
       d="m 121.99805,130.46147 0,-12.62695 -4.7168,0 0,-1.68946 11.34766,0 0,1.68946 -4.73633,0 0,12.62695 z"
       style="font-size:20px;fill:#b9cde5"
       id="path3214"
       inkscape:connector-curvature="0" />
    <path
       d="m 137.45703,127.12163 1.81641,0.22461 c -0.28647,1.0612 -0.81707,1.88476 -1.5918,2.4707 -0.77475,0.58594 -1.76433,0.8789 -2.96875,0.8789 -1.51693,0 -2.71973,-0.46712 -3.6084,-1.40136 -0.88867,-0.93425 -1.33301,-2.24447 -1.33301,-3.93067 0,-1.74478 0.44922,-3.09895 1.34766,-4.0625 0.89844,-0.96353 2.0638,-1.4453 3.49609,-1.44531 1.38672,1e-5 2.51953,0.47202 3.39844,1.41602 0.8789,0.94402 1.31835,2.27214 1.31836,3.98437 -1e-5,0.10417 -0.003,0.26042 -0.01,0.46875 l -7.73438,0 c 0.0651,1.13933 0.38737,2.01172 0.9668,2.61719 0.57942,0.60547 1.30208,0.9082 2.16797,0.9082 0.64452,0 1.19465,-0.16927 1.65039,-0.50781 0.45572,-0.33854 0.81705,-0.8789 1.08398,-1.62109 z m -5.77148,-2.8418 5.79101,0 c -0.0781,-0.87239 -0.29948,-1.52669 -0.66406,-1.96289 -0.5599,-0.67708 -1.28581,-1.01562 -2.17773,-1.01563 -0.8073,1e-5 -1.48601,0.27019 -2.03614,0.81055 -0.55013,0.54037 -0.85449,1.26303 -0.91308,2.16797 z"
       style="font-size:20px;fill:#b9cde5"
       id="path3216"
       inkscape:connector-curvature="0" />
    <path
       d="m 148.25781,129.18217 c -0.65105,0.55339 -1.27767,0.94401 -1.87988,1.17188 -0.60222,0.22786 -1.24838,0.34179 -1.93848,0.34179 -1.13932,0 -2.01497,-0.27832 -2.62695,-0.83496 -0.61198,-0.55664 -0.91797,-1.2679 -0.91797,-2.13379 0,-0.5078 0.11556,-0.97167 0.34668,-1.3916 0.23112,-0.41991 0.53385,-0.75683 0.9082,-1.01074 0.37435,-0.2539 0.7959,-0.44596 1.26465,-0.57617 0.34505,-0.0911 0.86588,-0.17903 1.5625,-0.26367 1.41927,-0.16927 2.46419,-0.37109 3.13477,-0.60547 0.006,-0.24088 0.01,-0.39387 0.01,-0.45899 0,-0.71613 -0.16602,-1.22069 -0.49804,-1.51367 -0.44923,-0.39712 -1.11655,-0.59569 -2.00196,-0.5957 -0.82682,10e-6 -1.43717,0.14486 -1.83105,0.43457 -0.39388,0.28972 -0.68523,0.80242 -0.87402,1.53809 l -1.71875,-0.23438 c 0.15624,-0.73567 0.41341,-1.32974 0.77148,-1.78223 0.35807,-0.45246 0.87565,-0.80077 1.55273,-1.04492 0.67708,-0.24413 1.46159,-0.3662 2.35352,-0.36621 0.88541,1e-5 1.60481,0.10418 2.1582,0.3125 0.55338,0.20834 0.96028,0.47039 1.22071,0.78613 0.2604,0.31577 0.4427,0.71453 0.54687,1.19629 0.0586,0.29949 0.0879,0.83985 0.0879,1.6211 l 0,2.34375 c -1e-5,1.63411 0.0374,2.66764 0.11231,3.10058 0.0749,0.43295 0.22297,0.84798 0.44433,1.24512 l -1.83594,0 c -0.18229,-0.36458 -0.29948,-0.79102 -0.35156,-1.2793 z m -0.14648,-3.92578 c -0.63803,0.26042 -1.59506,0.48178 -2.8711,0.66406 -0.72266,0.10418 -1.23372,0.22136 -1.5332,0.35157 -0.29948,0.13021 -0.5306,0.32064 -0.69336,0.57129 -0.16276,0.25065 -0.24414,0.52897 -0.24414,0.83496 0,0.46875 0.17741,0.85937 0.53223,1.17187 0.35481,0.3125 0.87402,0.46875 1.55761,0.46875 0.67708,0 1.2793,-0.14811 1.80665,-0.44433 0.52733,-0.29623 0.9147,-0.7015 1.1621,-1.21582 0.1888,-0.39714 0.2832,-0.98307 0.28321,-1.75782 z"
       style="font-size:20px;fill:#b9cde5"
       id="path3218"
       inkscape:connector-curvature="0" />
    <path
       d="m 152.62305,130.46147 0,-10.37109 1.57226,0 0,1.45507 c 0.32552,-0.5078 0.75846,-0.91633 1.29883,-1.22558 0.54036,-0.30924 1.15559,-0.46386 1.8457,-0.46387 0.76823,1e-5 1.39811,0.15952 1.88965,0.47852 0.49153,0.31902 0.83821,0.76498 1.04004,1.33789 0.8203,-1.21093 1.88801,-1.8164 3.20313,-1.81641 1.02863,1e-5 1.81964,0.28484 2.37304,0.85449 0.55337,0.56967 0.83007,1.44695 0.83008,2.63184 l 0,7.11914 -1.74805,0 0,-6.5332 c -1e-5,-0.70312 -0.057,-1.20931 -0.17089,-1.51856 -0.11395,-0.30923 -0.32066,-0.55826 -0.62012,-0.74707 -0.29949,-0.18879 -0.65106,-0.28319 -1.05469,-0.2832 -0.72918,1e-5 -1.33464,0.24252 -1.81641,0.72754 -0.48178,0.48503 -0.72266,1.2614 -0.72265,2.3291 l 0,6.02539 -1.75781,0 0,-6.73828 c -1e-5,-0.78124 -0.14324,-1.36718 -0.42969,-1.75781 -0.28647,-0.39062 -0.75522,-0.58593 -1.40625,-0.58594 -0.4948,1e-5 -0.95215,0.13022 -1.37207,0.39062 -0.41993,0.26043 -0.72429,0.64129 -0.91309,1.14258 -0.1888,0.50131 -0.2832,1.22397 -0.2832,2.16797 l 0,5.38086 z"
       style="font-size:20px;fill:#b9cde5"
       id="path3220"
       inkscape:connector-curvature="0" />
  </g>
  <g
     transform="matrix(1.1105668,0.09276638,-0.09276638,1.1105668,5.11966,-69.200753)"
     inkscape:transform-center-x="0.70844702"
     inkscape:transform-center-y="-11.481994"
     style="font-size:17.04900742px;font-style:normal;font-weight:normal;line-height:125%;letter-spacing:0px;word-spacing:0px;fill:#b9cde5;fill-opacity:1;stroke:none;font-family:Arial;-inkscape-font-specification:Arial"
     id="flowRoot3078-1">
    <path
       d="m 118.1278,127.9957 0,-12.20403 4.60357,0 c 0.81026,1e-5 1.42907,0.0389 1.85641,0.11655 0.59937,0.0999 1.10163,0.28999 1.50677,0.57024 0.40513,0.28028 0.73118,0.67293 0.97816,1.17795 0.24695,0.50504 0.37043,1.06002 0.37045,1.66494 -2e-5,1.03782 -0.33023,1.91608 -0.99065,2.63477 -0.66043,0.71871 -1.85364,1.07806 -3.57962,1.07805 l -3.13009,0 0,4.96153 z m 1.615,-6.4017 3.15506,0 c 1.04336,0 1.78426,-0.19424 2.2227,-0.58273 0.43843,-0.38848 0.65764,-0.93514 0.65765,-1.63997 -1e-5,-0.51057 -0.12904,-0.94762 -0.3871,-1.31114 -0.25807,-0.36351 -0.598,-0.60353 -1.01977,-0.72009 -0.27195,-0.0721 -0.77421,-0.10821 -1.50678,-0.10822 l -3.12176,0 z"
       style="fill:#b9cde5"
       id="path3199"
       inkscape:connector-curvature="0" />
    <path
       d="m 129.30789,127.9957 0,-8.84084 1.3486,0 0,1.34027 c 0.34409,-0.62712 0.66182,-1.04058 0.95318,-1.24038 0.29136,-0.19978 0.61187,-0.29968 0.96151,-0.29969 0.50503,1e-5 1.01838,0.16096 1.54007,0.48284 l -0.51613,1.39022 c -0.3663,-0.21643 -0.73258,-0.32465 -1.09886,-0.32466 -0.32745,10e-6 -0.62159,0.0985 -0.88242,0.29553 -0.26085,0.19702 -0.44677,0.47035 -0.55776,0.81998 -0.1665,0.53279 -0.24974,1.11552 -0.24974,1.74819 l 0,4.62854 z"
       style="fill:#b9cde5"
       id="path3201"
       inkscape:connector-curvature="0" />
    <path
       d="m 134.46089,123.57528 c 0,-1.63719 0.45508,-2.84982 1.36525,-3.6379 0.76032,-0.65487 1.68714,-0.98231 2.78045,-0.98232 1.2154,1e-5 2.20882,0.39821 2.98025,1.1946 0.77141,0.7964 1.15712,1.89665 1.15713,3.30075 -1e-5,1.13771 -0.17066,2.03262 -0.51197,2.68472 -0.34132,0.6521 -0.83802,1.15852 -1.49012,1.51926 -0.65211,0.36073 -1.36387,0.5411 -2.13529,0.5411 -1.23761,0 -2.23796,-0.39681 -3.00106,-1.19043 -0.7631,-0.79362 -1.14464,-1.93688 -1.14464,-3.42978 z m 1.54007,0 c 0,1.13216 0.24696,1.97989 0.7409,2.5432 0.49393,0.5633 1.1155,0.84496 1.86473,0.84495 0.74367,1e-5 1.36247,-0.28303 1.85641,-0.84912 0.49393,-0.56607 0.74089,-1.42907 0.7409,-2.58898 -1e-5,-1.09331 -0.24836,-1.92162 -0.74506,-2.48493 -0.49671,-0.5633 -1.11413,-0.84495 -1.85225,-0.84496 -0.74923,10e-6 -1.3708,0.28028 -1.86473,0.8408 -0.49394,0.56054 -0.7409,1.40688 -0.7409,2.53904 z"
       style="fill:#b9cde5"
       id="path3203"
       inkscape:connector-curvature="0" />
    <path
       d="m 144.50049,117.53154 0,-1.73987 1.49845,0 0,1.73987 z m -1.89804,13.89394 0.28304,-1.27368 c 0.29969,0.0777 0.53556,0.11654 0.70761,0.11654 0.30523,0 0.53278,-0.10128 0.68262,-0.30385 0.14985,-0.20257 0.22477,-0.70899 0.22477,-1.51926 l 0,-9.29037 1.49845,0 0,9.32367 c -1e-5,1.08776 -0.14153,1.84531 -0.42456,2.27265 -0.36074,0.55498 -0.96012,0.83247 -1.79814,0.83247 -0.40514,0 -0.7964,-0.0527 -1.17379,-0.15817 z"
       style="fill:#b9cde5"
       id="path3205"
       inkscape:connector-curvature="0" />
    <path
       d="m 154.35695,125.14865 1.54839,0.19147 c -0.2442,0.90462 -0.69651,1.60667 -1.35693,2.10615 -0.66043,0.49948 -1.504,0.74922 -2.53071,0.74922 -1.29311,0 -2.31843,-0.3982 -3.07598,-1.19459 -0.75755,-0.7964 -1.13632,-1.9133 -1.13632,-3.3507 0,-1.48734 0.38293,-2.6417 1.14881,-3.46308 0.76587,-0.82136 1.75928,-1.23205 2.98025,-1.23206 1.1821,1e-5 2.14776,0.40237 2.89699,1.20709 0.74922,0.80472 1.12383,1.93688 1.12384,3.39648 -1e-5,0.0888 -0.003,0.22199 -0.008,0.39958 l -6.59317,0 c 0.0555,0.97122 0.33021,1.7149 0.82414,2.23103 0.49393,0.51613 1.10996,0.7742 1.84809,0.77419 0.54942,1e-5 1.01838,-0.14429 1.40687,-0.43288 0.38848,-0.28859 0.6965,-0.74922 0.92405,-1.3819 z m -4.91991,-2.42249 4.93656,0 c -0.0666,-0.74367 -0.2553,-1.30143 -0.56608,-1.67327 -0.47729,-0.57717 -1.0961,-0.86576 -1.85642,-0.86577 -0.68818,1e-5 -1.26674,0.23032 -1.7357,0.69095 -0.46896,0.46064 -0.72841,1.07667 -0.77836,1.84809 z"
       style="fill:#b9cde5"
       id="path3207"
       inkscape:connector-curvature="0" />
    <path
       d="m 163.56408,124.75739 1.47347,0.19146 c -0.16095,1.01562 -0.57303,1.81063 -1.23622,2.38503 -0.66321,0.57441 -1.47764,0.86161 -2.4433,0.86161 -1.20986,0 -2.18247,-0.39542 -2.91781,-1.18627 -0.73535,-0.79085 -1.10303,-1.92439 -1.10303,-3.40064 0,-0.95457 0.15817,-1.78981 0.47451,-2.50574 0.31634,-0.71592 0.79778,-1.25286 1.44434,-1.61083 0.64655,-0.35796 1.34998,-0.53694 2.11031,-0.53695 0.96011,1e-5 1.74541,0.24282 2.35589,0.72841 0.61048,0.48562 1.00174,1.17518 1.17379,2.0687 l -1.45683,0.22476 c -0.13875,-0.59382 -0.38433,-1.04058 -0.73673,-1.34028 -0.35242,-0.29968 -0.77837,-0.44952 -1.27785,-0.44953 -0.75477,1e-5 -1.36803,0.27056 -1.83976,0.81166 -0.47173,0.54111 -0.7076,1.39717 -0.7076,2.56817 0,1.18766 0.22754,2.05066 0.68263,2.58899 0.45508,0.53833 1.04891,0.8075 1.78149,0.80749 0.58827,1e-5 1.07943,-0.18036 1.47347,-0.5411 0.39403,-0.36074 0.64377,-0.91572 0.74923,-1.66494 z"
       style="fill:#b9cde5"
       id="path3209"
       inkscape:connector-curvature="0" />
    <path
       d="m 169.59117,126.65542 0.21644,1.32363 c -0.42179,0.0888 -0.79918,0.13319 -1.13216,0.13319 -0.54388,0 -0.96567,-0.086 -1.26536,-0.25806 -0.29969,-0.17205 -0.51058,-0.3982 -0.63267,-0.67847 -0.1221,-0.28026 -0.18315,-0.86993 -0.18315,-1.769 l 0,-5.08639 -1.09886,0 0,-1.16546 1.09886,0 0,-2.1894 1.49013,-0.89907 0,3.08847 1.50677,0 0,1.16546 -1.50677,0 0,5.16964 c -10e-6,0.42734 0.0264,0.70205 0.0791,0.82415 0.0527,0.12209 0.13874,0.21922 0.25807,0.29136 0.11931,0.0722 0.28997,0.10822 0.51197,0.10822 0.16649,0 0.3857,-0.0194 0.65765,-0.0583 z"
       style="fill:#b9cde5"
       id="path3211"
       inkscape:connector-curvature="0" />
  </g>
  <g
     transform="matrix(0.99781364,0.06609042,-0.06609042,0.99781364,135.78776,-40.363673)"
     style="font-size:40px;font-style:normal;font-weight:normal;line-height:125%;letter-spacing:0px;word-spacing:0px;fill:#b9cde5;fill-opacity:1;stroke:none;font-family:Arial;-inkscape-font-specification:Arial"
     id="flowRoot3078-9">
    <path
       d="m 118.33594,130.46147 0,-14.31641 1.94336,0 7.51953,11.24024 0,-11.24024 1.8164,0 0,14.31641 -1.94335,0 -7.51954,-11.25 0,11.25 z"
       style="font-size:20px;fill:#b9cde5"
       id="path3182"
       inkscape:connector-curvature="0" />
    <path
       d="m 131.92969,125.27592 c 0,-1.92056 0.53385,-3.34309 1.60156,-4.26758 0.89192,-0.76821 1.97916,-1.15233 3.26172,-1.15234 1.42577,1e-5 2.59114,0.46713 3.49609,1.40137 0.90494,0.93425 1.35741,2.22494 1.35742,3.87207 -1e-5,1.33464 -0.2002,2.38444 -0.60058,3.14941 -0.4004,0.76498 -0.98308,1.35905 -1.74805,1.78223 -0.76498,0.42318 -1.59994,0.63476 -2.50488,0.63476 -1.45183,0 -2.62533,-0.46549 -3.52051,-1.39648 -0.89518,-0.93099 -1.34277,-2.27213 -1.34277,-4.02344 z m 1.80664,0 c 0,1.32813 0.28971,2.3226 0.86914,2.9834 0.57942,0.66081 1.30859,0.99121 2.1875,0.99121 0.87239,0 1.5983,-0.33203 2.17773,-0.99609 0.57942,-0.66406 0.86914,-1.67643 0.86914,-3.03711 0,-1.28255 -0.29135,-2.25423 -0.87402,-2.91504 -0.58269,-0.6608 -1.30697,-0.9912 -2.17285,-0.99121 -0.87891,10e-6 -1.60808,0.32878 -2.1875,0.98633 -0.57943,0.65756 -0.86914,1.65039 -0.86914,2.97851 z"
       style="font-size:20px;fill:#b9cde5"
       id="path3184"
       inkscape:connector-curvature="0" />
    <path
       d="m 147.55469,128.8892 0.2539,1.55274 c -0.49479,0.10416 -0.9375,0.15625 -1.32812,0.15625 -0.63803,0 -1.13282,-0.10091 -1.48438,-0.30274 -0.35156,-0.20182 -0.59896,-0.46712 -0.74218,-0.79589 -0.14323,-0.32878 -0.21485,-1.02051 -0.21485,-2.0752 l 0,-5.9668 -1.28906,0 0,-1.36718 1.28906,0 0,-2.56836 1.74805,-1.05469 0,3.62305 1.76758,0 0,1.36718 -1.76758,0 0,6.06446 c 0,0.5013 0.0309,0.82357 0.0928,0.96679 0.0618,0.14323 0.16276,0.25717 0.30274,0.3418 0.13997,0.0846 0.34016,0.12695 0.60058,0.12695 0.19531,0 0.45247,-0.0228 0.77149,-0.0684 z"
       style="font-size:20px;fill:#b9cde5"
       id="path3186"
       inkscape:connector-curvature="0" />
    <path
       d="m 156.36328,127.12163 1.81641,0.22461 c -0.28647,1.0612 -0.81707,1.88476 -1.5918,2.4707 -0.77475,0.58594 -1.76433,0.8789 -2.96875,0.8789 -1.51693,0 -2.71973,-0.46712 -3.6084,-1.40136 -0.88867,-0.93425 -1.33301,-2.24447 -1.33301,-3.93067 0,-1.74478 0.44922,-3.09895 1.34766,-4.0625 0.89844,-0.96353 2.0638,-1.4453 3.49609,-1.44531 1.38672,1e-5 2.51953,0.47202 3.39844,1.41602 0.8789,0.94402 1.31835,2.27214 1.31836,3.98437 -1e-5,0.10417 -0.003,0.26042 -0.01,0.46875 l -7.73438,0 c 0.0651,1.13933 0.38737,2.01172 0.9668,2.61719 0.57942,0.60547 1.30208,0.9082 2.16797,0.9082 0.64452,0 1.19465,-0.16927 1.65039,-0.50781 0.45572,-0.33854 0.81705,-0.8789 1.08398,-1.62109 z m -5.77148,-2.8418 5.79101,0 c -0.0781,-0.87239 -0.29948,-1.52669 -0.66406,-1.96289 -0.5599,-0.67708 -1.28581,-1.01562 -2.17773,-1.01563 -0.8073,1e-5 -1.48601,0.27019 -2.03614,0.81055 -0.55013,0.54037 -0.85449,1.26303 -0.91308,2.16797 z"
       style="font-size:20px;fill:#b9cde5"
       id="path3188"
       inkscape:connector-curvature="0" />
    <path
       d="m 162.01758,130.46147 -1.63086,0 0,-14.31641 1.75781,0 0,5.10743 c 0.74218,-0.93098 1.68945,-1.39648 2.8418,-1.39649 0.63801,1e-5 1.24185,0.12859 1.81152,0.38574 0.56965,0.25717 1.0384,0.6185 1.40625,1.08399 0.36783,0.4655 0.65592,1.02702 0.86426,1.68457 0.20832,0.65756 0.31249,1.36068 0.3125,2.10937 -1e-5,1.77735 -0.43946,3.15105 -1.31836,4.1211 -0.87891,0.97005 -1.9336,1.45507 -3.16406,1.45507 -1.22397,0 -2.18425,-0.51106 -2.88086,-1.5332 z m -0.0195,-5.26367 c -10e-6,1.24349 0.16926,2.14193 0.50781,2.69531 0.55338,0.90495 1.30208,1.35742 2.24609,1.35742 0.76823,0 1.43229,-0.33366 1.99219,-1.00097 0.55989,-0.66732 0.83984,-1.66178 0.83984,-2.9834 0,-1.35416 -0.26856,-2.35351 -0.80566,-2.99805 -0.53712,-0.64452 -1.18653,-0.96679 -1.94824,-0.9668 -0.76824,1e-5 -1.4323,0.33367 -1.99219,1.00098 -0.5599,0.66733 -0.83985,1.63249 -0.83984,2.89551 z"
       style="font-size:20px;fill:#b9cde5"
       id="path3190"
       inkscape:connector-curvature="0" />
    <path
       d="m 170.875,125.27592 c 0,-1.92056 0.53385,-3.34309 1.60156,-4.26758 0.89193,-0.76821 1.97916,-1.15233 3.26172,-1.15234 1.42578,1e-5 2.59114,0.46713 3.49609,1.40137 0.90494,0.93425 1.35742,2.22494 1.35743,3.87207 -1e-5,1.33464 -0.20021,2.38444 -0.60059,3.14941 -0.4004,0.76498 -0.98308,1.35905 -1.74805,1.78223 -0.76498,0.42318 -1.59994,0.63476 -2.50488,0.63476 -1.45183,0 -2.62533,-0.46549 -3.52051,-1.39648 -0.89518,-0.93099 -1.34277,-2.27213 -1.34277,-4.02344 z m 1.80664,0 c 0,1.32813 0.28971,2.3226 0.86914,2.9834 0.57942,0.66081 1.30859,0.99121 2.1875,0.99121 0.87239,0 1.5983,-0.33203 2.17774,-0.99609 0.57941,-0.66406 0.86913,-1.67643 0.86914,-3.03711 -1e-5,-1.28255 -0.29135,-2.25423 -0.87403,-2.91504 -0.58269,-0.6608 -1.30697,-0.9912 -2.17285,-0.99121 -0.87891,10e-6 -1.60808,0.32878 -2.1875,0.98633 -0.57943,0.65756 -0.86914,1.65039 -0.86914,2.97851 z"
       style="font-size:20px;fill:#b9cde5"
       id="path3192"
       inkscape:connector-curvature="0" />
    <path
       d="m 182.00781,125.27592 c 0,-1.92056 0.53386,-3.34309 1.60156,-4.26758 0.89193,-0.76821 1.97917,-1.15233 3.26172,-1.15234 1.42578,1e-5 2.59114,0.46713 3.4961,1.40137 0.90494,0.93425 1.35741,2.22494 1.35742,3.87207 -1e-5,1.33464 -0.20021,2.38444 -0.60059,3.14941 -0.4004,0.76498 -0.98308,1.35905 -1.74804,1.78223 -0.76498,0.42318 -1.59994,0.63476 -2.50489,0.63476 -1.45182,0 -2.62532,-0.46549 -3.5205,-1.39648 -0.89519,-0.93099 -1.34278,-2.27213 -1.34278,-4.02344 z m 1.80664,0 c 0,1.32813 0.28971,2.3226 0.86914,2.9834 0.57943,0.66081 1.30859,0.99121 2.1875,0.99121 0.87239,0 1.5983,-0.33203 2.17774,-0.99609 0.57942,-0.66406 0.86913,-1.67643 0.86914,-3.03711 -1e-5,-1.28255 -0.29135,-2.25423 -0.87402,-2.91504 -0.58269,-0.6608 -1.30698,-0.9912 -2.17286,-0.99121 -0.87891,10e-6 -1.60807,0.32878 -2.1875,0.98633 -0.57943,0.65756 -0.86914,1.65039 -0.86914,2.97851 z"
       style="font-size:20px;fill:#b9cde5"
       id="path3194"
       inkscape:connector-curvature="0" />
    <path
       d="m 193.80469,130.46147 0,-14.31641 1.75781,0 0,8.16407 4.16016,-4.21875 2.27539,0 -3.96485,3.84765 4.36524,6.52344 -2.16797,0 -3.42774,-5.30273 -1.24023,1.1914 0,4.11133 z"
       style="font-size:20px;fill:#b9cde5"
       id="path3196"
       inkscape:connector-curvature="0" />
  </g>
  <g
     transform="matrix(0.99992859,0.0119504,-0.0119504,0.99992859,276.23446,-25.967794)"
     style="font-size:40px;font-style:normal;font-weight:normal;line-height:125%;letter-spacing:0px;word-spacing:0px;fill:#b9cde5;fill-opacity:1;stroke:none;font-family:Arial;-inkscape-font-specification:Arial"
     id="flowRoot3078-2">
    <path
       d="m 117.71094,125.86186 1.78711,-0.15625 c 0.0846,0.71615 0.28157,1.30371 0.59082,1.7627 0.30924,0.45898 0.78938,0.83008 1.44043,1.11328 0.65103,0.2832 1.38345,0.4248 2.19726,0.4248 0.72265,0 1.36067,-0.10742 1.91407,-0.32226 0.55337,-0.21485 0.96515,-0.50944 1.23535,-0.88379 0.27017,-0.37435 0.40526,-0.78288 0.40527,-1.22559 -1e-5,-0.44921 -0.13022,-0.84147 -0.39062,-1.17676 -0.26043,-0.33528 -0.69012,-0.61685 -1.28907,-0.84472 -0.38412,-0.14974 -1.23373,-0.38248 -2.54883,-0.69825 -1.3151,-0.31574 -2.23633,-0.6136 -2.76367,-0.89355 -0.68359,-0.35807 -1.19303,-0.8024 -1.52832,-1.33301 -0.33529,-0.53059 -0.50293,-1.12466 -0.50293,-1.78222 0,-0.72265 0.20508,-1.3981 0.61524,-2.02637 0.41015,-0.62824 1.00911,-1.10513 1.79687,-1.43067 0.78776,-0.3255 1.66341,-0.48826 2.62696,-0.48828 1.06119,2e-5 1.99706,0.17092 2.80761,0.5127 0.81054,0.34181 1.43391,0.84474 1.87012,1.50879 0.43619,0.66407 0.67056,1.41602 0.70312,2.25586 l -1.8164,0.13672 c -0.0977,-0.90494 -0.42807,-1.58853 -0.99121,-2.05079 -0.56316,-0.46222 -1.39487,-0.69334 -2.49512,-0.69336 -1.14584,2e-5 -1.9808,0.20998 -2.50488,0.62989 -0.52409,0.41993 -0.78614,0.92612 -0.78614,1.51855 0,0.51434 0.18555,0.93751 0.55665,1.26953 0.36457,0.33204 1.31672,0.67221 2.85644,1.02051 1.53971,0.34832 2.59602,0.65268 3.16895,0.91309 0.83332,0.38412 1.44855,0.87077 1.8457,1.45996 0.39712,0.5892 0.59569,1.26791 0.5957,2.03613 -1e-5,0.76172 -0.21811,1.4795 -0.6543,2.15332 -0.4362,0.67383 -1.06283,1.19792 -1.87988,1.57227 -0.81706,0.37435 -1.73666,0.56152 -2.75879,0.56152 -1.29558,0 -2.38119,-0.1888 -3.25683,-0.56641 -0.87566,-0.3776 -1.5625,-0.94563 -2.06055,-1.7041 -0.49805,-0.75846 -0.76009,-1.6162 -0.78613,-2.57324 z"
       style="font-size:20px;fill:#b9cde5"
       id="path3153"
       inkscape:connector-curvature="0" />
    <path
       d="m 138.28711,130.46147 0,-1.52344 c -0.8073,1.17188 -1.9043,1.75781 -3.29102,1.75781 -0.61198,0 -1.18327,-0.11718 -1.71386,-0.35156 -0.5306,-0.23437 -0.92448,-0.52897 -1.18164,-0.88379 -0.25717,-0.35481 -0.43783,-0.78938 -0.542,-1.30371 -0.0716,-0.34505 -0.10742,-0.89192 -0.10742,-1.64062 l 0,-6.42578 1.75781,0 0,5.75195 c 0,0.91797 0.0358,1.53646 0.10743,1.85547 0.11067,0.46224 0.34504,0.82519 0.70312,1.08886 0.35807,0.26368 0.80078,0.39551 1.32813,0.39551 0.52733,0 1.02213,-0.13509 1.48437,-0.40527 0.46223,-0.27018 0.78938,-0.63802 0.98145,-1.10352 0.19205,-0.46549 0.28807,-1.14094 0.28808,-2.02636 l 0,-5.55664 1.75781,0 0,10.37109 z"
       style="font-size:20px;fill:#b9cde5"
       id="path3155"
       inkscape:connector-curvature="0" />
    <path
       d="m 144.24414,130.46147 -1.63086,0 0,-14.31641 1.75781,0 0,5.10743 c 0.74219,-0.93098 1.68945,-1.39648 2.8418,-1.39649 0.63801,1e-5 1.24186,0.12859 1.81152,0.38574 0.56966,0.25717 1.03841,0.6185 1.40625,1.08399 0.36783,0.4655 0.65592,1.02702 0.86426,1.68457 0.20833,0.65756 0.31249,1.36068 0.3125,2.10937 -1e-5,1.77735 -0.43946,3.15105 -1.31836,4.1211 -0.87891,0.97005 -1.9336,1.45507 -3.16406,1.45507 -1.22396,0 -2.18425,-0.51106 -2.88086,-1.5332 z m -0.0195,-5.26367 c 0,1.24349 0.16927,2.14193 0.50781,2.69531 0.55338,0.90495 1.30208,1.35742 2.2461,1.35742 0.76822,0 1.43228,-0.33366 1.99218,-1.00097 0.55989,-0.66732 0.83984,-1.66178 0.83985,-2.9834 -10e-6,-1.35416 -0.26857,-2.35351 -0.80567,-2.99805 -0.53711,-0.64452 -1.18653,-0.96679 -1.94824,-0.9668 -0.76823,1e-5 -1.4323,0.33367 -1.99219,1.00098 -0.5599,0.66733 -0.83984,1.63249 -0.83984,2.89551 z"
       style="font-size:20px;fill:#b9cde5"
       id="path3157"
       inkscape:connector-curvature="0" />
    <path
       d="m 153.75586,130.46147 0,-10.37109 1.57226,0 0,1.45507 c 0.32552,-0.5078 0.75846,-0.91633 1.29883,-1.22558 0.54036,-0.30924 1.1556,-0.46386 1.84571,-0.46387 0.76822,1e-5 1.3981,0.15952 1.88964,0.47852 0.49153,0.31902 0.83821,0.76498 1.04004,1.33789 0.82031,-1.21093 1.88801,-1.8164 3.20313,-1.81641 1.02863,1e-5 1.81965,0.28484 2.37305,0.85449 0.55337,0.56967 0.83006,1.44695 0.83007,2.63184 l 0,7.11914 -1.74804,0 0,-6.5332 c -2e-5,-0.70312 -0.057,-1.20931 -0.1709,-1.51856 -0.11395,-0.30923 -0.32065,-0.55826 -0.62012,-0.74707 -0.29949,-0.18879 -0.65105,-0.28319 -1.05469,-0.2832 -0.72917,1e-5 -1.33464,0.24252 -1.8164,0.72754 -0.48178,0.48503 -0.72267,1.2614 -0.72266,2.3291 l 0,6.02539 -1.75781,0 0,-6.73828 c -1e-5,-0.78124 -0.14324,-1.36718 -0.42969,-1.75781 -0.28646,-0.39062 -0.75521,-0.58593 -1.40625,-0.58594 -0.4948,1e-5 -0.95215,0.13022 -1.37207,0.39062 -0.41992,0.26043 -0.72429,0.64129 -0.91309,1.14258 -0.1888,0.50131 -0.2832,1.22397 -0.2832,2.16797 l 0,5.38086 z"
       style="font-size:20px;fill:#b9cde5"
       id="path3159"
       inkscape:connector-curvature="0" />
    <path
       d="m 170.44531,118.16655 0,-2.02149 1.75781,0 0,2.02149 z m 0,12.29492 0,-10.37109 1.75781,0 0,10.37109 z"
       style="font-size:20px;fill:#b9cde5"
       id="path3161"
       inkscape:connector-curvature="0" />
    <path
       d="m 178.72656,128.8892 0.25391,1.55274 c -0.4948,0.10416 -0.93751,0.15625 -1.32813,0.15625 -0.63802,0 -1.13281,-0.10091 -1.48437,-0.30274 -0.35157,-0.20182 -0.59896,-0.46712 -0.74219,-0.79589 -0.14323,-0.32878 -0.21484,-1.02051 -0.21484,-2.0752 l 0,-5.9668 -1.28907,0 0,-1.36718 1.28907,0 0,-2.56836 1.74804,-1.05469 0,3.62305 1.76758,0 0,1.36718 -1.76758,0 0,6.06446 c 0,0.5013 0.0309,0.82357 0.0928,0.96679 0.0618,0.14323 0.16275,0.25717 0.30273,0.3418 0.13997,0.0846 0.34017,0.12695 0.60059,0.12695 0.19531,0 0.45247,-0.0228 0.77148,-0.0684 z"
       style="font-size:20px;fill:#b9cde5"
       id="path3163"
       inkscape:connector-curvature="0" />
    <path
       d="m 184.27344,128.8892 0.2539,1.55274 c -0.49479,0.10416 -0.9375,0.15625 -1.32812,0.15625 -0.63803,0 -1.13282,-0.10091 -1.48438,-0.30274 -0.35156,-0.20182 -0.59896,-0.46712 -0.74218,-0.79589 -0.14323,-0.32878 -0.21485,-1.02051 -0.21485,-2.0752 l 0,-5.9668 -1.28906,0 0,-1.36718 1.28906,0 0,-2.56836 1.74805,-1.05469 0,3.62305 1.76758,0 0,1.36718 -1.76758,0 0,6.06446 c 0,0.5013 0.0309,0.82357 0.0928,0.96679 0.0618,0.14323 0.16276,0.25717 0.30274,0.3418 0.13997,0.0846 0.34016,0.12695 0.60058,0.12695 0.19531,0 0.45247,-0.0228 0.77149,-0.0684 z"
       style="font-size:20px;fill:#b9cde5"
       id="path3165"
       inkscape:connector-curvature="0" />
    <path
       d="m 193.08203,127.12163 1.81641,0.22461 c -0.28647,1.0612 -0.81707,1.88476 -1.5918,2.4707 -0.77475,0.58594 -1.76433,0.8789 -2.96875,0.8789 -1.51693,0 -2.71973,-0.46712 -3.6084,-1.40136 -0.88867,-0.93425 -1.33301,-2.24447 -1.33301,-3.93067 0,-1.74478 0.44922,-3.09895 1.34766,-4.0625 0.89844,-0.96353 2.0638,-1.4453 3.49609,-1.44531 1.38672,1e-5 2.51953,0.47202 3.39844,1.41602 0.8789,0.94402 1.31835,2.27214 1.31836,3.98437 -1e-5,0.10417 -0.003,0.26042 -0.01,0.46875 l -7.73438,0 c 0.0651,1.13933 0.38737,2.01172 0.9668,2.61719 0.57942,0.60547 1.30208,0.9082 2.16797,0.9082 0.64452,0 1.19465,-0.16927 1.65039,-0.50781 0.45572,-0.33854 0.81705,-0.8789 1.08398,-1.62109 z m -5.77148,-2.8418 5.79101,0 c -0.0781,-0.87239 -0.29948,-1.52669 -0.66406,-1.96289 -0.5599,-0.67708 -1.28581,-1.01562 -2.17773,-1.01563 -0.8073,1e-5 -1.48601,0.27019 -2.03614,0.81055 -0.55013,0.54037 -0.85449,1.26303 -0.91308,2.16797 z"
       style="font-size:20px;fill:#b9cde5"
       id="path3167"
       inkscape:connector-curvature="0" />
    <path
       d="m 203.84375,130.46147 0,-1.30859 c -0.65756,1.02864 -1.62436,1.54296 -2.90039,1.54296 -0.82683,0 -1.58692,-0.22786 -2.28027,-0.68359 -0.69337,-0.45573 -1.23047,-1.09212 -1.61133,-1.90918 -0.38086,-0.81705 -0.57129,-1.75618 -0.57129,-2.81738 0,-1.03515 0.17252,-1.97428 0.51758,-2.81738 0.34505,-0.84309 0.86263,-1.48925 1.55273,-1.93848 0.6901,-0.44921 1.46159,-0.67382 2.31445,-0.67383 0.625,1e-5 1.18164,0.13185 1.66993,0.39551 0.48827,0.26368 0.88541,0.6071 1.1914,1.03027 l 0,-5.13672 1.74805,0 0,14.31641 z m -5.55664,-5.17578 c 0,1.32813 0.27994,2.32096 0.83984,2.97851 0.5599,0.65756 1.2207,0.98633 1.98242,0.98633 0.76823,0 1.4209,-0.31412 1.95801,-0.94238 0.5371,-0.62825 0.80566,-1.58691 0.80567,-2.87598 -1e-5,-1.41926 -0.27345,-2.46093 -0.82032,-3.125 -0.54688,-0.66405 -1.2207,-0.99608 -2.02148,-0.99609 -0.78125,10e-6 -1.43392,0.31902 -1.95801,0.95703 -0.52409,0.63803 -0.78613,1.64389 -0.78613,3.01758 z"
       style="font-size:20px;fill:#b9cde5"
       id="path3169"
       inkscape:connector-curvature="0" />
    <path
       d="m 214.01953,130.46147 0,-14.31641 5.40039,0 c 0.95051,2e-5 1.67643,0.0456 2.17774,0.13672 0.70311,0.1172 1.2923,0.34019 1.76757,0.66895 0.47525,0.32879 0.85774,0.7894 1.14747,1.38183 0.2897,0.59246 0.43455,1.2435 0.43457,1.95313 -2e-5,1.21746 -0.38739,2.24773 -1.16211,3.09082 -0.77475,0.8431 -2.17449,1.26465 -4.19922,1.26465 l -3.67188,0 0,5.82031 z m 1.89453,-7.50977 3.70117,0 c 1.22395,1e-5 2.09309,-0.22785 2.60743,-0.68359 0.51431,-0.45572 0.77147,-1.097 0.77148,-1.92383 -10e-6,-0.59895 -0.15138,-1.11164 -0.4541,-1.53808 -0.30275,-0.42642 -0.70151,-0.708 -1.19629,-0.84473 -0.31902,-0.0846 -0.90821,-0.12694 -1.76758,-0.12695 l -3.66211,0 z"
       style="font-size:20px;fill:#b9cde5"
       id="path3171"
       inkscape:connector-curvature="0" />
    <path
       d="m 233.92187,129.18217 c -0.65104,0.55339 -1.27767,0.94401 -1.87988,1.17188 -0.60222,0.22786 -1.24838,0.34179 -1.93847,0.34179 -1.13933,0 -2.01498,-0.27832 -2.62696,-0.83496 -0.61198,-0.55664 -0.91797,-1.2679 -0.91797,-2.13379 0,-0.5078 0.11556,-0.97167 0.34668,-1.3916 0.23112,-0.41991 0.53386,-0.75683 0.90821,-1.01074 0.37434,-0.2539 0.79589,-0.44596 1.26464,-0.57617 0.34505,-0.0911 0.86589,-0.17903 1.5625,-0.26367 1.41927,-0.16927 2.46419,-0.37109 3.13477,-0.60547 0.007,-0.24088 0.01,-0.39387 0.01,-0.45899 -1e-5,-0.71613 -0.16603,-1.22069 -0.49805,-1.51367 -0.44923,-0.39712 -1.11654,-0.59569 -2.00195,-0.5957 -0.82683,10e-6 -1.43718,0.14486 -1.83106,0.43457 -0.39388,0.28972 -0.68522,0.80242 -0.87402,1.53809 l -1.71875,-0.23438 c 0.15625,-0.73567 0.41341,-1.32974 0.77148,-1.78223 0.35807,-0.45246 0.87565,-0.80077 1.55274,-1.04492 0.67708,-0.24413 1.46158,-0.3662 2.35351,-0.36621 0.88541,1e-5 1.60481,0.10418 2.15821,0.3125 0.55337,0.20834 0.96027,0.47039 1.2207,0.78613 0.26041,0.31577 0.4427,0.71453 0.54687,1.19629 0.0586,0.29949 0.0879,0.83985 0.0879,1.6211 l 0,2.34375 c -10e-6,1.63411 0.0374,2.66764 0.11231,3.10058 0.0749,0.43295 0.22297,0.84798 0.44433,1.24512 l -1.83593,0 c -0.1823,-0.36458 -0.29949,-0.79102 -0.35157,-1.2793 z m -0.14648,-3.92578 c -0.63803,0.26042 -1.59506,0.48178 -2.87109,0.66406 -0.72266,0.10418 -1.23373,0.22136 -1.53321,0.35157 -0.29948,0.13021 -0.5306,0.32064 -0.69336,0.57129 -0.16276,0.25065 -0.24414,0.52897 -0.24414,0.83496 0,0.46875 0.17741,0.85937 0.53223,1.17187 0.35481,0.3125 0.87402,0.46875 1.55762,0.46875 0.67708,0 1.27929,-0.14811 1.80664,-0.44433 0.52733,-0.29623 0.9147,-0.7015 1.16211,-1.21582 0.18879,-0.39714 0.28319,-0.98307 0.2832,-1.75782 z"
       style="font-size:20px;fill:#b9cde5"
       id="path3173"
       inkscape:connector-curvature="0" />
    <path
       d="m 238.26758,130.46147 0,-10.37109 1.58203,0 0,1.57226 c 0.40364,-0.73567 0.77636,-1.22069 1.11816,-1.45508 0.3418,-0.23436 0.71777,-0.35155 1.12793,-0.35156 0.59245,1e-5 1.19466,0.18881 1.80664,0.56641 l -0.60547,1.63086 c -0.42969,-0.2539 -0.85938,-0.38085 -1.28906,-0.38086 -0.38412,1e-5 -0.72917,0.11557 -1.03515,0.34668 -0.306,0.23112 -0.5241,0.55176 -0.6543,0.96191 -0.19532,0.62501 -0.29297,1.3086 -0.29297,2.05078 l 0,5.42969 z"
       style="font-size:20px;fill:#b9cde5"
       id="path3175"
       inkscape:connector-curvature="0" />
    <path
       d="m 248.80469,128.8892 0.2539,1.55274 c -0.49479,0.10416 -0.9375,0.15625 -1.32812,0.15625 -0.63803,0 -1.13282,-0.10091 -1.48438,-0.30274 -0.35156,-0.20182 -0.59896,-0.46712 -0.74218,-0.79589 -0.14323,-0.32878 -0.21485,-1.02051 -0.21485,-2.0752 l 0,-5.9668 -1.28906,0 0,-1.36718 1.28906,0 0,-2.56836 1.74805,-1.05469 0,3.62305 1.76758,0 0,1.36718 -1.76758,0 0,6.06446 c 0,0.5013 0.0309,0.82357 0.0928,0.96679 0.0618,0.14323 0.16276,0.25717 0.30274,0.3418 0.13997,0.0846 0.34016,0.12695 0.60058,0.12695 0.19531,0 0.45247,-0.0228 0.77149,-0.0684 z"
       style="font-size:20px;fill:#b9cde5"
       id="path3177"
       inkscape:connector-curvature="0" />
    <path
       d="m 249.81055,127.36577 1.73828,-0.27344 c 0.0976,0.69662 0.36946,1.23047 0.81543,1.60156 0.44596,0.3711 1.06933,0.55664 1.87011,0.55664 0.80729,0 1.40625,-0.16438 1.79688,-0.49316 0.39062,-0.32878 0.58593,-0.71452 0.58594,-1.15723 -10e-6,-0.39713 -0.17254,-0.70963 -0.51758,-0.9375 -0.24089,-0.15624 -0.83985,-0.35481 -1.79688,-0.5957 -1.28906,-0.32552 -2.18262,-0.60709 -2.68066,-0.84473 -0.49805,-0.23762 -0.87565,-0.5664 -1.13281,-0.98633 -0.25716,-0.41991 -0.38575,-0.88378 -0.38574,-1.3916 -1e-5,-0.46223 0.10579,-0.89029 0.31738,-1.28418 0.21159,-0.39387 0.49967,-0.72102 0.86426,-0.98144 0.27343,-0.20182 0.64615,-0.37271 1.11816,-0.5127 0.472,-0.13996 0.97819,-0.20995 1.51855,-0.20996 0.8138,1e-5 1.52832,0.1172 2.14356,0.35156 0.61523,0.23439 1.06933,0.55177 1.3623,0.95215 0.29296,0.4004 0.49479,0.93588 0.60547,1.60645 l -1.71875,0.23437 c -0.0781,-0.53384 -0.30437,-0.95051 -0.67871,-1.25 -0.37435,-0.29947 -0.90332,-0.44921 -1.58691,-0.44922 -0.8073,1e-5 -1.38347,0.13348 -1.72852,0.40039 -0.34505,0.26694 -0.51758,0.57944 -0.51758,0.9375 0,0.22788 0.0716,0.43295 0.21485,0.61524 0.14322,0.18881 0.36783,0.34506 0.67383,0.46875 0.17577,0.0651 0.69335,0.21485 1.55273,0.44922 1.24348,0.33203 2.111,0.60384 2.60254,0.81543 0.49153,0.21159 0.87727,0.51921 1.15723,0.92285 0.27994,0.40365 0.41991,0.90495 0.41992,1.5039 -1e-5,0.58594 -0.17091,1.1377 -0.5127,1.65528 -0.3418,0.51758 -0.83497,0.91797 -1.47949,1.20117 -0.64454,0.2832 -1.3737,0.4248 -2.1875,0.4248 -1.34766,0 -2.37468,-0.27994 -3.08105,-0.83984 -0.70639,-0.55989 -1.15723,-1.38997 -1.35254,-2.49023 z"
       style="font-size:20px;fill:#b9cde5"
       id="path3179"
       inkscape:connector-curvature="0" />
  </g>
  <g
     transform="matrix(0.99844997,-0.05565652,0.05565652,0.99844997,470.93719,-17.305313)"
     style="font-size:40px;font-style:normal;font-weight:normal;line-height:125%;letter-spacing:0px;word-spacing:0px;fill:#b9cde5;fill-opacity:1;stroke:none;font-family:Arial;-inkscape-font-specification:Arial"
     id="flowRoot3078-7">
    <path
       d="m 118.29688,130.46147 0,-14.31641 2.85156,0 3.38867,10.13672 c 0.31249,0.94402 0.54036,1.6504 0.68359,2.11914 0.16275,-0.52083 0.41666,-1.2858 0.76172,-2.29492 l 3.42774,-9.96094 2.54882,0 0,14.31641 -1.82617,0 0,-11.98242 -4.16015,11.98242 -1.70899,0 -4.14062,-12.1875 0,12.1875 z"
       style="font-size:20px;fill:#b9cde5"
       id="path3134"
       inkscape:connector-curvature="0" />
    <path
       d="m 134.15625,125.27592 c 0,-1.92056 0.53385,-3.34309 1.60156,-4.26758 0.89193,-0.76821 1.97916,-1.15233 3.26172,-1.15234 1.42578,1e-5 2.59114,0.46713 3.49609,1.40137 0.90494,0.93425 1.35742,2.22494 1.35743,3.87207 -1e-5,1.33464 -0.20021,2.38444 -0.60059,3.14941 -0.4004,0.76498 -0.98308,1.35905 -1.74805,1.78223 -0.76498,0.42318 -1.59994,0.63476 -2.50488,0.63476 -1.45183,0 -2.62533,-0.46549 -3.52051,-1.39648 -0.89518,-0.93099 -1.34277,-2.27213 -1.34277,-4.02344 z m 1.80664,0 c 0,1.32813 0.28971,2.3226 0.86914,2.9834 0.57942,0.66081 1.30859,0.99121 2.1875,0.99121 0.87239,0 1.5983,-0.33203 2.17774,-0.99609 0.57941,-0.66406 0.86913,-1.67643 0.86914,-3.03711 -1e-5,-1.28255 -0.29135,-2.25423 -0.87403,-2.91504 -0.58269,-0.6608 -1.30697,-0.9912 -2.17285,-0.99121 -0.87891,10e-6 -1.60808,0.32878 -2.1875,0.98633 -0.57943,0.65756 -0.86914,1.65039 -0.86914,2.97851 z"
       style="font-size:20px;fill:#b9cde5"
       id="path3136"
       inkscape:connector-curvature="0" />
    <path
       d="m 152.67187,130.46147 0,-1.30859 c -0.65755,1.02864 -1.62435,1.54296 -2.90039,1.54296 -0.82682,0 -1.58691,-0.22786 -2.28027,-0.68359 -0.69336,-0.45573 -1.23047,-1.09212 -1.61133,-1.90918 -0.38086,-0.81705 -0.57129,-1.75618 -0.57129,-2.81738 0,-1.03515 0.17253,-1.97428 0.51758,-2.81738 0.34505,-0.84309 0.86263,-1.48925 1.55274,-1.93848 0.6901,-0.44921 1.46158,-0.67382 2.31445,-0.67383 0.62499,1e-5 1.18163,0.13185 1.66992,0.39551 0.48828,0.26368 0.88541,0.6071 1.19141,1.03027 l 0,-5.13672 1.74804,0 0,14.31641 z m -5.55664,-5.17578 c 0,1.32813 0.27995,2.32096 0.83985,2.97851 0.55989,0.65756 1.2207,0.98633 1.98242,0.98633 0.76822,0 1.42089,-0.31412 1.95801,-0.94238 0.5371,-0.62825 0.80565,-1.58691 0.80566,-2.87598 -1e-5,-1.41926 -0.27344,-2.46093 -0.82031,-3.125 -0.54688,-0.66405 -1.22071,-0.99608 -2.02149,-0.99609 -0.78125,10e-6 -1.43392,0.31902 -1.958,0.95703 -0.52409,0.63803 -0.78614,1.64389 -0.78614,3.01758 z"
       style="font-size:20px;fill:#b9cde5"
       id="path3138"
       inkscape:connector-curvature="0" />
    <path
       d="m 164.17578,127.12163 1.81641,0.22461 c -0.28647,1.0612 -0.81707,1.88476 -1.5918,2.4707 -0.77475,0.58594 -1.76433,0.8789 -2.96875,0.8789 -1.51693,0 -2.71973,-0.46712 -3.6084,-1.40136 -0.88867,-0.93425 -1.33301,-2.24447 -1.33301,-3.93067 0,-1.74478 0.44922,-3.09895 1.34766,-4.0625 0.89844,-0.96353 2.0638,-1.4453 3.49609,-1.44531 1.38672,1e-5 2.51953,0.47202 3.39844,1.41602 0.8789,0.94402 1.31835,2.27214 1.31836,3.98437 -1e-5,0.10417 -0.003,0.26042 -0.01,0.46875 l -7.73438,0 c 0.0651,1.13933 0.38737,2.01172 0.9668,2.61719 0.57942,0.60547 1.30208,0.9082 2.16797,0.9082 0.64452,0 1.19465,-0.16927 1.65039,-0.50781 0.45572,-0.33854 0.81705,-0.8789 1.08398,-1.62109 z m -5.77148,-2.8418 5.79101,0 c -0.0781,-0.87239 -0.29948,-1.52669 -0.66406,-1.96289 -0.5599,-0.67708 -1.28581,-1.01562 -2.17773,-1.01563 -0.8073,1e-5 -1.48601,0.27019 -2.03614,0.81055 -0.55013,0.54037 -0.85449,1.26303 -0.91308,2.16797 z"
       style="font-size:20px;fill:#b9cde5"
       id="path3140"
       inkscape:connector-curvature="0" />
    <path
       d="m 168.16992,130.46147 0,-14.31641 1.75781,0 0,14.31641 z"
       style="font-size:20px;fill:#b9cde5"
       id="path3142"
       inkscape:connector-curvature="0" />
    <path
       d="m 172.62305,130.46147 0,-14.31641 1.75781,0 0,14.31641 z"
       style="font-size:20px;fill:#b9cde5"
       id="path3144"
       inkscape:connector-curvature="0" />
    <path
       d="m 177.125,118.16655 0,-2.02149 1.75781,0 0,2.02149 z m 0,12.29492 0,-10.37109 1.75781,0 0,10.37109 z"
       style="font-size:20px;fill:#b9cde5"
       id="path3146"
       inkscape:connector-curvature="0" />
    <path
       d="m 181.56836,130.46147 0,-10.37109 1.58203,0 0,1.47461 c 0.76172,-1.13932 1.86198,-1.70898 3.30078,-1.70899 0.625,1e-5 1.19954,0.11232 1.72363,0.33691 0.52408,0.22462 0.91634,0.51922 1.17676,0.88379 0.26041,0.3646 0.4427,0.79754 0.54688,1.29883 0.0651,0.32553 0.0976,0.89519 0.0977,1.70899 l 0,6.37695 -1.75781,0 0,-6.30859 c -1e-5,-0.71614 -0.0684,-1.25162 -0.20508,-1.60645 -0.13672,-0.35481 -0.37924,-0.63801 -0.72754,-0.84961 -0.34831,-0.21158 -0.75684,-0.31737 -1.22558,-0.31738 -0.7487,1e-5 -1.39486,0.23764 -1.93848,0.71289 -0.54362,0.47527 -0.81543,1.37696 -0.81543,2.70508 l 0,5.66406 z"
       style="font-size:20px;fill:#b9cde5"
       id="path3148"
       inkscape:connector-curvature="0" />
    <path
       d="m 192.37891,131.32084 1.70898,0.25391 c 0.0716,0.52734 0.27018,0.91146 0.5957,1.15234 0.4362,0.32552 1.0319,0.48828 1.78711,0.48829 0.8138,-1e-5 1.44205,-0.16277 1.88477,-0.48829 0.4427,-0.32552 0.74218,-0.78125 0.89844,-1.36718 0.0911,-0.35808 0.13345,-1.11003 0.12695,-2.25586 -0.76824,0.90495 -1.72527,1.35742 -2.87109,1.35742 -1.42579,0 -2.5293,-0.51432 -3.31055,-1.54297 -0.78125,-1.02864 -1.17188,-2.26237 -1.17188,-3.70117 0,-0.98958 0.17904,-1.90266 0.53711,-2.73926 0.35807,-0.83658 0.87728,-1.48274 1.55762,-1.93848 0.68034,-0.45571 1.47949,-0.68358 2.39746,-0.68359 1.22395,1e-5 2.23307,0.4948 3.02734,1.48438 l 0,-1.25 1.6211,0 0,8.96484 c -1e-5,1.61458 -0.1644,2.75879 -0.49317,3.43262 -0.32878,0.67382 -0.84961,1.20605 -1.5625,1.59668 -0.71289,0.39062 -1.59017,0.58593 -2.63183,0.58593 -1.23698,0 -2.23633,-0.27832 -2.99805,-0.83496 -0.76172,-0.55664 -1.12956,-1.39486 -1.10351,-2.51465 z m 1.45507,-6.23046 c 0,1.36068 0.27018,2.35351 0.81055,2.97851 0.54036,0.625 1.21744,0.9375 2.03125,0.9375 0.80729,0 1.48437,-0.31087 2.03125,-0.93262 0.54687,-0.62174 0.82031,-1.59667 0.82031,-2.9248 0,-1.26953 -0.28158,-2.22656 -0.84472,-2.87109 -0.56316,-0.64453 -1.24187,-0.96679 -2.03614,-0.9668 -0.78125,10e-6 -1.44531,0.31739 -1.99218,0.95215 -0.54688,0.63477 -0.82032,1.57715 -0.82032,2.82715 z"
       style="font-size:20px;fill:#b9cde5"
       id="path3150"
       inkscape:connector-curvature="0" />
  </g>
  <g
     transform="matrix(0.98530154,-0.17082411,0.17082411,0.98530154,724.4545,-19.462478)"
     style="font-size:40px;font-style:normal;font-weight:normal;line-height:125%;letter-spacing:0px;word-spacing:0px;fill:#b9cde5;fill-opacity:1;stroke:none;font-family:Arial;-inkscape-font-specification:Arial"
     id="flowRoot3078-27">
    <path
       d="m 118.27734,130.46147 0,-14.31641 5.3711,0 c 1.09374,2e-5 1.97102,0.14487 2.63183,0.43457 0.6608,0.28973 1.17838,0.73569 1.55274,1.33789 0.37434,0.60223 0.56151,1.23211 0.56152,1.88965 -1e-5,0.61199 -0.16603,1.18816 -0.49805,1.72852 -0.33204,0.54037 -0.83334,0.97657 -1.5039,1.30859 0.86587,0.25392 1.53156,0.68686 1.99707,1.29883 0.46548,0.61199 0.69823,1.33464 0.69824,2.16797 -10e-6,0.67058 -0.14161,1.29395 -0.4248,1.87012 -0.28322,0.57617 -0.63315,1.02051 -1.04981,1.333 -0.41668,0.3125 -0.93914,0.54851 -1.56738,0.70801 -0.62827,0.15951 -1.39812,0.23926 -2.30957,0.23926 z m 1.89454,-8.30078 3.0957,0 c 0.83983,1e-5 1.44205,-0.0553 1.80664,-0.16602 0.48176,-0.14322 0.84472,-0.38085 1.08887,-0.71289 0.24413,-0.33202 0.3662,-0.74869 0.36621,-1.25 -1e-5,-0.47525 -0.11395,-0.89354 -0.3418,-1.25488 -0.22787,-0.36132 -0.55339,-0.60871 -0.97656,-0.74219 -0.42319,-0.13345 -1.1491,-0.20018 -2.17774,-0.20019 l -2.86132,0 z m 0,6.61133 3.56445,0 c 0.61197,0 1.04166,-0.0228 1.28906,-0.0684 0.43619,-0.0781 0.80077,-0.20833 1.09375,-0.39063 0.29296,-0.18229 0.53384,-0.44759 0.72266,-0.7959 0.18879,-0.3483 0.28319,-0.75032 0.2832,-1.20605 -1e-5,-0.53385 -0.13673,-0.99772 -0.41016,-1.3916 -0.27344,-0.39388 -0.65267,-0.67057 -1.13769,-0.83008 -0.48504,-0.1595 -1.18328,-0.23925 -2.09473,-0.23926 l -3.31054,0 z"
       style="font-size:20px;fill:#b9cde5"
       id="path3094"
       inkscape:connector-curvature="0" />
    <path
       d="m 138.58984,127.12163 1.81641,0.22461 c -0.28647,1.0612 -0.81707,1.88476 -1.5918,2.4707 -0.77474,0.58594 -1.76433,0.8789 -2.96875,0.8789 -1.51693,0 -2.71973,-0.46712 -3.6084,-1.40136 -0.88867,-0.93425 -1.333,-2.24447 -1.333,-3.93067 0,-1.74478 0.44921,-3.09895 1.34765,-4.0625 0.89844,-0.96353 2.0638,-1.4453 3.4961,-1.44531 1.38671,1e-5 2.51952,0.47202 3.39843,1.41602 0.8789,0.94402 1.31835,2.27214 1.31836,3.98437 -1e-5,0.10417 -0.003,0.26042 -0.01,0.46875 l -7.73438,0 c 0.0651,1.13933 0.38737,2.01172 0.9668,2.61719 0.57942,0.60547 1.30208,0.9082 2.16797,0.9082 0.64452,0 1.19465,-0.16927 1.65039,-0.50781 0.45572,-0.33854 0.81705,-0.8789 1.08398,-1.62109 z m -5.77148,-2.8418 5.79101,0 c -0.0781,-0.87239 -0.29948,-1.52669 -0.66406,-1.96289 -0.5599,-0.67708 -1.28581,-1.01562 -2.17773,-1.01563 -0.8073,1e-5 -1.48601,0.27019 -2.03613,0.81055 -0.55014,0.54037 -0.8545,1.26303 -0.91309,2.16797 z"
       style="font-size:20px;fill:#b9cde5"
       id="path3096"
       inkscape:connector-curvature="0" />
    <path
       d="m 142.54492,134.45561 -0.19531,-1.65039 c 0.38411,0.10416 0.7194,0.15625 1.00586,0.15625 0.39062,0 0.70312,-0.0651 0.9375,-0.19531 0.23437,-0.13021 0.42643,-0.3125 0.57617,-0.54688 0.11067,-0.17578 0.28971,-0.61198 0.53711,-1.30859 0.0325,-0.0977 0.0846,-0.24089 0.15625,-0.42969 l -3.93555,-10.39062 1.89453,0 2.15821,6.00586 c 0.27994,0.76172 0.53059,1.5625 0.75195,2.40234 0.20182,-0.80729 0.4427,-1.59505 0.72266,-2.36328 l 2.21679,-6.04492 1.75782,0 -3.94532,10.54687 c -0.42318,1.13932 -0.75195,1.92383 -0.98632,2.35352 -0.31251,0.57942 -0.67058,1.00422 -1.07422,1.27441 -0.40365,0.27018 -0.88542,0.40527 -1.44532,0.40527 -0.33854,0 -0.71614,-0.0716 -1.13281,-0.21484 z"
       style="font-size:20px;fill:#b9cde5"
       id="path3098"
       inkscape:connector-curvature="0" />
    <path
       d="m 151.96875,125.27592 c 0,-1.92056 0.53385,-3.34309 1.60156,-4.26758 0.89193,-0.76821 1.97916,-1.15233 3.26172,-1.15234 1.42578,1e-5 2.59114,0.46713 3.49609,1.40137 0.90494,0.93425 1.35742,2.22494 1.35743,3.87207 -1e-5,1.33464 -0.20021,2.38444 -0.60059,3.14941 -0.4004,0.76498 -0.98308,1.35905 -1.74805,1.78223 -0.76498,0.42318 -1.59994,0.63476 -2.50488,0.63476 -1.45183,0 -2.62533,-0.46549 -3.52051,-1.39648 -0.89518,-0.93099 -1.34277,-2.27213 -1.34277,-4.02344 z m 1.80664,0 c 0,1.32813 0.28971,2.3226 0.86914,2.9834 0.57942,0.66081 1.30859,0.99121 2.1875,0.99121 0.87239,0 1.5983,-0.33203 2.17774,-0.99609 0.57941,-0.66406 0.86913,-1.67643 0.86914,-3.03711 -1e-5,-1.28255 -0.29135,-2.25423 -0.87403,-2.91504 -0.58269,-0.6608 -1.30697,-0.9912 -2.17285,-0.99121 -0.87891,10e-6 -1.60808,0.32878 -2.1875,0.98633 -0.57943,0.65756 -0.86914,1.65039 -0.86914,2.97851 z"
       style="font-size:20px;fill:#b9cde5"
       id="path3100"
       inkscape:connector-curvature="0" />
    <path
       d="m 163.75586,130.46147 0,-10.37109 1.58203,0 0,1.47461 c 0.76172,-1.13932 1.86198,-1.70898 3.30078,-1.70899 0.625,1e-5 1.19954,0.11232 1.72363,0.33691 0.52408,0.22462 0.91634,0.51922 1.17676,0.88379 0.26041,0.3646 0.4427,0.79754 0.54688,1.29883 0.0651,0.32553 0.0976,0.89519 0.0977,1.70899 l 0,6.37695 -1.75781,0 0,-6.30859 c -1e-5,-0.71614 -0.0684,-1.25162 -0.20508,-1.60645 -0.13672,-0.35481 -0.37924,-0.63801 -0.72754,-0.84961 -0.34831,-0.21158 -0.75684,-0.31737 -1.22558,-0.31738 -0.7487,1e-5 -1.39486,0.23764 -1.93848,0.71289 -0.54362,0.47527 -0.81543,1.37696 -0.81543,2.70508 l 0,5.66406 z"
       style="font-size:20px;fill:#b9cde5"
       id="path3102"
       inkscape:connector-curvature="0" />
    <path
       d="m 181.61719,130.46147 0,-1.30859 c -0.65756,1.02864 -1.62436,1.54296 -2.90039,1.54296 -0.82683,0 -1.58692,-0.22786 -2.28028,-0.68359 -0.69336,-0.45573 -1.23047,-1.09212 -1.61132,-1.90918 -0.38086,-0.81705 -0.57129,-1.75618 -0.57129,-2.81738 0,-1.03515 0.17252,-1.97428 0.51757,-2.81738 0.34505,-0.84309 0.86263,-1.48925 1.55274,-1.93848 0.6901,-0.44921 1.46158,-0.67382 2.31445,-0.67383 0.625,1e-5 1.18164,0.13185 1.66992,0.39551 0.48828,0.26368 0.88541,0.6071 1.19141,1.03027 l 0,-5.13672 1.74805,0 0,14.31641 z m -5.55664,-5.17578 c -1e-5,1.32813 0.27994,2.32096 0.83984,2.97851 0.55989,0.65756 1.2207,0.98633 1.98242,0.98633 0.76823,0 1.42089,-0.31412 1.95801,-0.94238 0.5371,-0.62825 0.80566,-1.58691 0.80566,-2.87598 0,-1.41926 -0.27344,-2.46093 -0.82031,-3.125 -0.54688,-0.66405 -1.22071,-0.99608 -2.02148,-0.99609 -0.78126,10e-6 -1.43393,0.31902 -1.95801,0.95703 -0.52409,0.63803 -0.78614,1.64389 -0.78613,3.01758 z"
       style="font-size:20px;fill:#b9cde5"
       id="path3104"
       inkscape:connector-curvature="0" />
    <path
       d="m 191.14844,125.86186 1.78711,-0.15625 c 0.0846,0.71615 0.28157,1.30371 0.59082,1.7627 0.30924,0.45898 0.78938,0.83008 1.44043,1.11328 0.65103,0.2832 1.38345,0.4248 2.19726,0.4248 0.72265,0 1.36067,-0.10742 1.91406,-0.32226 0.55338,-0.21485 0.96516,-0.50944 1.23536,-0.88379 0.27017,-0.37435 0.40526,-0.78288 0.40527,-1.22559 -1e-5,-0.44921 -0.13022,-0.84147 -0.39063,-1.17676 -0.26042,-0.33528 -0.69011,-0.61685 -1.28906,-0.84472 -0.38412,-0.14974 -1.23373,-0.38248 -2.54883,-0.69825 -1.3151,-0.31574 -2.23633,-0.6136 -2.76367,-0.89355 -0.68359,-0.35807 -1.19303,-0.8024 -1.52832,-1.33301 -0.33529,-0.53059 -0.50293,-1.12466 -0.50293,-1.78222 0,-0.72265 0.20508,-1.3981 0.61524,-2.02637 0.41015,-0.62824 1.00911,-1.10513 1.79687,-1.43067 0.78776,-0.3255 1.66341,-0.48826 2.62695,-0.48828 1.0612,2e-5 1.99707,0.17092 2.80762,0.5127 0.81054,0.34181 1.43391,0.84474 1.87012,1.50879 0.43619,0.66407 0.67056,1.41602 0.70312,2.25586 l -1.8164,0.13672 c -0.0977,-0.90494 -0.42807,-1.58853 -0.99121,-2.05079 -0.56316,-0.46222 -1.39487,-0.69334 -2.49512,-0.69336 -1.14584,2e-5 -1.9808,0.20998 -2.50488,0.62989 -0.52409,0.41993 -0.78614,0.92612 -0.78614,1.51855 0,0.51434 0.18555,0.93751 0.55664,1.26953 0.36458,0.33204 1.31673,0.67221 2.85645,1.02051 1.53971,0.34832 2.59602,0.65268 3.16895,0.91309 0.83332,0.38412 1.44855,0.87077 1.8457,1.45996 0.39712,0.5892 0.59569,1.26791 0.5957,2.03613 -1e-5,0.76172 -0.21811,1.4795 -0.6543,2.15332 -0.4362,0.67383 -1.06283,1.19792 -1.87988,1.57227 -0.81706,0.37435 -1.73666,0.56152 -2.75879,0.56152 -1.29558,0 -2.38119,-0.1888 -3.25683,-0.56641 -0.87566,-0.3776 -1.5625,-0.94563 -2.06055,-1.7041 -0.49805,-0.75846 -0.76009,-1.6162 -0.78613,-2.57324 z"
       style="font-size:20px;fill:#b9cde5"
       id="path3106"
       inkscape:connector-curvature="0" />
    <path
       d="m 211.69531,126.66264 1.72852,0.22461 c -0.18881,1.19141 -0.67221,2.12403 -1.4502,2.79785 -0.778,0.67383 -1.7334,1.01074 -2.86621,1.01074 -1.41927,0 -2.56022,-0.46386 -3.42285,-1.3916 -0.86263,-0.92773 -1.29395,-2.25748 -1.29395,-3.98925 0,-1.11979 0.18555,-2.09961 0.55665,-2.93946 0.37109,-0.83983 0.93587,-1.46971 1.69433,-1.88965 0.75846,-0.41991 1.58366,-0.62987 2.47559,-0.62988 1.12629,1e-5 2.04752,0.28484 2.76367,0.85449 0.71614,0.56967 1.17512,1.37859 1.37695,2.42676 l -1.70898,0.26367 c -0.16277,-0.6966 -0.45086,-1.22069 -0.86426,-1.57226 -0.41342,-0.35156 -0.91309,-0.52734 -1.49902,-0.52735 -0.88542,1e-5 -1.60482,0.31739 -2.15821,0.95215 -0.55338,0.63477 -0.83008,1.63901 -0.83007,3.0127 -1e-5,1.39323 0.26692,2.4056 0.80078,3.03711 0.53385,0.63151 1.23046,0.94726 2.08984,0.94726 0.6901,0 1.26627,-0.21159 1.72852,-0.63476 0.46223,-0.42318 0.7552,-1.07422 0.8789,-1.95313 z"
       style="font-size:20px;fill:#b9cde5"
       id="path3108"
       inkscape:connector-curvature="0" />
    <path
       d="m 214.9375,118.16655 0,-2.02149 1.75781,0 0,2.02149 z m 0,12.29492 0,-10.37109 1.75781,0 0,10.37109 z"
       style="font-size:20px;fill:#b9cde5"
       id="path3110"
       inkscape:connector-curvature="0" />
    <path
       d="m 226.48047,127.12163 1.8164,0.22461 c -0.28646,1.0612 -0.81706,1.88476 -1.59179,2.4707 -0.77475,0.58594 -1.76433,0.8789 -2.96875,0.8789 -1.51693,0 -2.71973,-0.46712 -3.6084,-1.40136 -0.88867,-0.93425 -1.33301,-2.24447 -1.33301,-3.93067 0,-1.74478 0.44922,-3.09895 1.34766,-4.0625 0.89843,-0.96353 2.0638,-1.4453 3.49609,-1.44531 1.38671,1e-5 2.51953,0.47202 3.39844,1.41602 0.8789,0.94402 1.31835,2.27214 1.31836,3.98437 -1e-5,0.10417 -0.003,0.26042 -0.01,0.46875 l -7.73437,0 c 0.0651,1.13933 0.38736,2.01172 0.96679,2.61719 0.57943,0.60547 1.30208,0.9082 2.16797,0.9082 0.64453,0 1.19466,-0.16927 1.65039,-0.50781 0.45573,-0.33854 0.81705,-0.8789 1.08399,-1.62109 z m -5.77149,-2.8418 5.79102,0 c -0.0781,-0.87239 -0.29949,-1.52669 -0.66406,-1.96289 -0.55991,-0.67708 -1.28582,-1.01562 -2.17774,-1.01563 -0.80729,1e-5 -1.486,0.27019 -2.03613,0.81055 -0.55013,0.54037 -0.85449,1.26303 -0.91309,2.16797 z"
       style="font-size:20px;fill:#b9cde5"
       id="path3112"
       inkscape:connector-curvature="0" />
    <path
       d="m 230.51367,130.46147 0,-10.37109 1.58203,0 0,1.47461 c 0.76172,-1.13932 1.86198,-1.70898 3.30078,-1.70899 0.625,1e-5 1.19954,0.11232 1.72364,0.33691 0.52408,0.22462 0.91633,0.51922 1.17675,0.88379 0.26041,0.3646 0.4427,0.79754 0.54688,1.29883 0.0651,0.32553 0.0976,0.89519 0.0977,1.70899 l 0,6.37695 -1.75782,0 0,-6.30859 c 0,-0.71614 -0.0684,-1.25162 -0.20507,-1.60645 -0.13673,-0.35481 -0.37924,-0.63801 -0.72754,-0.84961 -0.34832,-0.21158 -0.75685,-0.31737 -1.22559,-0.31738 -0.7487,1e-5 -1.39486,0.23764 -1.93848,0.71289 -0.54362,0.47527 -0.81543,1.37696 -0.81543,2.70508 l 0,5.66406 z"
       style="font-size:20px;fill:#b9cde5"
       id="path3114"
       inkscape:connector-curvature="0" />
    <path
       d="m 248.41406,126.66264 1.72852,0.22461 c -0.18881,1.19141 -0.67221,2.12403 -1.4502,2.79785 -0.778,0.67383 -1.7334,1.01074 -2.86621,1.01074 -1.41927,0 -2.56022,-0.46386 -3.42285,-1.3916 -0.86263,-0.92773 -1.29395,-2.25748 -1.29395,-3.98925 0,-1.11979 0.18555,-2.09961 0.55665,-2.93946 0.37109,-0.83983 0.93587,-1.46971 1.69433,-1.88965 0.75846,-0.41991 1.58366,-0.62987 2.47559,-0.62988 1.12629,1e-5 2.04752,0.28484 2.76367,0.85449 0.71614,0.56967 1.17512,1.37859 1.37695,2.42676 l -1.70898,0.26367 c -0.16277,-0.6966 -0.45086,-1.22069 -0.86426,-1.57226 -0.41342,-0.35156 -0.91309,-0.52734 -1.49902,-0.52735 -0.88542,1e-5 -1.60482,0.31739 -2.15821,0.95215 -0.55338,0.63477 -0.83008,1.63901 -0.83007,3.0127 -1e-5,1.39323 0.26692,2.4056 0.80078,3.03711 0.53385,0.63151 1.23046,0.94726 2.08984,0.94726 0.6901,0 1.26627,-0.21159 1.72852,-0.63476 0.46223,-0.42318 0.7552,-1.07422 0.8789,-1.95313 z"
       style="font-size:20px;fill:#b9cde5"
       id="path3116"
       inkscape:connector-curvature="0" />
    <path
       d="m 258.74609,127.12163 1.81641,0.22461 c -0.28647,1.0612 -0.81707,1.88476 -1.5918,2.4707 -0.77474,0.58594 -1.76433,0.8789 -2.96875,0.8789 -1.51693,0 -2.71973,-0.46712 -3.6084,-1.40136 -0.88867,-0.93425 -1.333,-2.24447 -1.333,-3.93067 0,-1.74478 0.44921,-3.09895 1.34765,-4.0625 0.89844,-0.96353 2.0638,-1.4453 3.4961,-1.44531 1.38671,1e-5 2.51952,0.47202 3.39843,1.41602 0.8789,0.94402 1.31835,2.27214 1.31836,3.98437 -10e-6,0.10417 -0.003,0.26042 -0.01,0.46875 l -7.73438,0 c 0.0651,1.13933 0.38737,2.01172 0.9668,2.61719 0.57942,0.60547 1.30208,0.9082 2.16797,0.9082 0.64452,0 1.19465,-0.16927 1.65039,-0.50781 0.45572,-0.33854 0.81705,-0.8789 1.08398,-1.62109 z m -5.77148,-2.8418 5.79101,0 c -0.0781,-0.87239 -0.29948,-1.52669 -0.66406,-1.96289 -0.5599,-0.67708 -1.28581,-1.01562 -2.17773,-1.01563 -0.8073,1e-5 -1.48601,0.27019 -2.03613,0.81055 -0.55014,0.54037 -0.8545,1.26303 -0.91309,2.16797 z"
       style="font-size:20px;fill:#b9cde5"
       id="path3118"
       inkscape:connector-curvature="0" />
  </g>
  <g
     transform="matrix(0.99700061,-0.07739369,0.07739369,0.99700061,615.26817,-22.540469)"
     inkscape:transform-center-x="-1.0686292"
     inkscape:transform-center-y="-11.402306"
     style="font-size:40px;font-style:normal;font-weight:normal;line-height:125%;letter-spacing:0px;word-spacing:0px;fill:#b9cde5;fill-opacity:1;stroke:none;font-family:Arial;-inkscape-font-specification:Arial"
     id="flowRoot3078-3">
    <path
       d="m 117.71094,125.86186 1.78711,-0.15625 c 0.0846,0.71615 0.28157,1.30371 0.59082,1.7627 0.30924,0.45898 0.78938,0.83008 1.44043,1.11328 0.65103,0.2832 1.38345,0.4248 2.19726,0.4248 0.72265,0 1.36067,-0.10742 1.91407,-0.32226 0.55337,-0.21485 0.96515,-0.50944 1.23535,-0.88379 0.27017,-0.37435 0.40526,-0.78288 0.40527,-1.22559 -1e-5,-0.44921 -0.13022,-0.84147 -0.39062,-1.17676 -0.26043,-0.33528 -0.69012,-0.61685 -1.28907,-0.84472 -0.38412,-0.14974 -1.23373,-0.38248 -2.54883,-0.69825 -1.3151,-0.31574 -2.23633,-0.6136 -2.76367,-0.89355 -0.68359,-0.35807 -1.19303,-0.8024 -1.52832,-1.33301 -0.33529,-0.53059 -0.50293,-1.12466 -0.50293,-1.78222 0,-0.72265 0.20508,-1.3981 0.61524,-2.02637 0.41015,-0.62824 1.00911,-1.10513 1.79687,-1.43067 0.78776,-0.3255 1.66341,-0.48826 2.62696,-0.48828 1.06119,2e-5 1.99706,0.17092 2.80761,0.5127 0.81054,0.34181 1.43391,0.84474 1.87012,1.50879 0.43619,0.66407 0.67056,1.41602 0.70312,2.25586 l -1.8164,0.13672 c -0.0977,-0.90494 -0.42807,-1.58853 -0.99121,-2.05079 -0.56316,-0.46222 -1.39487,-0.69334 -2.49512,-0.69336 -1.14584,2e-5 -1.9808,0.20998 -2.50488,0.62989 -0.52409,0.41993 -0.78614,0.92612 -0.78614,1.51855 0,0.51434 0.18555,0.93751 0.55665,1.26953 0.36457,0.33204 1.31672,0.67221 2.85644,1.02051 1.53971,0.34832 2.59602,0.65268 3.16895,0.91309 0.83332,0.38412 1.44855,0.87077 1.8457,1.45996 0.39712,0.5892 0.59569,1.26791 0.5957,2.03613 -1e-5,0.76172 -0.21811,1.4795 -0.6543,2.15332 -0.4362,0.67383 -1.06283,1.19792 -1.87988,1.57227 -0.81706,0.37435 -1.73666,0.56152 -2.75879,0.56152 -1.29558,0 -2.38119,-0.1888 -3.25683,-0.56641 -0.87566,-0.3776 -1.5625,-0.94563 -2.06055,-1.7041 -0.49805,-0.75846 -0.76009,-1.6162 -0.78613,-2.57324 z"
       style="font-size:20px;fill:#b9cde5"
       id="path3121"
       inkscape:connector-curvature="0" />
    <path
       d="m 138.25781,129.18217 c -0.65105,0.55339 -1.27767,0.94401 -1.87988,1.17188 -0.60222,0.22786 -1.24838,0.34179 -1.93848,0.34179 -1.13932,0 -2.01497,-0.27832 -2.62695,-0.83496 -0.61198,-0.55664 -0.91797,-1.2679 -0.91797,-2.13379 0,-0.5078 0.11556,-0.97167 0.34668,-1.3916 0.23112,-0.41991 0.53385,-0.75683 0.9082,-1.01074 0.37435,-0.2539 0.7959,-0.44596 1.26465,-0.57617 0.34505,-0.0911 0.86588,-0.17903 1.5625,-0.26367 1.41927,-0.16927 2.46419,-0.37109 3.13477,-0.60547 0.006,-0.24088 0.01,-0.39387 0.01,-0.45899 0,-0.71613 -0.16602,-1.22069 -0.49804,-1.51367 -0.44923,-0.39712 -1.11655,-0.59569 -2.00196,-0.5957 -0.82682,10e-6 -1.43717,0.14486 -1.83105,0.43457 -0.39388,0.28972 -0.68523,0.80242 -0.87402,1.53809 l -1.71875,-0.23438 c 0.15624,-0.73567 0.41341,-1.32974 0.77148,-1.78223 0.35807,-0.45246 0.87565,-0.80077 1.55273,-1.04492 0.67708,-0.24413 1.46159,-0.3662 2.35352,-0.36621 0.88541,1e-5 1.60481,0.10418 2.1582,0.3125 0.55338,0.20834 0.96028,0.47039 1.22071,0.78613 0.2604,0.31577 0.4427,0.71453 0.54687,1.19629 0.0586,0.29949 0.0879,0.83985 0.0879,1.6211 l 0,2.34375 c -1e-5,1.63411 0.0374,2.66764 0.11231,3.10058 0.0749,0.43295 0.22297,0.84798 0.44433,1.24512 l -1.83594,0 c -0.18229,-0.36458 -0.29948,-0.79102 -0.35156,-1.2793 z m -0.14648,-3.92578 c -0.63803,0.26042 -1.59506,0.48178 -2.8711,0.66406 -0.72266,0.10418 -1.23372,0.22136 -1.5332,0.35157 -0.29948,0.13021 -0.5306,0.32064 -0.69336,0.57129 -0.16276,0.25065 -0.24414,0.52897 -0.24414,0.83496 0,0.46875 0.17741,0.85937 0.53223,1.17187 0.35481,0.3125 0.87402,0.46875 1.55761,0.46875 0.67708,0 1.2793,-0.14811 1.80665,-0.44433 0.52733,-0.29623 0.9147,-0.7015 1.1621,-1.21582 0.1888,-0.39714 0.2832,-0.98307 0.28321,-1.75782 z"
       style="font-size:20px;fill:#b9cde5"
       id="path3123"
       inkscape:connector-curvature="0" />
    <path
       d="m 143.04297,130.46147 0,-9.00391 -1.55274,0 0,-1.36718 1.55274,0 0,-1.10352 c 0,-0.6966 0.0618,-1.21418 0.18555,-1.55273 0.16926,-0.45572 0.46712,-0.82519 0.89355,-1.1084 0.42643,-0.28319 1.02376,-0.42479 1.79199,-0.42481 0.49479,2e-5 1.04166,0.0586 1.64063,0.17578 l -0.26367,1.53321 c -0.36459,-0.0651 -0.70965,-0.0977 -1.03516,-0.0977 -0.53386,1e-5 -0.91146,0.11395 -1.13281,0.3418 -0.22136,0.22787 -0.33204,0.65431 -0.33203,1.27929 l 0,0.95704 2.02148,0 0,1.36718 -2.02148,0 0,9.00391 z"
       style="font-size:20px;fill:#b9cde5"
       id="path3125"
       inkscape:connector-curvature="0" />
    <path
       d="m 155.26953,127.12163 1.81641,0.22461 c -0.28647,1.0612 -0.81707,1.88476 -1.5918,2.4707 -0.77475,0.58594 -1.76433,0.8789 -2.96875,0.8789 -1.51693,0 -2.71973,-0.46712 -3.6084,-1.40136 -0.88867,-0.93425 -1.33301,-2.24447 -1.33301,-3.93067 0,-1.74478 0.44922,-3.09895 1.34766,-4.0625 0.89844,-0.96353 2.0638,-1.4453 3.49609,-1.44531 1.38672,1e-5 2.51953,0.47202 3.39844,1.41602 0.8789,0.94402 1.31835,2.27214 1.31836,3.98437 -1e-5,0.10417 -0.003,0.26042 -0.01,0.46875 l -7.73438,0 c 0.0651,1.13933 0.38737,2.01172 0.9668,2.61719 0.57942,0.60547 1.30208,0.9082 2.16797,0.9082 0.64452,0 1.19465,-0.16927 1.65039,-0.50781 0.45572,-0.33854 0.81705,-0.8789 1.08398,-1.62109 z m -5.77148,-2.8418 5.79101,0 c -0.0781,-0.87239 -0.29948,-1.52669 -0.66406,-1.96289 -0.5599,-0.67708 -1.28581,-1.01562 -2.17773,-1.01563 -0.8073,1e-5 -1.48601,0.27019 -2.03614,0.81055 -0.55013,0.54037 -0.85449,1.26303 -0.91308,2.16797 z"
       style="font-size:20px;fill:#b9cde5"
       id="path3127"
       inkscape:connector-curvature="0" />
    <path
       d="m 163.14062,128.8892 0.25391,1.55274 c -0.4948,0.10416 -0.9375,0.15625 -1.32812,0.15625 -0.63803,0 -1.13282,-0.10091 -1.48438,-0.30274 -0.35156,-0.20182 -0.59896,-0.46712 -0.74219,-0.79589 -0.14323,-0.32878 -0.21484,-1.02051 -0.21484,-2.0752 l 0,-5.9668 -1.28906,0 0,-1.36718 1.28906,0 0,-2.56836 1.74805,-1.05469 0,3.62305 1.76757,0 0,1.36718 -1.76757,0 0,6.06446 c -1e-5,0.5013 0.0309,0.82357 0.0928,0.96679 0.0618,0.14323 0.16276,0.25717 0.30273,0.3418 0.13997,0.0846 0.34017,0.12695 0.60059,0.12695 0.19531,0 0.45247,-0.0228 0.77148,-0.0684 z"
       style="font-size:20px;fill:#b9cde5"
       id="path3129"
       inkscape:connector-curvature="0" />
    <path
       d="m 164.77148,134.45561 -0.19531,-1.65039 c 0.38412,0.10416 0.7194,0.15625 1.00586,0.15625 0.39062,0 0.70312,-0.0651 0.9375,-0.19531 0.23437,-0.13021 0.42643,-0.3125 0.57617,-0.54688 0.11068,-0.17578 0.28971,-0.61198 0.53711,-1.30859 0.0325,-0.0977 0.0846,-0.24089 0.15625,-0.42969 l -3.93554,-10.39062 1.89453,0 2.1582,6.00586 c 0.27994,0.76172 0.53059,1.5625 0.75195,2.40234 0.20182,-0.80729 0.44271,-1.59505 0.72266,-2.36328 l 2.2168,-6.04492 1.75781,0 -3.94531,10.54687 c -0.42319,1.13932 -0.75196,1.92383 -0.98633,2.35352 -0.31251,0.57942 -0.67058,1.00422 -1.07422,1.27441 -0.40365,0.27018 -0.88542,0.40527 -1.44531,0.40527 -0.33855,0 -0.71615,-0.0716 -1.13282,-0.21484 z"
       style="font-size:20px;fill:#b9cde5"
       id="path3131"
       inkscape:connector-curvature="0" />
  </g>
  <g
     style="font-size:30px;font-style:normal;font-weight:normal;line-height:125%;letter-spacing:0px;word-spacing:0px;fill:#ffcc00;fill-opacity:1;stroke:none;font-family:Lithos Pro Regular;-inkscape-font-specification:Lithos Pro Regular"
     id="text3189">
    <path
       d="m 308.98389,10.615662 0,-3.0322269 2.63672,0 0,3.0322269 z m 0,18.442382 0,-15.55664 2.63672,0 0,15.55664 z"
       style="fill:#ffffff"
       id="path3049" />
    <path
       d="m 326.03467,20.635193 0,-2.519531 9.09668,-0.01465 0,7.96875 c -1.39651,1.113283 -2.83694,1.950685 -4.32129,2.512207 -1.48439,0.561524 -3.00783,0.842285 -4.57031,0.842285 -2.10939,0 -4.02589,-0.45166 -5.74952,-1.35498 -1.72363,-0.903319 -3.0249,-2.20947 -3.9038,-3.918457 -0.87891,-1.708978 -1.31837,-3.618156 -1.31836,-5.727539 -1e-5,-2.089831 0.43701,-4.040513 1.31103,-5.852051 0.87402,-1.811505 2.13134,-3.1567186 3.77197,-4.0356445 1.64062,-0.8788849 3.53027,-1.3183375 5.66895,-1.3183594 1.55272,2.19e-5 2.95653,0.2514865 4.21143,0.7543946 1.25486,0.5029502 2.23875,1.2036331 2.95166,2.1020503 0.71287,0.898456 1.25486,2.07033 1.62597,3.515625 l -2.56347,0.703125 c -0.32229,-1.093734 -0.72268,-1.953108 -1.20118,-2.578125 -0.47853,-0.624982 -1.16212,-1.125469 -2.05078,-1.501464 -0.88868,-0.3759578 -1.87501,-0.5639458 -2.95898,-0.5639653 -1.29884,1.95e-5 -2.42189,0.1977732 -3.36914,0.5932613 -0.94728,0.395527 -1.71144,0.915546 -2.29248,1.560059 -0.58106,0.644548 -1.03272,1.352555 -1.35498,2.124023 -0.54688,1.328139 -0.82032,2.768568 -0.82032,4.32129 0,1.914071 0.32959,3.515632 0.98877,4.804687 0.65918,1.289067 1.61865,2.246098 2.87842,2.871094 1.25976,0.625002 2.59765,0.937502 4.01367,0.9375 1.23046,2e-6 2.43163,-0.236814 3.60352,-0.710449 1.17186,-0.47363 2.06053,-0.979 2.66601,-1.516114 l 0,-3.999023 z"
       style="fill:#ffffff"
       id="path3051" />
    <path
       d="m 339.36475,29.058044 0,-21.4746089 15.52734,0 0,2.5341799 -12.68555,0 0,6.577148 11.87989,0 0,2.519531 -11.87989,0 0,7.309571 13.1836,0 0,2.534179 z"
       style="fill:#ffffff"
       id="path3053" />
    <path
       d="m 359.25732,29.058044 0,-21.4746089 4.27735,0 5.08301,15.2050779 c 0.46873,1.416021 0.81053,2.47559 1.02539,3.178711 0.24412,-0.781246 0.62498,-1.928706 1.14257,-3.442383 l 5.14161,-14.9414059 3.82324,0 0,21.4746089 -2.73926,0 0,-17.973632 -6.24023,17.973632 -2.56348,0 -6.21094,-18.28125 0,18.28125 z"
       style="fill:#ffffff"
       id="path3055" />
    <path
       d="m 405.47314,26.523865 0,2.534179 -14.19433,0 c -0.0195,-0.634765 0.083,-1.245116 0.30762,-1.831054 0.36132,-0.966794 0.93994,-1.918942 1.73584,-2.856446 0.79589,-0.937494 1.94579,-2.021477 3.4497,-3.251953 2.33398,-1.914052 3.91113,-3.430164 4.73145,-4.54834 0.8203,-1.11815 1.23045,-2.175278 1.23047,-3.171386 -2e-5,-1.044905 -0.37355,-1.926252 -1.12061,-2.644043 -0.74708,-0.717755 -1.7212,-1.076641 -2.92236,-1.0766604 -1.26954,1.94e-5 -2.28516,0.3808784 -3.04688,1.1425784 -0.76172,0.761736 -1.14746,1.816422 -1.15722,3.164062 l -2.70996,-0.27832 c 0.18554,-2.021467 0.88378,-3.561993 2.09472,-4.6215821 1.21093,-1.0595493 2.83691,-1.5893339 4.87793,-1.5893555 2.06054,2.16e-5 3.6914,0.5713101 4.89258,1.7138672 1.20116,1.1425964 1.80174,2.5586114 1.80176,4.2480464 -2e-5,0.85939 -0.1758,1.704116 -0.52735,2.53418 -0.35157,0.830091 -0.93507,1.704113 -1.75048,2.62207 -0.81545,0.917979 -2.17043,2.177743 -4.06495,3.779297 -1.58203,1.328131 -2.59766,2.229009 -3.04687,2.702637 -0.44922,0.473636 -0.82032,0.94971 -1.11328,1.428223 z"
       style="fill:#c3d69b;fill-opacity:1"
       id="path3057" />
    <path
       d="m 408.31494,18.467224 c 0,-2.539049 0.26123,-4.582504 0.78369,-6.130371 0.52246,-1.547833 1.29883,-2.7416797 2.3291,-3.5815429 1.03027,-0.8398226 2.32666,-1.2597441 3.88916,-1.2597657 1.15234,2.16e-5 2.16308,0.231955 3.03223,0.6958008 0.86913,0.4638876 1.5869,1.1328322 2.15332,2.0068358 0.56639,0.874042 1.01073,1.938494 1.33301,3.19336 0.32225,1.254897 0.48338,2.94679 0.4834,5.075683 -2e-5,2.519539 -0.25881,4.553229 -0.77637,6.101074 -0.51759,1.547855 -1.29152,2.744143 -2.32178,3.588868 -1.03028,0.844726 -2.33155,1.267089 -3.90381,1.267089 -2.07031,0 -3.69629,-0.742187 -4.87793,-2.226562 -1.41601,-1.787106 -2.12402,-4.697259 -2.12402,-8.730469 z m 2.70996,0 c 0,3.525398 0.4126,5.871587 1.2378,7.038574 0.82518,1.166995 1.84325,1.75049 3.05419,1.750489 1.21093,1e-6 2.229,-0.585935 3.0542,-1.757813 0.82519,-1.17187 1.23778,-3.515618 1.2378,-7.03125 -2e-5,-3.535142 -0.41261,-5.883772 -1.2378,-7.045898 -0.8252,-1.162091 -1.85303,-1.743145 -3.08349,-1.7431644 -1.21095,1.94e-5 -2.17774,0.5127144 -2.90039,1.5380864 -0.90821,1.30861 -1.36231,3.7256 -1.36231,7.250976 z"
       style="fill:#c3d69b;fill-opacity:1"
       id="path3059" />
    <path
       d="m 434.9458,29.058044 -2.63672,0 0,-16.801757 c -0.63477,0.605485 -1.46729,1.210953 -2.49756,1.816406 -1.03028,0.605483 -1.95557,1.059584 -2.77588,1.362305 l 0,-2.548829 c 1.47461,-0.693342 2.76367,-1.533185 3.86719,-2.519531 1.10351,-0.9863083 1.88476,-1.9433386 2.34375,-2.8710936 l 1.69922,0 z"
       style="fill:#c3d69b;fill-opacity:1"
       id="path3061" />
    <path
       d="m 441.72803,23.389099 2.63672,-0.351562 c 0.30273,1.494145 0.81786,2.570804 1.54541,3.22998 0.72753,0.659182 1.61376,0.988771 2.65869,0.98877 1.24022,1e-6 2.28758,-0.429686 3.14209,-1.289063 0.85448,-0.859371 1.28172,-1.923823 1.28174,-3.193359 -2e-5,-1.21093 -0.39552,-2.209464 -1.18653,-2.995606 -0.79102,-0.786122 -1.79688,-1.179188 -3.01758,-1.179199 -0.49805,1.1e-5 -1.11817,0.09767 -1.86035,0.292969 l 0.29297,-2.314453 c 0.17578,0.01954 0.31738,0.02931 0.42481,0.0293 1.12303,1.2e-5 2.13378,-0.292956 3.03222,-0.878907 0.89843,-0.585923 1.34765,-1.489243 1.34766,-2.709961 -10e-6,-0.966779 -0.32716,-1.76756 -0.98145,-2.402343 -0.6543,-0.6347469 -1.49903,-0.9521294 -2.53418,-0.9521488 -1.02539,1.94e-5 -1.87989,0.3222847 -2.56347,0.9667968 -0.6836,0.644549 -1.12305,1.611345 -1.31836,2.900391 l -2.63672,-0.46875 c 0.32226,-1.767561 1.05468,-3.1371882 2.19726,-4.108887 1.14258,-0.9716586 2.56348,-1.457498 4.2627,-1.4575196 1.17187,2.16e-5 2.25097,0.2514862 3.2373,0.7543946 0.98632,0.50295 1.74071,1.1889844 2.26319,2.058105 0.52245,0.869159 0.78368,1.79201 0.78369,2.768555 -10e-6,0.92775 -0.24904,1.772475 -0.74707,2.53418 -0.49806,0.761731 -1.23536,1.367199 -2.21191,1.816406 1.26951,0.29298 2.25584,0.90089 2.95898,1.823731 0.70311,0.92286 1.05467,2.077644 1.05469,3.464355 -2e-5,1.875004 -0.68361,3.464358 -2.05078,4.768066 -1.3672,1.303712 -3.09572,1.955566 -5.18555,1.955567 -1.88477,-1e-6 -3.44971,-0.561523 -4.69483,-1.684571 -1.24511,-1.123044 -1.95556,-2.578121 -2.13134,-4.365234 z"
       style="fill:#c3d69b;fill-opacity:1"
       id="path3063" />
    <path
       d="m 473.26611,29.058044 0,-18.940429 -7.07519,0 0,-2.5341799 17.02148,0 0,2.5341799 -7.10449,0 0,18.940429 z"
       style="fill:#ffffff"
       id="path3065" />
    <path
       d="m 496.45459,24.048279 2.72461,0.336914 c -0.4297,1.5918 -1.2256,2.82715 -2.3877,3.706055 -1.16212,0.878906 -2.64649,1.318359 -4.45312,1.318359 -2.2754,0 -4.0796,-0.700683 -5.4126,-2.102051 -1.33301,-1.401364 -1.99951,-3.366694 -1.99951,-5.895996 0,-2.617177 0.67383,-4.648425 2.02148,-6.09375 1.34766,-1.445297 3.0957,-2.167953 5.24414,-2.167969 2.08007,1.6e-5 3.77929,0.708023 5.09766,2.124024 1.31835,1.416028 1.97752,3.408213 1.97754,5.976562 -2e-5,0.156258 -0.005,0.390633 -0.0147,0.703125 l -11.60156,0 c 0.0977,1.70899 0.58105,3.017582 1.45019,3.925781 0.86914,0.908206 1.95312,1.362307 3.25196,1.362305 0.96678,2e-6 1.79198,-0.253904 2.47558,-0.761719 0.68359,-0.507809 1.22558,-1.318355 1.62598,-2.43164 z m -8.65723,-4.262696 8.68653,0 c -0.1172,-1.308583 -0.44923,-2.290027 -0.9961,-2.944335 -0.83985,-1.015612 -1.92872,-1.523424 -3.2666,-1.523438 -1.21094,1.4e-5 -2.22901,0.405287 -3.0542,1.21582 -0.8252,0.810559 -1.28174,1.894542 -1.36963,3.251953 z"
       style="fill:#ffffff"
       id="path3067" />
    <path
       d="m 512.65576,27.139099 c -0.97657,0.830079 -1.91651,1.416016 -2.81982,1.757813 -0.90333,0.341796 -1.87257,0.512695 -2.90772,0.512695 -1.70899,0 -3.02246,-0.41748 -3.94043,-1.252441 -0.91797,-0.83496 -1.37695,-1.901853 -1.37695,-3.200684 0,-0.761714 0.17334,-1.457514 0.52002,-2.087402 0.34668,-0.629876 0.80078,-1.135247 1.3623,-1.516114 0.56152,-0.380851 1.19385,-0.668937 1.89698,-0.864258 0.51757,-0.13671 1.29882,-0.268545 2.34375,-0.395507 2.12889,-0.253897 3.69627,-0.556631 4.70215,-0.908203 0.01,-0.361318 0.0146,-0.59081 0.0146,-0.688477 -1e-5,-1.074207 -0.24903,-1.831042 -0.74707,-2.270508 -0.67384,-0.59569 -1.67481,-0.893541 -3.00293,-0.893555 -1.24024,1.4e-5 -2.15576,0.217299 -2.74658,0.651856 -0.59082,0.434583 -1.02783,1.203625 -1.31103,2.307129 l -2.57813,-0.351563 c 0.23437,-1.103503 0.62012,-1.994615 1.15723,-2.673339 0.5371,-0.678697 1.31347,-1.201157 2.3291,-1.567383 1.01562,-0.366195 2.19238,-0.549301 3.53027,-0.549317 1.32812,1.6e-5 2.40722,0.156266 3.23731,0.46875 0.83006,0.312515 1.44041,0.705581 1.83105,1.1792 0.39061,0.473646 0.66405,1.07179 0.82031,1.794433 0.0879,0.449231 0.13183,1.259777 0.13184,2.431641 l 0,3.515625 c -10e-6,2.451176 0.0561,4.001467 0.16846,4.650879 0.11229,0.649415 0.33446,1.271973 0.6665,1.867675 l -2.7539,0 c -0.27345,-0.546874 -0.44924,-1.186522 -0.52735,-1.918945 z m -0.21972,-5.888672 c -0.95705,0.390633 -2.39259,0.722664 -4.30665,0.996094 -1.08399,0.156257 -1.85059,0.332038 -2.2998,0.527344 -0.44922,0.195318 -0.7959,0.480963 -1.04004,0.856933 -0.24414,0.375982 -0.36621,0.793462 -0.36621,1.252442 0,0.703128 0.26611,1.289065 0.79834,1.757812 0.53222,0.468752 1.31103,0.703127 2.33643,0.703125 1.01561,2e-6 1.91893,-0.222166 2.70996,-0.666504 0.791,-0.444333 1.37206,-1.052242 1.74316,-1.82373 0.28319,-0.595698 0.42479,-1.474604 0.42481,-2.636719 z"
       style="fill:#ffffff"
       id="path3069" />
    <path
       d="m 519.20361,29.058044 0,-15.55664 2.3584,0 0,2.182617 c 0.48828,-0.761705 1.13769,-1.374497 1.94824,-1.838379 0.81054,-0.463851 1.73339,-0.695785 2.76856,-0.695801 1.15233,1.6e-5 2.09716,0.239274 2.83447,0.717774 0.73729,0.47853 1.25731,1.147475 1.56006,2.006836 1.23045,-1.816392 2.83201,-2.724594 4.80469,-2.72461 1.54295,1.6e-5 2.72947,0.427262 3.55957,1.281739 0.83005,0.854506 1.24509,2.170422 1.24511,3.947753 l 0,10.678711 -2.62207,0 0,-9.799804 c -2e-5,-1.054677 -0.0855,-1.813953 -0.25634,-2.277832 -0.17092,-0.463855 -0.48098,-0.83739 -0.93018,-1.120606 -0.44924,-0.283189 -0.97658,-0.424791 -1.58203,-0.424804 -1.09377,1.3e-5 -2.00197,0.363782 -2.72461,1.091308 -0.72267,0.727551 -1.084,1.892101 -1.08398,3.493652 l 0,9.038086 -2.63672,0 0,-10.107421 c -10e-6,-1.171864 -0.21486,-2.05077 -0.64453,-2.636719 -0.4297,-0.585924 -1.13283,-0.878893 -2.10938,-0.878906 -0.74219,1.3e-5 -1.42823,0.195325 -2.0581,0.585937 -0.62989,0.390638 -1.08644,0.961926 -1.36963,1.713867 -0.28321,0.751964 -0.42481,1.835947 -0.42481,3.251953 l 0,8.071289 z"
       style="fill:#ffffff"
       id="path3071" />
    <path
       d="m 552.96826,29.058044 0,-21.4746089 2.8418,0 0,8.8183589 11.16211,0 0,-8.8183589 2.84179,0 0,21.4746089 -2.84179,0 0,-10.12207 -11.16211,0 0,10.12207 z"
       style="fill:#b9cde5;fill-opacity:1"
       id="path3073" />
    <path
       d="m 584.87256,24.048279 2.72461,0.336914 c -0.4297,1.5918 -1.2256,2.82715 -2.3877,3.706055 -1.16212,0.878906 -2.64649,1.318359 -4.45312,1.318359 -2.2754,0 -4.0796,-0.700683 -5.4126,-2.102051 -1.33301,-1.401364 -1.99951,-3.366694 -1.99951,-5.895996 0,-2.617177 0.67382,-4.648425 2.02148,-6.09375 1.34765,-1.445297 3.0957,-2.167953 5.24414,-2.167969 2.08007,1.6e-5 3.77929,0.708023 5.09766,2.124024 1.31834,1.416028 1.97752,3.408213 1.97754,5.976562 -2e-5,0.156258 -0.005,0.390633 -0.0147,0.703125 l -11.60156,0 c 0.0977,1.70899 0.58105,3.017582 1.45019,3.925781 0.86914,0.908206 1.95312,1.362307 3.25196,1.362305 0.96678,2e-6 1.79198,-0.253904 2.47558,-0.761719 0.68358,-0.507809 1.22558,-1.318355 1.62598,-2.43164 z m -8.65723,-4.262696 8.68653,0 c -0.1172,-1.308583 -0.44924,-2.290027 -0.9961,-2.944335 -0.83985,-1.015612 -1.92872,-1.523424 -3.2666,-1.523438 -1.21094,1.4e-5 -2.22901,0.405287 -3.0542,1.21582 -0.8252,0.810559 -1.28174,1.894542 -1.36963,3.251953 z"
       style="fill:#b9cde5;fill-opacity:1"
       id="path3075" />
    <path
       d="m 590.93701,10.615662 0,-3.0322269 2.63672,0 0,3.0322269 z m 0,18.442382 0,-15.55664 2.63672,0 0,15.55664 z"
       style="fill:#b9cde5;fill-opacity:1"
       id="path3077" />
    <path
       d="m 607.69482,29.058044 0,-1.96289 c -0.98633,1.542969 -2.43653,2.314453 -4.35058,2.314453 -1.24024,0 -2.38038,-0.341797 -3.42041,-1.025391 -1.04004,-0.683592 -1.84571,-1.638181 -2.41699,-2.863769 -0.57129,-1.225581 -0.85694,-2.634271 -0.85694,-4.226074 0,-1.552726 0.25879,-2.961415 0.77637,-4.226075 0.51758,-1.264635 1.29394,-2.233872 2.3291,-2.907715 1.03515,-0.673812 2.19238,-1.010726 3.47168,-1.010742 0.93749,1.6e-5 1.77245,0.19777 2.50488,0.593262 0.73241,0.395523 1.32812,0.910659 1.78711,1.54541 l 0,-7.7050779 2.62207,0 0,21.4746089 z m -8.33496,-7.763671 c 0,1.992193 0.41992,3.481449 1.25977,4.467773 0.83984,0.98633 1.83105,1.479494 2.97363,1.479492 1.15234,2e-6 2.13134,-0.471189 2.93701,-1.413574 0.80566,-0.942379 1.20849,-2.380366 1.2085,-4.313965 -1e-5,-2.128896 -0.41017,-3.691395 -1.23047,-4.6875 -0.82032,-0.99608 -1.83106,-1.494127 -3.03223,-1.494141 -1.17188,1.4e-5 -2.15088,0.478529 -2.93701,1.435547 -0.78613,0.957043 -1.1792,2.465831 -1.1792,4.526368 z"
       style="fill:#b9cde5;fill-opacity:1"
       id="path3079" />
    <path
       d="m 624.95068,24.048279 2.72461,0.336914 c -0.4297,1.5918 -1.2256,2.82715 -2.38769,3.706055 -1.16212,0.878906 -2.6465,1.318359 -4.45313,1.318359 -2.27539,0 -4.07959,-0.700683 -5.4126,-2.102051 -1.333,-1.401364 -1.99951,-3.366694 -1.99951,-5.895996 0,-2.617177 0.67383,-4.648425 2.02149,-6.09375 1.34765,-1.445297 3.09569,-2.167953 5.24414,-2.167969 2.08007,1.6e-5 3.77928,0.708023 5.09765,2.124024 1.31835,1.416028 1.97753,3.408213 1.97754,5.976562 -1e-5,0.156258 -0.005,0.390633 -0.0146,0.703125 l -11.60157,0 c 0.0977,1.70899 0.58105,3.017582 1.4502,3.925781 0.86913,0.908206 1.95312,1.362307 3.25195,1.362305 0.96679,2e-6 1.79198,-0.253904 2.47559,-0.761719 0.68358,-0.507809 1.22557,-1.318355 1.62597,-2.43164 z m -8.65722,-4.262696 8.68652,0 c -0.1172,-1.308583 -0.44923,-2.290027 -0.99609,-2.944335 -0.83986,-1.015612 -1.92872,-1.523424 -3.2666,-1.523438 -1.21095,1.4e-5 -2.22901,0.405287 -3.0542,1.21582 -0.8252,0.810559 -1.28175,1.894542 -1.36963,3.251953 z"
       style="fill:#b9cde5;fill-opacity:1"
       id="path3081" />
    <path
       d="m 630.94189,29.058044 0,-21.4746089 2.63672,0 0,21.4746089 z"
       style="fill:#b9cde5;fill-opacity:1"
       id="path3083" />
    <path
       d="m 640.11182,29.058044 -2.44629,0 0,-21.4746089 2.63672,0 0,7.6611329 c 1.11327,-1.396469 2.53417,-2.094711 4.26269,-2.094727 0.95702,1.6e-5 1.86278,0.192887 2.71729,0.578614 0.85448,0.385757 1.5576,0.927748 2.10937,1.625976 0.55175,0.698255 0.98387,1.54054 1.29639,2.526856 0.31248,0.986338 0.46873,2.041024 0.46875,3.164062 -2e-5,2.666021 -0.6592,4.726566 -1.97754,6.181641 -1.31837,1.455078 -2.9004,2.182617 -4.74609,2.182617 -1.83595,0 -3.27638,-0.766601 -4.32129,-2.299805 z m -0.0293,-7.895507 c 0,1.86524 0.2539,3.212895 0.76172,4.042968 0.83007,1.357425 1.95312,2.036135 3.36914,2.036133 1.15233,2e-6 2.14843,-0.500486 2.98828,-1.501465 0.83983,-1.000972 1.25975,-2.49267 1.25977,-4.475097 -2e-5,-2.03124 -0.40285,-3.530262 -1.2085,-4.497071 -0.80568,-0.966783 -1.7798,-1.450181 -2.92236,-1.450195 -1.15235,1.4e-5 -2.14845,0.500502 -2.98828,1.501465 -0.83985,1.000988 -1.25977,2.44874 -1.25977,4.343262 z"
       style="fill:#b9cde5;fill-opacity:1"
       id="path3085" />
    <path
       d="m 665.02881,24.048279 2.72461,0.336914 c -0.4297,1.5918 -1.2256,2.82715 -2.3877,3.706055 -1.16212,0.878906 -2.64649,1.318359 -4.45312,1.318359 -2.2754,0 -4.0796,-0.700683 -5.4126,-2.102051 -1.33301,-1.401364 -1.99951,-3.366694 -1.99951,-5.895996 0,-2.617177 0.67382,-4.648425 2.02148,-6.09375 1.34765,-1.445297 3.0957,-2.167953 5.24414,-2.167969 2.08007,1.6e-5 3.77929,0.708023 5.09766,2.124024 1.31834,1.416028 1.97752,3.408213 1.97754,5.976562 -2e-5,0.156258 -0.005,0.390633 -0.0147,0.703125 l -11.60156,0 c 0.0977,1.70899 0.58105,3.017582 1.45019,3.925781 0.86914,0.908206 1.95312,1.362307 3.25196,1.362305 0.96678,2e-6 1.79198,-0.253904 2.47558,-0.761719 0.68358,-0.507809 1.22558,-1.318355 1.62598,-2.43164 z m -8.65723,-4.262696 8.68653,0 c -0.1172,-1.308583 -0.44924,-2.290027 -0.9961,-2.944335 -0.83985,-1.015612 -1.92872,-1.523424 -3.2666,-1.523438 -1.21094,1.4e-5 -2.22901,0.405287 -3.0542,1.21582 -0.8252,0.810559 -1.28174,1.894542 -1.36963,3.251953 z"
       style="fill:#b9cde5;fill-opacity:1"
       id="path3087" />
    <path
       d="m 671.04932,29.058044 0,-15.55664 2.37304,0 0,2.358398 c 0.60547,-1.103501 1.16455,-1.831039 1.67725,-2.182617 0.51269,-0.351547 1.07665,-0.527328 1.69189,-0.527344 0.88867,1.6e-5 1.79199,0.283219 2.70996,0.84961 l -0.9082,2.446289 c -0.64454,-0.380847 -1.28907,-0.571276 -1.93359,-0.571289 -0.57618,1.3e-5 -1.09376,0.173353 -1.55274,0.520019 -0.45899,0.346692 -0.78613,0.827649 -0.98144,1.442871 -0.29298,0.937511 -0.43946,1.9629 -0.43945,3.076172 l 0,8.144531 z"
       style="fill:#b9cde5;fill-opacity:1"
       id="path3089" />
    <path
       d="m 680.61475,30.347107 2.56347,0.380859 c 0.10742,0.791013 0.40527,1.367185 0.89356,1.728516 0.65429,0.488277 1.54784,0.732418 2.68066,0.732422 1.2207,-4e-6 2.16308,-0.244145 2.82715,-0.732422 0.66405,-0.488284 1.11327,-1.171877 1.34766,-2.050781 0.1367,-0.537111 0.20018,-1.665039 0.19043,-3.383789 -1.15236,1.357422 -2.5879,2.036132 -4.30664,2.036132 -2.13868,0 -3.79395,-0.771483 -4.96583,-2.314453 -1.17187,-1.542965 -1.75781,-3.393549 -1.75781,-5.551758 0,-1.484365 0.26856,-2.853993 0.80567,-4.108886 0.5371,-1.25487 1.31591,-2.224107 2.33642,-2.907715 1.0205,-0.683578 2.21923,-1.025375 3.59619,-1.025391 1.83593,1.6e-5 3.3496,0.742203 4.54102,2.226563 l 0,-1.875 2.43164,0 0,13.447265 c -1e-5,2.421875 -0.2466,4.138182 -0.73975,5.148926 -0.49317,1.010738 -1.27442,1.809077 -2.34375,2.39502 -1.06934,0.585931 -2.38526,0.8789 -3.94775,0.878906 -1.85547,-6e-6 -3.3545,-0.417486 -4.49707,-1.252441 -1.14258,-0.834966 -1.69434,-2.092289 -1.65527,-3.771973 z m 2.18261,-9.345703 c 0,2.041021 0.40527,3.530278 1.21582,4.467773 0.81054,0.937503 1.82617,1.406252 3.04688,1.40625 1.21093,2e-6 2.22655,-0.466306 3.04687,-1.398926 0.8203,-0.932612 1.23046,-2.395013 1.23047,-4.387207 -10e-6,-1.904287 -0.42237,-3.339832 -1.26709,-4.30664 -0.84473,-0.966784 -1.8628,-1.450182 -3.0542,-1.450196 -1.17188,1.4e-5 -2.16797,0.476088 -2.98828,1.428223 -0.82031,0.95216 -1.23047,2.365733 -1.23047,4.240723 z"
       style="fill:#b9cde5;fill-opacity:1"
       id="path3091" />
  </g>
</svg>
